<mxfile host="65bd71144e">
    <diagram id="JmADnd6zZh4NUCRP8F_L" name="Page-1">
        <mxGraphModel dx="527" dy="390" grid="1" gridSize="10" guides="1" tooltips="1" connect="1" arrows="1" fold="1" page="1" pageScale="1" pageWidth="827" pageHeight="1169" math="0" shadow="0">
            <root>
                <mxCell id="0"/>
                <mxCell id="1" parent="0"/>
                <mxCell id="2" value="" style="shape=image;verticalLabelPosition=bottom;labelBackgroundColor=default;verticalAlign=top;aspect=fixed;imageAspect=0;image=data:image/png,iVBORw0KGgoAAAANSUhEUgAAAggAAAHrCAYAAACqxGXSAAAAAXNSR0IArs4c6QAAIABJREFUeF7svQd0HdeVLbgrvJyQM0CCIAEw5yQGiZIoSrJIZcmWk+y2/adXp/nT/bvnp/WnZ/p3+J3+dPf072y73bYVbMmSKYkURYlizjkTAEEiZ+DlepVmnVN4FEiRSHwkIbBqLYgiUeHWubfu3Weffc4VNm3aZGKMhyAIoJ9MHKZpgn4m+5Gp98yk7cnmmbxfpt7xTo2F+2Gc3Snb3e59MzVf3G47hl6fybGfvu9E/wYyYb9MvmMm+yCT9yI7GYaRCXNl/B53cx4TJgJAyIQF76bRxtPeTH1Umf4IMj1xT/R+yPT7jmcs3G/XTNQxkelvifo1U++aqfvcibGWqbks0w5Kpr/tidwHmX7XW42Tew4QMjmAMzlwM92uTN4v/WFl+p6T+X53YjGYzPbK9LuRN5bJCTcTE+REHxP3iwebib7M9HidyPe7m+N2UgKETE5EE3mg2G0bnQXSH5Q9EY3OXnfiLF3XMwYQMjVBZuo+d8JeaTZiooKEO/XO9n2Ht8DdnstsgGCPyElvgbv9UU16g47jBW2AMHajkaNjA4Sx220yX3G35zIbIEzm0WS/G1vgbn9Uttk/bwEbIIx9VNgAYew2m+xX3O25zAYIk31E2e9nA4QJMAZsgDD2TrABwthtNtmvsAHCbfRwWqRoaxBuw4iT8NK7/VFNQhPe9ivZAGHsJrQBwthtNtmvuNtzmc0gTPYRZb+fzSBMgDFgA4Sxd4INEMZus8l+hQ0QbqOHbQbhNow3iS+92x/VJDbluF/NBghjN50NEMZus8l+xd2ey2wG4Q6NKBNUaTIz1SbvUBPvj9sK1AsCBJH/e3+88wR8S93QYRoZqJhK/UmVXDPQl5z2Ojg+JqDJYFCV2Qlaze96e9Fsl4G+nYidMMHaZAOE2+iQicEgCNAFB1KiF6roggkxA1PZbRjFvpRWFGshyFB5cNukY7SAOVi2NhNrSBrwZQzrWWNjQn2kg3ZiLdUELkOvQ4AIAw5DgduIQDS1MQ4M+/SxWsAGCGO12JDz7z1AEKAJLkQcBehyV2LAWchgwV6XbqNT7UsnhQUygQ3ShsgYNpgUlr03L0H9qZsiJGjIVrtQGD+PoNpug4Q73B02QLgNA99rgGAIIqJyAVp989AZrEXcnQtdlCaWd3Ib9rUvtS1gW8C2wGcWEGCYBnxKPwr6z6MyvA9evR8CJuYmR5Oh52yAcBu9eO8BggOdrirU56zCQHAqDIlCDPZhW8C2gG2ByWsB0VCRHb6Kqp5PkafUQbJDDXess22AcBumvdcAQRecaHdXoz53DcLBcpiCfBtvY19qW8C2gG2BiW8BkViERBeqOneiOH4SsqlM/EZ/QVtoA4Tb6LiJARBqhgAE6Tbexr70i2aBtJL7fo+Rp1kzK5PHPia7BSyA0INpnTtREj9uA4Q72OE2QLgN49oA4TaMZ186TgtQnooJh2nAKehwCCb/iOm73U9rJGUrmEAKAlKGiJQgwWCdu50EN87B9YW4zAYId6+bbIBwG7a2AcJtGM++dIwWMCGbBjyCBr+oocAFlAdE5PtE+BwCZHEwfW6Md/0in04ZeapuYCBpojVioDlmIKJJiBgyEoNg4Yv8fnbbb24BGyDcvZFhA4TbsLUNEG7DePalo7YAMQYeaMiTUpiZDdTmyZiW60RVngfFIRf8PhccTgcE8RqPMOp7f5FPpMI+SjyB/piKyx0RNPSk0Niv43i7isakhLDpQoq5lfuJVpn4PUo9QniW/uT0RVhM0GgPGyCM1lK3f54NEG7DhjZAuA3j2ZeOygISTGQJKczwa1he6sTamizMLw/AF++H3tMJMxmHNz8f/ooKyD6fVaTpPjn0ZBK9p04BkoxYVzfcNbPQrrux50Iv9jREcajTQIvmggIS794/dpmo3e8UAJcowCdbrJdLBCcoRjQTMdWAogOKaY4IFmyAcHd7WBTFu1b0bVylltPmmIiV6dIg4e52GT3NqqDY7rZFinff9nfniQQOcoQUFmTreKI2gEfm5mNaoQ8u6Og/fhTdR44g0dGOnDlzUfTgQ3AVFNxXLEKqvw8Xf/AvcPoD6L94EdO/8Sr8M2oQSRk4XN+Lzcc6se1yCldTHiTsDJ+7M2hv8hRZALySgHK/jMqQA+VZMgr8MrxO4saA3riGlgENV/s11A+o6FMMKIZ5y+oGNkC4u12ZZhHuxlOFjRs3joFMur5JExEg3A2j3eoZ6TTHupx0mqOdxXAv+yOTzyaZXbagYmGWhufmh/DYvAJU5PngdIgwFAXdRw6j98RxxNtakTt/AQrXPghXbt59BRAUAgj//I/w5Oah/9IlTP/q1xCqqQVEEXFFx6kr/fjp3mZ8UK/isu6FBvv7yOQYHelexNk4RaDII2FWrhPLyj2oznch4BbhINQwGGqgP2OKga6ohiNNSRxtTaIhrGJAM6HfZLWYrAAhk+tbphzXuwkO2O29HYAw0oAcze8z2Qmjed6dPOcaQKA6CAGqgzC2CZA+UfpO6U/6ECkWeC8PSQAcAtVbB1TThEal4e9lgzL47KHvppkm1MF3I/s7BasWXGoIveoxVdT6FLw8L4hnlxRhaqEfTtnSGBiqiujly4g1N0Hp7UGgchovjPdbiEGLRdH6ycdwZ+cg3t6OgpUr4SkqZpBEAsZESsORul78wydN2NoioBtu3qtkNAfFyN2iNRbJmx1pLNI3RH08NJBBfXqzBe7G59M1NO49khWbj+mAapi3HPvp75baRrsRjOYZ6WfS/T30nyHvdSt7pN8preJIawXom6RQAdmHxmxCv3lbKaRQ5pXxQLkb66b7UBR0MAio606hI6IhoZqQRCDkFlGR7cCMfCczoyeak/ioLoZTPSn0q8bn7GADhJFHsA0QRrbRTc+4nwECfegOWoRFgZG9UxQQcIo8CXYmdEbs96poKU2uOU6RaUi3JKAtpqElriM1AkJIC55uFWGmy0kAlX6va5PeKET/dB1NvkNtkoZgYwFT9G7ZDhHlARkeSUBHXOd3o38v8ogo9MpI6iaaoxp6UgbtNIQCMY5N05341ppSzJ+SBbfzM/BHH7+eTMBIKtDVFGSPF7LXC0EaG0Ac5yc0psusLYSpF0yOY1I8M1OHqetQenshuZzQFQXOYAii03lNh0EgIZpQseVYG/7Hh004qQSREhwjPp7WTxqLM7MdkAQBl8Mqfx+0eNGrEHgdOibojXyygDyXBI8ssAyEzgunDPQoBpIjKPAIJJZ6JSwsdPH3eKhdQX1YY5Bws4MW+DKvBI9DQGfc4DFDbRrpoLGf7RQxN5dsIOBSXwrtinHTmD+/kyQgzy3B67CAEo1RCt8QWKrMcqA6x4mmsIrzPSkkNJOBVPp7pbFd4JKwptyDDTU+5PllnGhJYk9jHA19Ku+0SZk31GzSHWR7JMwrdOKhKj+KgjIOXUngnbMRnO5X+b5DDxsgjNTTtOeWyT+3e9gMwu1a8B5ePxoGgT5U+tBpYXJLIrJcIkoCMkpDErI8EnxOEX0xHZ9ejuN8mD7G61+IlpxBh4O93jt1kDcyK8uBdZVeBN0iDjYlsbs1waDlVgeBHZrIQ06JWOWbbkSnGSYiqoEB1QCtvS5elCVku6Vh9Xw0IUZVE+0xDQODHhLZkSY9jpumdBZXjcYk5G3VBGU8PM2LHK+MI80JHGxNotAvYWWZB1NyHEiqJvZeSWB/WxKalsL8gILvPZCLp5eWIsvn/HxbaQIgw9AkQNsRT0BxIk1QqZSKvv4wkkkFwaAfWaFAZkECbU/M704A5PPgg9rQ0pvAf//5Obx9WUAnPHTm54YUjXMCzH5ZgEsSMCPLgWfnBqDqJj48H0VLVIPbISKhAs0xDWHtM8+W+ndGQMaKMjfKshzwuUT+Zk63KfjkShxNcf1zXj41mVgDkk/S9XNyHXhhXhCFARmvHRvAnpYkYoPji0AqAYD0WCt2iXhxVgD5fhmf1MVxtEvBwJD23Ox7STMHNA6/uSQLmm7irdMRnOtTEdMIYFwPhMmBqAk6sG6qF8VZMo+veMpAS7+KiGJgQakbi8s9uNCpYN/lBLrjOusHyDYEEuhbWZzvwkvzgyjPdmD/5Ti21MXQMKDCKwt83+p8J4/77fUxXOhTeY5aXuzGM3MDKA468O6pMN69FENbUr8OxNgAYeRZ2AYII9vovmcQaBoMyiKWFrkwu8CJoFvixbcy14nikIyWfo1Tw+hn95U46iIaL6LpgyZN8nxz3CJ0w0RLYmRviK4lUEKTGU2AblIqm0B80AtwC1YRG/IKhnrhJGJaWuDC87MDyPHL2H4xil9eiqFbvTmnQe+W4xCwqsyDBcVuuEnwNGS15vinLCClGzjWksT+5iRPNDmyiMervJhV5LpG2Q8dKOnr3LKA7piOn58I40R/CpopoDYoYWNtAG6HgMNNSRzuSKJbsTyqNE3sk+l9BcR1a9Klg8DPojwnXpwbRGFQxo66GFOoVTlOPFHjQ1m2A7GUiU/rYthaH4WhxrBpmozvPVSG+VOz4BgMLYx1yFveu2W/WymR+ZzBbX5vltJE13/GAIgQRQuMDPVOhoKTof9O/9/bO4BTZ+rQ3tGN6hlTMHf2DDidlhc/Gg8nfe80E0F/CkT9jwEUkR7h/aOt+O8fNOFkKgTjhlAc9R155VUBGaumeJDvlzAlx4mVlV70xXVe3KIpg59Z35XCzqtxXEmQ5211sEsQMC0gY3GJC1OyHZhX6sbMIhf2N8Txz4f6caJHvY5FoO+DvstiLwFVkQHJ1GwnNtT6kOuX8P7pCE62K0jpQMow0ZvQ0RrXERsEqjN8Ev6vxwp43Pzj7l5saYwzi3ArsEohrAK3iFK/jNl5TvzagzmcMfDW8QGc7UjhbLeC1sT1bB19j6uLXfjaoizk+CUomomAS0RnRENvzMCMAidqCp1o6lNxtk1Bc5+KPVcSONKlcDsL3SKeqQngiZl+1Hen8LNTYRwnpkE3MTMo4z89ko+Hq32IKDr+5MNuvH0pxuGEfKeI9VO9+PLiEDrDOv7lUB8OdaegDImj2ABh5JnABggj28gGCABCsojlRS7MLHSyapgYg3UzfCgKOfD9fb3YfD6K1piOAdWiCIdOMl5RwOxsB1ZN9UDTgY8aYuhVDCvWSjSqAURUE4khimNaDGkyosmUPIWaXCd7HCc6FRADXp3lQFIzcalfRf8QD5wmpGUFLrw4L4j8gAUQfnEhik7l5hMfTepZDgHLS9yYU+iCmxbRIY4hhSlml7h5st9xMYY3ToZxfkBFQBbxUIUH03IdcKUFGENGCtln0aBXX9+l4n981IX93QoDhDkhGd9YnIVVVV5c7k5hy7kotjbE0JEyWMtR6ZexrMSNuGriQKsFSAgX0eKzON+Jl+YFUZLlwI5LMfzyQhQeh8jtJ6+zN075+0lc7E0iaETwvaVBfOuhqSgIucecuZj23KPROAbCUb6evPdgwA+Hw9qvg85RlBQSSQWRSAwpVYPb5UQw4EMg4ONz6Pd9fWH0DUTYQw/4fMjKCsDr80BNqaD7S7IEv98LWZJ4wUwmkkgmU3A6nXA6ZbS0dmL3vmO4crUVC+bVYvXKhfB63ZAkEaqqMbMgScQACfx3YgHoOt0wmIZ2u138u3g8ib7+CJ/v8bgQCgXg83ogyyOHVahdda0R/Nr3T2B3NAvJG8IMaYAwPSjjwUovZhe5sHKal7+Fo1cTDKTjqoFYysCV3hSOdaTQmiRgaH0tdL2VvmeNfQKCtMCdaU3iH/f3Y29bEtEhCxx9I9VBGSvKPZie52QKn0BxdYGTx+S5NgWdUR00pDUDON2axEeX42iMaQxGa/wS/vipQpSGHPiL7d3YeiVx01h9elhnywKWFbqwcqqPgcvq6R6O/xOAOdWiYM+VOK6yc2BpY+KayQzImhI3vrwgxGO4P6Fjer4DnREdl3tSmFXsxqIKNy51KjhwOcGagrOdCs70WWBoZpYDry7OQkWWA++cjuCTxjgzFRRWqMly4j+uz8O6Gh+LE/94azfePR/h7AVqA+kWXl0SwuIKD354oA+bG+IcqknPTTZAGHnxswHCyDa6rwECe8ICLaIicl0UYqBcViDHI+FX1+RidrEbf7OzG9vqYrzI0yRA6D6iGezZk6ef6xSwsNCNb6/IYmCx7VyURUnkSQTcEsIJA++di+J8OIWkYRU+qfDKeGK6D16nwL9fU+VlD+hnx8NwOgQ8OyeA9oiGn54I43JCv+b1E0BYXujCKwtDmJ7vxAGKQZ4Jo2FA4/bRpHMjl3AtfCJbMdKhR65LxMvzQ1hS7sHhqwn87HQY5/pVvkdAFhgoEDtCoYmYaiJmGPCLArMRX12ShRyfhJ8fC+PNsxG0KFY7Q7KABXkubJzlxwKiV9sV/PPBPpwb0EDPe3K6FxvnBtHYncLfHejDubA2BCC48NWFQcwsduNIUwJvnwqjKaJx+pfXIXIIpCOhQ9U0VDlj+I3VuXhldQUCnpFj5kPfmyaGWCyBcxca0NjYinAkyottTk4WFs2vRXlZES/O/QMRnD5zCR1dvYjHkgwUXC4nZlRVYMmiWfy+p85cwvmLlxGJxhkABP0+VFaWYt6cag4bHD56hv99zuzpKCku4OdeqGtEV1cfiovykJsTwrkLl3H0+Dn+tykVJaitqUROdhAlxfmIJ5K4cqUVHq+bF9nunj44HQ4UFuYxWKB3qSgrQkpV+T5t7V1QUhpcTjonF/Nmz0BxUf410DPclNDRl8S//8ExbOnwoE9wfa4uAsEM6ouZWTK+VBvAozN9iCRNHL6SQGNPCvW9KabYZUlAOGWyhoT6bCgLRuNxil/GqwuCeHlxFpp7VfzLgT683xBD35D4HHn05X4J8/JdKA3J/G0RUKgpcCGhGjjZkkRfUkdVrhMlIRlnWhX85EQYp/tU/v5qAxL+dGMRs4B/tLULW69SOOLWDIJfEjAnx4EV5V48ON2LaflO9vhPtSSZDSLATnoHCse1DmicRdAa17CsyM3fIy3qxKBU5TkQThpo7FVRmiWjutDFgKGhS0FPTMf5ToVDZxRuIKD87eXZiCR1/OjIANojOuYUuVAxmOL45Gw/aotczEy8dzqC060KgxB6Ns0PG2b48K0V2dh8KoIfnRhAY/yzMIMNEEZe/GyAMLKN7muAQB5AoUvEA2UenniIxqRZ2O8U8dAMH0pCDqa0iTKliSGRMnCqXcGh9iTH3qsGPZxZBU6snx2A3yXiOHkqCR0+l8QUI00mf7C1E4d7UxyaoGdO88r46vwgexdtAxrrHGhS3XUpxgDlS3ODONuexF/t7kVDXL/mFaQBwtcXZ2HpFDd6YzrHcCnGebxVQV1/Cr2pz7MctxoGJS4R31oUYq/pWPNnAIHio9TOCo+Ex6os8dThpgTO9iiYEnDwhLig3I299XH869EB1mWk53ZqP4GIyqCMpWVupMgLa06yd7OkwIXvPZCFimwnfnk6gh8eG0ATAaBB+prisd9YHMLKaR70Jwz2CmlCPdmm4Eq/iu6UgahmwmWqmB9U8Btr8vHMslJ4XWPboZNi/mfO1uHT3UfRPxDmBba7dwDhcBQL5tXgkYeWs4e+Z/8JHDx8Ck6XA9MqStHY1Ibunn5ewJ/f9AgSCQU/fuN9NLe0o3r6FJQWF8DtcSM/LxvV0yvQ1d2H9z/cjfb2bixZNBurVy5AR2cvPtpxACklhcWLZiEnK4gjx89xewYGosjNzUJJST6KCvIws2YaItEYgweR2ISUiqaWdsiSjOnTypmZ8LjdmD6tDPWXm3H81AUGHIUFucxKxOIJLJxbi9UPLGTwQyzDcEdPJIU/ePMMXrtooANemDdoNixRnYhHpnjxzWVZyPXLaO1XGeRKkoDWsMoMAi2WV3tVfNoYR11YY4Fd+qC4+9JCF74yn/rZC0UzGBj/+GQYLcnPwDCHo0QBXtH6M4fAZbUfK6Z4mI7fciHKoHrdNB+WTfGgqVfFG6cjONNPY9ECCH/5dDEDhP+2uRNbm5NI6hZ8JiaLWEN6RkynegKAKQCBQY3Pd1dkM4u1tyGO5n4Vc4vdyPJJUIgJ1AwGQ3uvxHElomNJsQuvLslGQVDiEKPfJaFtQMWFzhSDN9JaTMl1cljlQofCWo299D0kdDw8xYuvLw3hVFsSrx0Po8Ar4+tLs7Cw3M1zCYVSCBgRu9Md1RFVDPTHDfz0cD8+uBhDTa4D/+GRfBxqjOPvD/bjQkS9puOwAcLIi58NEEa20X0NEGj+y3OKWFLkYk+EAIIkCigOyFhe6eVc5N31MTT2qBZAUA1c6ErheFeKPYoZQRmLyzyM+NdV+/n8nSQYGlCxsNzLSuOPL0Txg2MDuDq4ENKkFHIIWFfmxjeWkvdgMBNA2geKYxOoKAw6sO1ChCe89iGCh3SIgShN8iz64hpSusmApj2s4XhrEruuJHCxT+WQxkjiwOEAAtmm0iPj5bkBPFLr54Vgf2MctYUuLCz34GRzEq8fD+NYt4LITXLISMBFXhl5nQIEVIRkPDc7gPW1flzqTOHv9/fiYKcVb6XDCjG48JUFQcwpcaM/riOpGczEkLd0ojWJ3VcSON+bgqCnsDgrhV9fW4gnF5fA6xqZQh860Mnbf+eXH/PCGwr5MWfmdGYJ6huakJ+fg6++/CR0XcdP3vgAnV29WP/wCmYE9uw/jjNn6zF1aglefGY9e/ff/9dfoL2zB7NqKrFowSyUlRVxCIIo/mg0gf2HTuHjTw+gMD8X69YuQXdvP3buPorSkgJsWP8AfB43LlxqxIHDp9n7J3Zi3txqZGcFkZMdQkdnD/YdOIme3n5omsYARVV1FBfmIRj0MduRFQzg8LEz3A5q66zaKpw4fQH7DpzgEMNLz21A1bQyDlMMd/RFU/jTX5zHv55W0AYfjCGCRhq3FB5YUehmAd/sEhdOt1ieLHn288s9CCd1Tr+72JXCxS4FR9oUNMUtyp8OYrAK3RKervbh6blBzjAgr/xCRwpvngrjSKdyTXQ4tJ307AqvhO8syWLR35azEbx7IcbiyE21fiyv8KChW8Fb56K4MGCB1ZkBGX/1XDGKAjJ+7512bG9NXovRFzpJY+ODyyFi1+UYGqI6gxgKV6zIdeK/PVHIi/I/7O7jhZyEskTrD1BxIs1EWDHQHtc53PhAsZtDakGvyGJC+uZJk0EhhpRmMvCvLnBxaORsu8Le/q6mBIObRyu9+NqSLBy8GsebJ8I8B/3qqhwsnephDQ/pgziLgdJ7NZNFkwMJA9/f14fXT4RRGpDxXzbk42RTAn97oB/nwjZAGMuSZwOEsVhryLkTUe09zlfBSFkM6QpmBA6sxVvE2ilePDHLzx8kqaWPdCg8uZD/QX/GaVEzAb9M2QEC8t0SXlkQ4sX9aFMCTknA3FI3C5NIBX2yN8ULdvogT4wmvFUVHqiaiVOdKU7/WlLuxhOz/cw6/NOBPhymBXTIdWmAkFZyH7maQGNfitmPuSVuvv37ZyP4oD6ODuV6VfPN7DccQKDz6Xnzc514elYAa2d4GcDQYryvIY63ToZxpCuFsGrcMu2Twjd5LhFz8lx4otaP+aVuFjVS6GDb5etFY2kNAukrSrOcON4UR11PivO+55Z4ePLecj6K9y5GEU4ozCD8+toCbFxKAGFsDEJPTz/+9Se/xNnzDSjIz2GPmyh6YhCKivKx8Ym1aG3vws/e/ogzIL777edRWJCDLdv24PTpOkypLMVLzz4GSRSZYTh5+iJ6egfY+ycWYfbMKkyrLIMoSmi82oLNW3ais7MXUyuKWTNAbMWiBTOxdvUiuJxOZiAINDQ0NmPxwpl4cM1S1iDQGGtt7cSO3Yc5fCBLFO4RWb9A8C/g92HxwlmsZSGAQMzI0xsfRm31VD7/3c2fsAbi1a89jdmzqiDLw9upN5LCH711Fj8+p6GDAcJnjIMFEESsKHDisRo/A+nuqIaqfCcvfsQKXexU8E/7+3CkXUFvkgSD19cqoOwHEtm+MNdS7Z9rT/IiXZnrwP7GBN49H7UYhyFjnp5L4a5lhW58dVEI2V4JPznSjw+vJED6n6/MDWBRmZsBJF8fsQAJAYS/ft4CCL/7dju2t1kAgUTBi3Md+I+P5vE7/OG2Lhb40TUE3NdXePC/r8vjsMDf7epBcZaD++xIaxLNlFJsWLVQSFtBmoq1JW68vCDEDgQt3nNKKDQDdEU0DCR11trMyHdhVrGLwxXEnO1vTqAvaWBNhQffXJrFAuifHB1gMPBErQ+zitwIeSTMLHFxxgYxExReaB/QMJDQ8MHZKA40J7GkxIXffCgPu+ti+KfD/bgU1WwGYQwLhQ0QxmCs6xD7BEwHG+erjAgQ0vcl74Y++OqQA19bGMLCMjf2NMTYi7846JXc2IZ0vYACh4hnagNYV+1DR1hlT4EmudPtKZztS7H46kZvntIPySMjsOCVLBaDqgFSXH/z6TB+cT7K+dfXCSIHRYrPzw0y7f/xxQi2NcRZtDUzz4Vcn4iGHpUZDlI700FiL5pgKePgRoKZaFtakBcNahDIiyMNQjpPm86nSZ1EmM/MCeKpOQGmkv/6kx4WEJLuYGj6NfmnRAcTjeyWgFy3xGGG9dV+VOY5OVTz7pkIPr2aQKdyfVpbGiAQ+KFiMTvrovjgUgwyvVuuk8vOEhg61klxbhW17gR+Y00uXnqgHD732AACiQp//Pp7OH+xkT32mbWVTNWTDoFSDKdUFDPl/87mHUzj/2+/8gJT/AQYmpraMGtWFV5+/nF4PW4MhCO8iLe0daHhcjMuN7agpnoqHl+/ijUGxFbsP3gS2z7ezyEC0jCUlRby76umlXO2QVtbFz7ddZjbQ9qGR9cth8fjZoq6ty+MbR/vw979J1ggWVFRjHg8wSEEr8fDjAGJKnftPcpg4Omn1nEI5OzZenywbTeUlIqvf+UpZhVGEit2DSj4vX87gXebHOgVKNXx+kMWqI6BiCkBGVO9VvIJAAAgAElEQVRCMp4hQWlIZoaNWAQKi/3P3b24OLhID72a0vNqQzI21viZnTvfoeCDc1HkeCU8PScAn1vE+2ej2FIXRxvpTAbDEgQCakIOvDgvgKVTPDjWlGQxLWkNSP/zncVZmFfiZlHr5ktRXB1Ml6z1y/jTp4tYv/CHH3Tiw6YEkjoVJRLx8pwgXlgURF1nCv/Pti6cCWv8bUzzSfjGQiv0Qc8hXc7zC0LojWn4u329OB/WOP2Tvl0KjFH9h89EiiaHxUgbRCxDXDHQl9Bxpj3JGVFrp/uwsz6O144P4HKESjcBiwtc+M7yLAZ4BHpOdaWQ65WQ55FQHpLxrZXZ/M7ETPzznj7svhxn3cWVAQ2CYeKluQE8tyiENw4P4PUzETQn9Gtg3Q4xjLxi2ABhZBvd9Iz7iUEgA9DCRotoZdCBx2v8WDfDi+6IjtePD2B3cxJ9w3jJdH1QErC21I3vPpDDrMNffNLNkwkpnUk4eMvUKlFAhVfEkmI3Hqv1oyTowK6GGH5xNjIYu72+e64xCIMAgcIQ716MoV8zuHASeSBEuxLrQCQHefBTfDIzFdWFVghlKEggCnNmoZtjndvORvFjSukaAhDo6WlqmZiEV5dkYclUL/bVx/D3+/tweuAzSpPO9Q1qDxYUuVmsRfHfspCDsydIw0AT3IH2JGd53BiVGJrFQADhk0tR/Px8FL2qwbnf/G6GyYVoYBqolGP49ZVZ+MbaKQj5nWPaZojU/qQDOHT4FLKygli7ahFnMBBwoEWfQggtLR340Wvv8aK7/pGViIQtLQDF9efMqsIrLz0JVdM5NZGoe/L4L1xsxJYPd3OYghiGadPKmHWpv9zEYOPCxcvw+7x4YOV8PP7oKs4yoLFBjMbO3Udw4NApzKypxOpVixgM0D2JMfjk04PYvuMghy2WLp6D/v4IsxaBgBcbn3iQNQ8EQC7VX2VGgfQQZ8/VM+AoLS3EpicfvCa8vNWUQOtxS28c/+4fjmDnQAhRgSr2ff4gGQOlH9J4/y8bCjgM9POjA+ypd0Y17KBFLGXw2O9NWQWGCGRODzmwvsrHgtyeuMUi7WtOwu8U8KVqPzbU+hFNmXjvbITDZO0JnbUCJGh8vNqPh6spndLg6060JTk0le+R8J3l2cwy0QL73qCSn545zSvhd9bmYn6Zm8f2+xdJiApO0dw4NwCnJLL6/91LUXSrJgPblfkO/N4j+Vzi+If7+kHw/LceysOAouNvPu3BpT4VLklE0CmgN2mFGZYVu/DtpdnID0q8kJN9LrSnOHW4NMuBM21Jrg3xQKUXWy9E8cPjA2hPDmb0+GR8dUGIGRDSOr17IcqpmuQ01GY58J8fzcNDNX4GG3+4tYudBkrVJLvw97gsi+3+d3v7sKM5cV3NERsgjLz42QBhZBvZAIG8ZCpYUuDC+hk+LKnwcDrdlnMRfDI4UY1U/Ig8igXZDvzfTxZyOtb/+W47DvSqw+64RhMJLd7P1viwuMLL8dg9DXFsb4jh4oB209Ks5E2R0O+5OQHk+iROc9xcF79lHQSaSIrcpAR3oixL5kV2KFohgECaAqIxDw5SvBeHCA7Tg4NDL7KA1aVW9gJ5kj882IedrUmEhxRpypNFPFjhweO1ARQGJS4ZS4KyK6QG71BwhYvnUPWyzw87AghUB+H5OXStVQfhnQsxdN6kxoMIA8VCHK/M9uA7D5WjqshiNkZ7kL6gqbkDew8cR31DM3JzsrjugKapmDKlFCuXzuWF/b0tOzlLIRgMwNANuNxOhAeiKCsrxEvPP8YL9cEjpxGJxOF2OzkVsrm1E7XVlXjysVXIy8tmc/f1DWDHzsP46JP9HNLY+OSDrGlI1zpIJJJcB2HHrsMcJqBzfD43amZMxbSppTh56iILJgkwLFsyh7Mrjp+8wKmTjzy4HOVlhTh1tg77D5xAUkkxs0CZGQR6Viybx3UV/D7PsIWiUpqB/Re68btvXsTRZBbUYTZuomJJy/Nd+I01OajIdaCuUyHMxhQ+KfkpXn6mQ8F7l2IcjqPsgKdq/VhS4WXNzbunI9hxNY6OpM7eeE2WgwWIq6t8LHLcej6KPY0JZHlEPEQixApL37DtYhTnO1OoynVger7LqixYSsyPib/b04vtTQkWsdKR4xDxeKUXzy8Iso6lqV/lsU+MB3n4n1yMY/PFKK7ELVqeioltrPLiK0uyWEP017t6uQbI1xaFML3AieZ+jdtGGT2qajLgJSBDQkHSBHmp/kFU49+R6LAjqnORI2Imy7OdmFfm5jnlRyfDnJacTkF+bKoXLy8McfbHG8fD2N+aZPZvilfGd5dlYcVUD2KKyaGbj5riUHUCTRKemRXAIzV+TjFNC4WH1kuzAcLIs4ENEEa2kQ0QBgHCwjwnFpd4QPVpzpEQsUNBe1LHLWoQXWc3pie9En5rVQ4XWfpfe3txrJeqpd1aJshZAl4ZG6Z5eaK7TPR5u4LmmH5LgSEVmyFhJFWjI0Hk8TYFhztuLhJMN5AmYGIe0mKnoQ0nISFlJeR5JfbqLtEuccSW3KTZNNFlu0QsL3TD5xTYRvVUK36oRoLztx2oznVw/fjWsI6rYQ09is70Ltnj1oVqwEV4KKMk5BW5CM7BNgXhmxbRNxE0U1iRp+NX1xRi/fzCMYcZVFVFW3s3/1AtAzpcLgfy8nJQVlLAaY5E4xOQ0HSdUwup9gEt5uTJU2gioaTQ1NyGaCSBVCrFBZcohEBphWWlRUzpExghgeGefcc55bF6xlQ89fgaBg9ppo6uo1oMTc3tHFIwdJ1DDCRkzM/LwcBAmAWIskNGYX4Og4ju7n7+O2keiEmgUEZzSwcXXdI0nUMjlNFQXlrI7R6ufDMN0+6Igr/9oA4/OBHDVcN/nUDxxkmCs3+cEiv4q/OcyPJapYZTGrioD1HrF3tTONSm8OJLuoPHqn3spR9qTmJ/i8UQUCiLvh0anxTaWz3Fw/sNnKNMoWaqomllwlD2xen2JI51KgzcKHa/cooXOT6ZPXXS+hAYqRsCbgkcF3skLCt2oyJbRsApMbvXr+hoGdD5+25LWBUN6SAAPC/PhZo8J++cuLM5yW2vzXGgMkvmehykWaBFJZ4yuRTyuV6Vv4mZuQ7WMJDwkL4TYhfimoGlRW6sqvRiao6TmZbNZyOsvekbXMkdIjA9IOOF2QE8UOljLcL2izGuh0KC6KpsBwr8ErOCZ7tULktd5pewZqoXG2YGEE7o+OnRfuxsUT5X48EGCCMvfjZAGNlGNkAY3HuB6q+HnCKnPPWnDM6ZHssGLxRmmJ9PNL6IMz0KewnDXc8ToyzwJEZHN4m6SKk8zOZL6VAIUaukl+hW9GtVCofr6rRvfePiTJMZeYM0mVJbaQEfts2km+AKfVTl0apgN/Se9BzSPNDER/9PzAudM0wl6GvNprZQmIcEnxQK6VV0dA1WYLzZu8mmjgpHAq/M8eFrq0tRVeRnEd9YDl03eAGnHzpoEaVwAYEDWrzp3yljgCYS0iDQQkWCNfodLf7073QPWuBpUSZrkBCQ6h7QQeGJzm4rO+Lk6UtwyDLWrl6MubOnM5AYetDCx8/TNGYrqB2kLaC20O+42qMAFkbSgk5/J6kQCSG5XbRxl6YzmDEN8nStd6F2jhQyVFQd+y/24I83N2BnH2377BoxAyYt7g06BIRcEo9l6m9iECgFOKpZYQZrLw2J9w+h8FBTVOPva+g453EjCSj0SFwrg/Yy6EoaCDisfQ7ou6B9Hqj+CN2v3Cvznh2UAkgiwKaIyjUXbtwQKV0DhMSVPofAIYaoanA7CNgOHZd0LjGJFA4jRoK8eFLxUD0GAtI05q8BOtpIzLD2XaDr6Fuk7yBdLVSnSpaCgMqAjNm5Dm4nsZIEKJpi2nXl2EmvMzfXiU0z/awFIhEviY8JIHdFVQY1dG9iM2bkOrG0wsNhk2jSwHtnItjeGEdL4vNlqm2AMPJMYAOEkW1kA4TBODtPALRp0eDGRWM1XVrkSJP2aBdFeh5NtDQBDCZGjPhYeg5NSuPZpW7Em9/jE9Lvlu6H4YGFCb+ZwsJQCt9ekYenFhUjN+gacTG8U69okUXWwkATD9VIqGu4yqGA/v4w10eYXVvF2QShoH/YdnKp5LskFKbF7EpHDH/1/iX8ok7FVdM/6t0c6Y3TY5EEe9a3YxUUu3HjL8oeoJg+Lay32uyMvgW+zyBQpW8y/fehgII3U6NNrQY3fBppV9P0ZmXURdS2W7FYDKRpHrhhz4XxjJl0HQcXgYvB75uEyzeGK9NZGnNynXi4ysfZSMRCUqokhego9EAHZW+QnodCaW39GrZfonoKCS7tTvPNjYcNEEbuNRsgjGwjGyCM00b2ZffeAjQJ5iCOtcUCvrWqGKtn5iHkddy1xXU4C1CVw96+Aa6jQN4+lXCmNEgSKY5UsOhuWZY85Y7+JH686wp+dLgPl1QfkrcQJ96tNt2Pz0nvdFkxuA/E3CIX6xYoo4kylFh4nDK4MBppec7Q3hC9Cot9b6WPsgHCyCPpCwsQNm3aNFKNm5Hf3j6DLTBSHQTbTF9sCzhMDUViEqtLRby0pAArq3OZSRhruCHTVkhv8EThAjoIFNxqM6hMP3uk+/H2warOWQtv7W/BW6cHcDriQkyk0MLoxZ4jPcf+/egtkGYcgrIVasn3Sgi5RC6WRCwPAQSqndAU09GvGNbeLsOsErcLEO4WgzV6C2X+zNFshDbap95NewlPP/30PQUImTTcaA18p86zAcKdsuzEuC9PrKaGPDGJBTkGHp+VhYdmFaAi3wuvmzI3rP017MOi/ylbIRJXcepKP355tA0fN6ZwOelCDK7rCiPZ9ro3FkiH2ShTyNI9WLuVW2FIK0QxHDBIt/p2AcJwotZ7YxnrqZNpbRqvHYVnnnnmngOEydIRNkAY7zD84lzHBatMHX4hhSqvhvn5EpZUBrFkWjZKczxwOSRWoFvO8f2GFqy0Uqr0F02quNASwb4LvTjRlsCxbhOdmguK4PjcvgtfnN63W3ozC9wOQCBveKIChPTW7Pdzr9sAIYO9bwOEDBpzgt+KtOQuaAgKGso8OqYGgGw37awpczlmSvXk/YruI0qBsi6SqoGIYm2k1BYTUB8BulQZcVOGLkh2WGGCj+vxNG+yAoRM6QbGY9OJco0NEDLYEzZAyKAxvyC3okJKDhhwg6rxGXBxKppV5e5+4w+oyzRDQMIAVAhQTBEKJFDGvq03+IIM6HE00wYI4zDaF+QSGyBksKNsgJBBY37BbmVlp1uggP7/fgQHHLflt/8sve/+tcQXbADfRnMJILgSPZjRuRul8aOQTWXUd5vIIQabQQBsgDDqoTzyiTZAGNlG9hm2BWwLTC4LEEBwxrtQ2X0AU2OHIZvJUb+gDRBGbap7cqINEDJodhsgZNCY9q1sC9gW+EJYQDZ0+ONtqOzaheLEaUimOup22wBh1Ka6JyfaACGDZr8dgOAyDfgNFW5Tg0407RCOmtKRaMuVlCBhQKSI950hsOmuLlNHwFAhmwaMO/OYDFrcvpVtgYllAcmk7ZkFJAUZMUGENmlFqp+ViZT1JIp6z6EqvBuBVDusOpejO2yAMDo73auzbICQQcuPByCQfCtXV1CW6MLUcCNy4+2s9jZE+VpiMlF4quRAnzsPVwJTcNWdh4goj1jDfrSvlgYG+VoC5fEOVIQb4E1FoKfbMNob2efZFrifLWCacOopxBxetHoK0eTMQZ/kgjoJQQIpTXRDh9NU4U32oCh2HgVKHWQjMaYRYAOEMZnrrp9sA4QMmnw8ACFPS2B51zGsbt2F6nAjgmoEEoTrSvhSbrkuiuiTfagPVGD71CdwPKsGPdLIG92M9Hq8kZOhYUa8Dcs69mNp+0EUJXvh1VPcBptEGMmC9u9tC1gWYJmqYSAlOdDm8OJ0oAhHg6WISM7JV/uB6l1AgtNMwqf1wq0PwGGQOHH07AGZywYIE/vrsQFCBvtnrADBbRqYHbmKZxrewqMdB1GkRuEwiaDkT+fa4pxWhadEEd2CC8dDVXir5hUczp55WyCBwYGpoTbShIeaPsaajn2oSXbAZ+gQB7fHtQFCBgeIfatJb4H0t5oQRZx2ePBJTjEavUFo4th2/5zohmKFP81RpgHR1EDpvuM5bIAwHqvdvWtsgJBBW48VIOTpSTzUthcvNbyDReEGBDh7fPiDMHon3DiQMwu/qPkKjmZVjwsk0HM8pobp8XY82Pwp1jdtx6xkJ/yDWesZNIt9K9sC950FSCfUAWCnPwd78ooRF61tuSfLkanqtzZAmNgjwgYIGeyfsQKEYi2GjQ2b8dyVD1CrdMHD8qaRD9pytl304mD2TPyi5ss4nF2LHtE58oWDZ9AzSAw5I96OtS07sb7pY8xOtNvgYNQWtE+0LTC8BYhJGDCBgw4v3i+ZiqjsmFQmswHCpOrOW76MDRAy2M9jBQiFWhxPXN2Kly+/h1mJNq7GNxqAQE0mkNAJJ04EK/H67G/jTGg6+iX3sJkHFDagSKnb1FGR6MTK5k/x2JVtmJXqgU8wuN7drY57umFHBvvoi3qr0Y6LL+r7TbZ2M0AQROxx+7Atv9wGCLfoYJtBmNgj3wYIGeyfcQGEpg/x8uX3MTvewgBhLAeBhB5TxvHQNOwtXYuroelQh8k8EEwdsp5CQI1gducxLOk+gdpkN4ODWy1AuklghFK3aCMeEk+a99P2AmPpjjtyLglUqXdkwYRMu0lOIEW8FW+nLQAtgd5w+1Pdb9Ul0wBhtzuAjwpLERVtBuFmH4gNEO7ItJGxm9oAIWOmBO42QKCm66aAGES0OIPol72sILj5QQu8CUFX4RGAQjWKPCRB9RduBQ4IgAzoJmK6ydu/EjjgBcp2ZzM4akagqg0TKd5BUoBLBHJkmf+8VwctfIYgQBdEGJIM1eGALsnQTJN35RNvMj4EQ4ekapDVFCTDhEQi2Iwl6d4rS4zQb4MMgg0QhreTDRAm5vhNt8oGCBnsn3sBEKygAaCZwqgLG/E+8CYgCrcOHBBzEDFMxAwdQVGESxAHmQM72JDBITOqW5mCAIP6Q9egGUCeQ7onTIIuCFBlB+LBEJTsXEh5BXCVlsCRW8Dtk70+iE7HkBRdop4MaJEwlI5WxFuaIfb3wd3dCU8sClmlRLnJOZ5sBmFUQ9tOcxydme7ZWTZAyKDp7xVAyOAr8K1ocksZQJg8PwgISQKkCURtZ/p9vyj3o10SuzUVebIMt3j3alTQeFBlGfFQNtQpU+F/YA2yH1gLV2ERBKcLomQt84IgWvn+QxgmgdLhDAOmpsFIJqC0tKB318eIHNoP9+UGeONROI3xpchN5H6zAcLoesdmEEZnp3t1lg0QMmj5yQQQEoaBsG7CLYgISkQdT05PL4Pdf8dvpZgmOlQd2ZIEv3R3AAIFoJKSA7HSMngefBi5j26Ad9oMSH4/BJlUEWM7CCho0TDi9XXoeusNqAf3IdDTBZdKgZTJc9gAYXR9OZEBgjEJgevoeuWzs4Snn376ns78mUqXGeuL34nzdcGBdlcN6nLXIBwshykMn/vMWQy3IVK8E++QZhCSBhA1DLgFAX6Rwgv3dJjcqVf9Qt03ZZroVnUGbD5JvONSEAIHCWIOyqcgsOl5Bgfu0jKIjtGn1N7KwKamQmlvQ8fbbyC+9X0EWprg0ka/yc9E7zgbIIy+h0i7MhGPTK9NmbwfAau7cQibNm2aVDN/JjthrB1gMQg1qL/TAEEQLRqXAr/DxXCvDSI6+SbdTBL5mxz0rwQQYoYBlyjCz3T2pBomY+vaoR/jLWw2thuO72wSjXarJgISRg8Q0m0fY7s5zCQ7EC0th++ZF5H3+FNwFxWPizW4JUigssQdbWh/48eIv/s2gt0ddz/cQPYZTP8dX6/c/KpMAYR7OZ9l0h4j3etuLXgjtSP9+zth90zd827aygYIox0xozjvjgAEjukOQYuyDDE7BwLFfXv7YKSotuLg4k2LwGC+meB0QqDqbS4XBIcTJlG4qkrKRAguD2DqMCIRmKnPU7t3DSBIMgTyHrhsK7V98Gck4JPui7uxcJM40+2G4HLCVBSYyaTVzntwjAkg0D4asgzB5bLsS23XtFG3mkoDx/IL4XxiI/I2PQ9PZdWI4IDL7w6xDe/lMYKnQ/oEpfkqrv71X0LY+RGC8fgIGQ4Cj2ELIVMO6Dj1C9SvJKh0OGCqOkz6jsxb3Cv9Dd7sXej5NxkPNkAY9VC7b060AcIE6OpMdcJ4XiXjAEGUIAb8AKnDB0u1Cn4/XGvXQfR4oOzeBb2rEzC4SgGgJGGEo7xhilxeATE3H2JODsRQFoxwBEZ4gBdk+p2ZiCO5bw+Mrg4WkQ2d5EYNEGhxpx+6fowTNU3MUkkJxOxcQJRg6hqgKDAG+mF0d1uA5mYHTdIU8qAfpxNwuABdtRZAXbfaMXTCpvMlyfo3nRaAMSzutMC53XDMqIFcMQXa5QaodRdhEtBKL1BpUDOeATPGa0YFEIhdIhAoyRDzC+CorgGSSah1l9i2pqFbtrjFwkZNotoGcZcb+uKlyPnqtxBauoLH23CHrhuIRmMYCEehqhpEUYDf50UoFIDDIQ8LFAikDhw+gOY//2Nk1V2Ay7gFkKH+IFFkTi4DHyMa4XcC9fu1Y1AkSSAzveDzwp4WT1p/CrIDcvkUHoN6dze0pqv8TfA1Q21DqZu+AIRQiMebIJF9JR5TNEaNnh4Y4TBwQ3jEBghjHNz3wemZWptGAt2ZNKXNIGTQmpkGCLQ4OecvgqN2JgSfHxBEiMEQ5EVLmB3QTh2H0d9vsQCUAtd8FakjB2HGYnAuWQ7XspUQAgFrcpYdPAHqA/1wzJ4Ho60FsR/+E/T2Nl5YedFjD5OhxoghBvJOxaJiSAUF0Du7YNB90pMkLd4OBy/idF9euG/wsgR/AJ6HH4NjyTJIufmAJMLs70fq+BEkP94GvZuAzw0eHb2/1wOxuAxidjaknDyIwSDMaITP1/v7YLS1wojFrOcJAsRQCPK0KpjxBLSGBpippNXj7GE7IMgETgwLkKTbmG4/LUa5eXCv3wDngiVQ9nwKZdenDGaYlRkENGYycVdYhREBAvWJPwgxPx9iIAC5ZhbcD6+H0dkJZecn0Hs6uY+Nvl6r3xVinz5/aIKIaH4hPC9/FflPvwBXfoEFBG9xkJirp2cAR46dxakzl6CkVBi6jsqpZVi5fB4qyovhdA5fKEjt6kTz3/9/0Da/jWAscnMWQRIhF5fA/fBjEPMLoZ4+gdSpE4z5mE8gZoH6VAAv2sbAAI8hAhX8HRATRMJK6l+vF67lq+CcOx9q3QWkjh62vqVEAkZPF4MPvtblhmPWHDgXLoGUnw/B7QK8AQjBEMz+HiS3vGddS+cPGeM2QMjgxDpJbmUDhAnQkZnqhPG8SsYBgscL1+JlcC5cDGlaFQSvn71Cwe2B3tlhedCmAaO3B2ZXB1LnzkDZu4sXTOe8hXCvewxiaRmHI+B2w2hthtbcBOfSB2AM9EHZvhVGLMLna42N0Ds6LG98NAAhEIT32RfhfuxJJLd9gMQvfmZNyLQo+3yQK6dBzMpiz0xvbbk+lEGLs8PBzIZYUABnZRXEaTOY7dCvXkF8y2YGHNcBBGJTQllwLlgI90OPQiwohJBfaLEPne0cPtF7e6B8vBXKkcMwYxFeDBwLlyDwm78D/WojIv/vn0GncwkfOF2QS0oglZXD6O+DWl8PMx6zgIPHC7msnH/EwhI45i2AWFAE/eI56M1XGayR7fWWJihHDkFrbba82EFmg8cgsRW0atG/kYKDQdJngMckD5QX3aFio8EQEe2Qd51XbI3GYQEC2Z3aXV0L99qHIFVOh1hSBoHYo452GO2tgJqCmUgidfo4Urs+hd7X8zlgw9oDhwPJmtnI+uZ3kPPgIyOyB4lEEjv3HsXe/cchiRJqplfg/MVG9A9EMHduNb60YQ3y83KYVbglyFAU9O/fjZY/+n3ktrbwrqafO6g/Z9TA9+Wvs11T+3Zz2EQqLmHABgqpENORSiF14hiUY0dgKknIJaVwzlvAfU19y8DQ44FYMRViUQnMni7o7a1sGwLOyq4dFlOUSnEYwlEzE47ZcyFl50EIBiFVTIFQWAT9SiMSb/6En3UjSLQBwnhm0Ml9TabWJptBuI1xkqlOGE8TMg0QaBIkT9lFi/3jGy0vKJTFE6B69BBPeAhmAckEUieO8sRGixZRsL5nX4S8fBXEknKAvB5acMhDIq/R5YJJ4QZaMEQR+qXzSG59n70xmlBHAxCIyfC8/DW4n3oGyfd+gcTrP7boXkmCXFwKz5eehmPufCgH9iL50VZrYeZFj7w3j7X40rsQUCDPLicPUkEhtytB3m5ry3W0LXl87lUPwfPcS9YCcOwQnA+s4fspH7zDdnGsWQf09SH20x9APXmCu9C5dAX8v/dfoV+uR+SPf589ZwYxWdlwr1wD94YnobW1MsDR6i/yQi4FCYgshmPZCvbCxdJymOF+BgdmJAKkFJgEKi6dR+rkCehdHczocMgkN4/ZCoPe1+lkQEeepd50FUYkzKBHdzghlJcDObmA7CJiiA8O9aRUmN2dENpaIHIo47NjeAbB8p7Jy3XOmQvn8gfgmLsARk83Ugf28rtpnR3sIdNiZoZJf0Jx9+tDLlQlMe71Q1i3HrlffRV+Yq+G2WiIvrfOzl68/tZW1Dc0YdXKhaiqLMPOXUdw9kIDQiE/Xv3a06iZMZVDDcPQEIg3NuDi7/wm8usvwnmTMAOBSnon//d+jRmj5Ltv85iRa2aCGCm2YSoFo6sT6omjSJ05xQyWo7IKrqXLGQwwg+ByMZgSC4shZGVBv3IZ2qXzrMkxujuhnTkFjUAtMWoEGEnH4/dDLiqBc8kyBthmZACJLZv5OfoA9ev1gMYGCOOZQSf3NZlam2yAcBvjJFOdMJ4mZBog8IQ4vRqeJ56CWFEJJOJMreXbDAQAACAASURBVLLHf/UKLwZEpZJXQxNkautmxHd8zNS+c/EyuNethzR9BuB0cwiCPEjBH4QRj0I7fhiCSCI2J5RD+6Hs3W0xAKYxOoAQCMLzwlfgfnITlA/fQ+JnrzHFz3Svzw/XA6vhfvwp9o8T7/4cyuGD7KFTMR0KS3DbqqhtLmYc2Nv1+aDXXUT8x99H6vQpBit8iBLk8nL4/91vQioqRuLt16E1NyPwW7/LYCH8538IU0lYoGTeIqjHDiH203+DSUV4Fi+D/7f/IzMT0T//IwYD9I7MINTUwrPpOcjlU5Ha/QniH/wSRl+fFcrxeCEVF8P16OO82KqH90PZ8RHb+1pIhhZb+tF1pvSJ+nate5RDOak9O5kRcSxYwmAhTgCEdABqCmpOLvyvvAr38gcgZWVZCzAJ/HQNel8f4ju2IfHWG5D7+67jF0YMMdBi5vXCOWsuPE8+DbFiCoz2Fuh1l6C3tfC7k76AaHOTwgytzTDig3H3wQFPJZSjWTlwvfhlFLz4ClwFRcOGFzRNx6W6K3jz7W3o7OzBkxvWQFFSOHr8HFraOuByufDis49h+dK58Ho9t97HwzShtLei4ff/M3wH98GtKp9L4yTWxrloKfy/9n9Au3IZ0b/9SxixKPcVoywKlRHI0lQWk6bHD2sHiDlwW8CUQmwypWuWVfC3k9r9KZLbt1p6HgqJXRN0DoapXC5I5VPhXLWGASeBDGXPLqinj0OnkFYfAW8Srw5hiDJUavlezmfjmQPta25tgUz1pQ0QbmOUZaoTxtOEjAMErx/u1WvgmDkbAgkVS8nrzuZJnzxRLjpz7Ai07i64lq6AEelH7M3XIbid8D31LMRp0y3KNR7nyY8EgWJePuD1wuzsYG/f6OtG4t23oJ49cy0MMBoGQaAQw6bn4F7/JMfmk+/+nCl+3u+B1vSCQnifewmOhUuR2rsLyS2boRHNTXFdooIDQYhuD8RQEI75i+Fat94STm59D8qBPTD6KX5seWW0oLmWLIP3G9/hc6J//Re8ePt+5VdZYBYhgBCLwLX6Qfi+/E1oLVcR/p9/wou9c/5iBH7t30PvaEPsH/4GWtMVS2lPpaZJ8LnmIXg2PgutpQXJt16HeuEse51EWRM4cz/+JcjTa6CePwOVPNJBvYcRjbKnyuEdAl4keptRDc+Lr8CxaCnMjnYrTp1SkHznZ1B2fMyUPi1gGjE8r34Pvg1fYrBEQI29X13ncEDk7deReOPfIPX3jwkgEKCkBdC94UtwPbSeKxeaXZ0MGmiBJO/YTKm8kKonjyG5dyeHqoaK/Gg/0f7sXPi+8SsoevErcIRCN4RBrv8ySJB46vQl/PL9HejtC2Pp0jloam5HOBzFwEAEoiDi8fWrsHbNEgT83luLFQkgdLbjyp/9ERyffAifkvw8QHC54Vy8FP5v/yq0q5cR/af/xcCXGDMzErZ0FbfK1BBFBtTuRzbAtWI1jyOBRLwlZVA++oABrtbSdL3gkQWKPjim1zDwk+cv4nFBrIwR7gdiMR5r2rmzPD6MSPQaSLAZhPHMoJP7mkytTTZAuI1xkqlOGE8TMg4QKH4dyoKUlc10vXPlWkiV04BEDHr9Jei9vdAaL0NraoQ5MMCLES1YRHN7129gD0mqqIQZizLlziEKl5v1AUJ2DlPS2qljiH7/H9gTSsf8RwUQfD54Hn0c7kceg3rhHJRPP7bEgRSy6O0GVA3uFQ/A9dgTQEpD/O03oZ469pkWQZIhZecwZet+YiPEnDwo27cgse0D6O0UjvhMyS4SUHrkUbjWPcax9Phbr8O9/gnIc+ZBPbQf8bd/xm13rVkH39e+xSCAWAWyhWPmHPhf/S7T6ol3fs4ghWxAdD/ZTK6aDu9TzzD9rOzYzs8ne4n+AFxrH2aGhNgBFqHFYlb7SVCZUqHVXWDNB8WiWbjo9cG1bAW8X3kV4sxZnJWR2rIZ8bfegHa18VrIRKfMi5mz4X/hy/CsfpDFloRY9J5uJD7djuhrP4LQUAfxhsVuRA1CIMDCVAr7kLZBO3uaPWnSUEjzF7GuQ923i8GBdumCBehUS5iaPgiS9Yay4f/W91Dy0lchB4LDfgqqquLk6Uv44MPd6Ozq5awFKnwzbWopzp1vQCyWwGOPrMSDBBACvhEBQuOf/SGkT7YhoCjXCxVZY+Fh8a3vlVc5ZJX44F1IxaVwTK3kcEKSBKSkI7nJQaBUrpgK96MbGPDpTVcgFBZbY+jgPiR+/hrU+kuDQl0ynwjR72MRI+ls5OpZMBJxGB1t1k8yCSmvENKMGosh+skPoZ47c421sAHCeGbQyX1NptYmGyDcxjjJVCeMpwmZBggc/3S7IVdUwrloCZyPPgGptBRmVzdPShRHN5QEUvt2IbH5HRbbUXhBKimFd9OzcKx5GIIvAJPEaKLMDIN+/gzgC8C5eDl7Ucr77yC2+W2YlKo1eIwKILjJq1/BKnny2ijGTyECsj/pDrSGep6Qva98A9KUaYj/9AespKf4PDEXUm4unMseYG9XLCwEVJ3DHkzFNzZcl+ZIFLJr5Sq4n3yatQDJnZ/A8+zLoF0CY//2faTOnWbGwvfsS5DnLoJ69CBiP/4+p3XKUypZj0FaAJrAKSQh5ORCPXsKyqEDVmjgiY1wPbIB6v49iP34B6zyJ1DmevgxOB98GEgkrBj+pYswursglZbx+RT/jv/8NSgffwgjGmPhJaUVer/5XTiWr4KppaC88RMkNr8NjbQPg8JD3nyJalFU18L/wsvwrFjNACexeweiP3sNQn0dRPXzGQYjAgR/AI7qWsjTpnNPSnn5kGfUAsEQhNxc6/1+8kMYpEUgoHOTvH8KMYRzcuF95ZsofOErcBCQHKaWQTrE8Na723G5sQVutwvV0yswb24Ntm3fh77+ATz/9HqsWD4PXs8IIYbOdlz9kz+Ac+fH8CiJ6xkEAggUPlmyHN6v/4ql67h4HgLpViJhJLe9zyCYNTac0mDtAXFN6EqhrZxcZpnohwWNWdnMPqgH9iLx9htDUlgtcalcUMjjk8A5ASnSKlBaMAFzCs9Qf1NfiyWlSP7sNSR3bONMCKuuBzAgiLjd3Rzv5Xw2njnQvsYOMUzoMXAvP6iMAwTyekrLuQa+PGc+10MQcnJgUtyztxvStBlMGysfbWFPlj14puRdcFbPhOdb32X1vdncxLqA1IkjUI8cgGPxcrif/wrM/l4kfvJDJD/dzgKttGBtVACBKPVpVfA8/hTkWXMGmQET+qWLSHz4AdSGOkikUyCxZM1MDjEo+/cyyyHm5cG9bCVcjzzOGRYaecukKHfI7OWnDh+EQZ4g6SE0jed7x7Tp8H3v1yDkF0G/fAlSaTmHV+K/fIvz/p3LV8H98Aamf0k0qRw9zCCDvHP3I+tZ82BpB1LMHCRIlHn0EC8ErpWreSEgmpieb/T2WhqF8goGZKQ70DvaYVK83jBYNc+hhDnzkHjrdQ6LUMhBovcizQKBHn+AwztG01Wmrwk0EWBJL8rXQMKMani5bRoSH22FcLkeIhe/+vwxogZBlDi7gp7tXLAInhdeYTaEwI00dRqDouTmX1g6Cgrf3CT9lESKsWAWHJueQ95LX4O7vMLKgrnFQSmObe3dePPtD3HmbD2CQT8zBg6njG0f7YOmaXjl5S9h9syq4VMdTRPJ5ibU/df/gNCJo1x2+cacB9IQEONEWhQaz3pjPY910oFQmIvGEWsIqL1UE6SrCzqnOhIvYqW1SqUllgC1ZiYkKv7kdEHZuR3JD7dA62gfIjYkcD44BopL4Jg5l8cxHQRCtNMnOD3Ss/E5SMVlSLz7phVG4j62AcKEXiTuUeMytTbZDMJtdGCmOmE8Tcg0QOAc7BnVTJMTk0CTn+OBNUyHE82NpMLiOlrg9eYma5EmylgUIJVPgfeZF+BYtfZa3DS16xMYfT1wLl0JcUolBKLJz59BcvsWqOfPseArPbmNWGqZPLpgCO4H18G94SmIhUXsXRMQSH76icVmOGT24Knyo9bSzPn4QoAEjGs4FgxNh/LJNqh15+Fa9SBT4XrjZaTOnh5MyUswm0DUOxWr8XxpE+S5C6w89442VucLTjekqipmROj5ys6PoRzcb2UMkB7C5eIUNS/R5VUzmBq2PMY3LcEi1VHKL2QwQAu4RuGCZJIL4lChKQJBxNSwN0phBFpkioohz1/IC2zinbcY0DDQWLYCnmde5LAQsRjkWcrVM6GfO434z16Dev7soJjNovQZJMgOGLTxkWlCjEYhDrMfwYgAgdEhpZn64Vq1Bt5XvgWjvxfq8SNcL4KAD72fQbn+7a0sXLwxZk8yu6TbA2P5KmR//dsILlwCkdJphzli8QR27DyEPftPcHhh0YJadPf043JjMyqnlGLjkw+isCBv2DRHAkjRs6dR/59+GwVXGm+a5kjxf2LS/L/+2wwCtP17mAUjmp/6i0JKJMQl953eLXX4EIcNrhXdYhGnD/KUqXAtXALH4mX8zSQ/+CULdRkAXldIy0rHpf72Pv9lyDNncxqkWFrB4EG7cJaFtmZPDzNPBMDStSVsBmE8M+jkviZTa5MNEG5jnGSqE8bThIwCBJroAwEWKFKclbxCotGJKreKDxmQvF4OMeiXG6B3dsKMDkCrq+faBlQvgAR60vQa/jttsMOiuZhVfU5vbGTQIVVM5ToCyR3bkTpzkifM0TAIvBaRjoByzBcvgVRWwTHuFNUFoKp0vNAJAFXRo4JJ7K0CUmExe/RyWQVSRw5YRWbiMTjnzOOYP3nnNMkKhsn1BShzgGPDJBwkPQbVP6CFdaCf6WHXQ49AyCtkVX5q706kLpyDGf1MLMaxZKqfMH8Be/zkbapHD3PNiP+fvff8riO77gV/FW8OyAABkARJMIduNslmZ8ktuZW6/Sxb9rI9Y3+YD/Nl5i95H2bNWs+znv3We37P8ywneSzJClZL6pY6ZzYzCRJgQg43x4qz9q57QZAEcFNdBLLOEkQ2WHXqnH1O1f6dvX977+UoCUlywt8qxE8GFjS3gR1QTz8L5eBhJlWyWZrmYpisjPRzn0E79znMZIKfQfMiMGfenoD2yUcQKET15VdZORMI0z77+AFLTXWPVRkAtcqv1AUQOMeDyq4GjmQY2OGALTK9E6+DrO7pJI+vfO4zJ37/oaZLMvI7dyPy5/8bun/325AjkXXdDGRFmJqex0efXMCdu9NO0krbQkc8iufOHMf+fbvY9bBeM3NZLPz0R0j+1X9CfHEe8mppjykPwv6DCP3xnzEHpPz2r2DMTEHZs5ctJKT8eQ1zOeYYEOg15si1U+GzUAju4BDUsy9wnhBq2kfvo/zxhwxCHw5VdMZLQDjKESpkleEMnj19vB9seo9mpzlipfzFp06YbyVs1AMIzXxBH+973NJNHkBoYZ+4tQjNDMFVgEAM6q4u+F94BdKu3U5CoHyOlQ8ncSmUIA8NQaY49c5uJ2lSNovyh+/CXFyA/+Wv8u9JaZOVQIh1QH32OVa0lK3QuH4NQjgE5egJNsPrEzf4xGWXCnUDBMdsKzHpj/IZUJY+Di+rZGR8VIYCx6BLlOyJUuUurshYFwxBGRmBvHsP4A9ybgfKhaBPjDuMcTrB0wmwau6m/w6FObMe/Z4+8JSjYLXYfk5WRLHsNE5yWxRLyy6RtdfZATdiJMq+fKmvnxM/UQIkki+ROs2lpeUEOeQfJ2VMkRmUF4F4DAQoKHaewAMRN4l8uer46txs9QIEh7sSYNmwBaSvHwIRIymLYiHvxPpP3HR4Eauw/qmKYzbWAYXqMPzRnyJYRx0G4iKkUhkGCpQgyedTsWOgB709nfz3dT9qloX87Qnc+7//I3zvv4sQ8w9WSYlN7wTlu9i3n5U5EXTZbUPgjrIlVlNqE0ggEE0WtZV7kaI8du6GeuQ4u3+M2+MwxsY4vJddLmul4SbOTGcX701KkkRjoD1u0f4cH4M1Nw+r5LifVoI+j4NQ58Z+Qi5zSzd5AKGFDePWIjQzBFcBAg2AkghFoo7yJ/85xXdTjDadBilckKwC5HqgtMakACE4PlBigEcinASJiwtRjDbl5o9GWUGaFI5FfVDJYF8l/ayhV2Li60u13Ix8qicyfq5A2QWpbkLlo1opLkTJhTimnU5iNF8Ky1uniE4VMKyWzrn5Ma64s1LLgS0MrIDgACFSPKwQKoqMiv/Qv/O8qCaE4/emezh/PymtlfNtYnB1AwQ++FLNCoeTULV8LBP3ePyUWnt1pUgzKisqSqMHEP3en6Ljq1+HSmTFGmV56d0joEAWBVpfiRQrzX29Rvdk0pj/2Y+R/Ju/QufcDOT16noQ2KskbuI5NFIDpJLBk9xStDQE1hyyZh31OSrpt2l/shWJlp73J1lmHs366FkQmtjgj/ktbukmDyC0sFHcWoRmhuA6QKh+6OnPWh+xSuU8J8bfSfDC7eHCRXX0Va+LoRkZefc0L4GGAELzj+E7maxISbXOPI/OP/gjRJ9+BnJofVdDw4+kSIRCAZnPPsLsf/trBC6eQ5BcSY0U1Gr4oRtzgwcQNkbO2+kpbukmDyC0sOpuLUIzQ2gLQGhmIC3eUwUIOcuCXxARlriaQIu9ere3KgHNtrGkW4hIAkJkhWm1wxr365RVMdYB6eWvoPP17yJy+Cgkis6oYUmoa1iUcjqfR+bil0j8yz/A/vB9hHNpSLWAcF2db/5FHkDY/DXYaiNwSzd5AKGFlXVrERofggBTUDDrP4DxrpeQiQ7DFtYOD6P++4wCvnnvTfzxrZ/hSGEKfqxSoKbxgbR8B33cipaNrGnDLwiIEKNf8ABCy4JtsYOybWNBNxGTCLS1HyBw4SZBQqGjE9JzLyL2tW8gcuw450YQiXNSLSLRwLwoGoTzZqSTyHz+KZJv/gz4/BOEUwlIjbgLGnjmZlzqBkDYvG/ZZkjMe+ZWlIBX7nmdVWkUqTkWhP242bn9AULJspExLaiCwAppnUJ8W3FfP5ZjKtnAvGagUxY3xIJAQqyChCLV+zh2AsEzzyF0/GkEdu6GFApxtAf75Cu0hwerU1aWoZK0iEIZjVwOxVs3kbt4HoV33oY0fgOhXOaxAgdVud0nKQ4hL8oN2+DcBAiNfstqvUBujq3Wsx6Hf3db/hslk6YAwlaeLBGk3Ni8FM/d6DwdgDCKGwQQItvXgkCbT7eBjGnCtMEAQSZOg/O/tpu2N2rzb4fnkOLlHxsoMGgz0aNIDNza7WKoyoeebwkiSoEg9K4eSIcOcySB0jcAX1c3p2O2iBNJZFlyP6zIvGhbNpNk9Uwa2tIiV5TUrlzknBC+xBL8ug5pLRLqdligNca40oLw675h5KXGAYJb3zL6jtH3zK1G31c3vrHV8TT6nXVrHhvZz3adY9MAYStOmDatWy8VvVCNvlTsYvDtx43OF5He5gCBSNqkkHJU/hgipAoyIKfJxqmmjXyFt+azqLYmgTRqhg1QyqKoImJ951V75kLhj6YkQfP7oVH0C/ETuns4YZZJSsinQpTkBxGkSWGlRXYpUIlmZHPwUZXNcgmSRYW9Hk/X1TJACETgAASl4UWhbxn9tNqqAMGtb3b1O9vquJ40gOCW/N2Sez39eABhDSk96QCBFVKFi1C2SEk54Y8yH1s36uxazxZ+zK+xbbbmyCKgwCEnKpssfgIKNmWzFCWYogSLCnRxWCW5oh4aHJXWNm2IlgnZMjgBlsgVPx9PYLDS6sIuhmAFIIgeQFjrTd2OirPRrw7NcTvO0wMImw0Q7r6JP779UxwuTCOwRUiKK0VC5xc6wdIPQQSPi9Dop6H168m9QIqXwJl7huLWx0U9OGreAQXMQ1jRLf8buaWqqSIec1CwUqJVC8L7gQh+5VkQ1t1s21FxNvr2eAChUYm14frt5mLoN/L4zu2f4Q9v/xyHSnMcxbDJh8M1V6V63tuq42vDdvK69CTQtAQYIEDAh/4Qftm/G7lKcqdGOvRcDI1Ia2tf6wGELbA+2w0gUJjja3ffxB/e/imOFaYR3MIAYQssrzcETwLbRgLkREnYwPvBCN7u24U8ZeJssHkAoUGBbeHLPYCwBRZnuwGEmFXGmdlP8b2Jf8Xz6ZvoELSVBPAHJUpmZv5pr+/W8S2Th5hsBe191hbYMt4QPAm0RQKUD/KeIOGdWA8uxLtRXqdkNr1m/KY99Lp5AKEtS7MpnXoAYVPE/pAO3WZRDKplYE/qBr5598d4Jf0lutUS7AAx1O1lvy1/NyivvWUhWLIQKRoIlE0IrZObHxAeAQNDElEISEiHZJRlgQGJ1zwJeBKoXwLVVyZnC7it+HA+0oVFXwDmWkmliKBhCrDKAmwqO1KNa6XQUi+KoX7Bb/ErPYCwBRZou1kQBNtEb/4eTmffxHH1AjpjBBAESKKAh/PkEfs7kNPRs1DGoTs5xNMaRJdAAuXdJ2Aw2efHneEgUjEVukrBjV7zJOBJoDEJOPEZZeIgiDISih8GJ5Janb3D+QQMQMvY0JZEGGkqje480QMIjUl+K1/tAYQtsDrbDSBItoEe7RaOBd7GvsFbiHSYEJmq/lBIDBdgAkTNgLpQxp7raZy6nEZHqtwySCBwkA3JuDkUxLVDMSztDsMMy07lPi9kYQvsam8I21ECnFyK8kbw4Neh9nKWSRtazkbmtonCLRFmTmRLggcQtuPKrz5mDyBsgbXcbgDBDw07hQs43vc+hocX4Q9V09uv9kFxQIJVMKFMF3DgUhKnLqcYJDTrbiC3Qi4gY3w4iPPHOpAYjQJxFQIF3Xv5DrbAjvaG8ERIgKpa6jYy0zpSlyyUpmS2IngA4fFZfQ8gbIG13G4AIYgSDvrfx9HBz9DXn4Pqq+QyXkeWlJXWLBrwTRew/2ISzzBI0CE2mHGtCg4mhoK4eKwDi/ujsDt8EJfBwRZYUG8IngSeEAnYpo1CUsfiJQ35MRW2LngA4TFaew8gbIHF3HYAQXAAwvHhz9Dbl4Oi1pdlgD0OBQPyTAG7r6bw3PkUcxIksz5SAmW9KwQljA+S5SCO5P4YEPdBVDzWwRbYxt4QnkAJEPAvpnQsXNRQuK7A8gDCY7ULPICwBZZzewKEj3B856fo7c1CoUT79TbiNhUNiLMF7LuSxv7xLHqIuLhO5EHVL1r0ibgzEMCN0Qi7FYSq5aDeZ3vXtU0CTFqj/1V+qg8iP/XDWYybHcRy0qtKh/wHGa/4pz6Q2uyzvftWlwABhFLKwPwFDYUx2QMIj9lG8QDCFljQbQkQfB/h+C6yIGSgNJiunYlMJQPyUhmxqQKCGR3COnkSSDHo9P1XReR6AigMBGBHFMet4LVNk4BTHQ8gJWFoJoySAUM3YZmkt20mu5EJWpCoTFarsaeCE0pHjbGADVEUIMkiZJ8EWZX47xSV54GFjdsSHkDYOFlvxpM8gLAZUn/omU8aQODpE0gw6PhhQqA/11EgjgWBAhQEQJUh+EgReCfGzdq6DAwsG4ZmoVwwGBzQf9tcsrwSE19dHl44N0YqVDqm/BrOBiLYQX+leg+0Hwgw+gIyZH8VLHh7xA3Jr9eHBxDaLeHN7d8DCJsrf0dXbrNESUHiILRgQXhA5JViSvUuA6sE77tfr7hcv84yCRiYKOc06JoFi/gjtIYPm/mra/RwJSS3R1RJ0MMujgqIlBQJvqAMNSBz+K1nUXBb6Pf78wBC+2S7FXr2AMIWWIWtARBGcaPzJaQjw7AFaV2puAoQtoD8vSHUlgDvURMMDMoFHQZbfQirVQDbVgBtDBac8t5kVVD9EnxhlV0QbH3ymusS2E4AgcIvq0DSDUE8CcDziQII/EHbgmQmx5fbqo/2/pYXKVlQA80QFMz59uMmAYSoBxAaEN0TcSntTb1sopjRYJQNWGwVoJP5Fp1+BSiwRUGW4A8rbFGQpGqejC067m04LCeKwSEp5q9LsDTHIupWc1NBEUDYis1tnbRV5b+RshfeeOONpnahm8LbyAm371kCTEHBrP8AxrteQsYDCO0T9TbsmbPllQwUUmUYuuVEDWyT0zjrKYqiEAUEwgr8YZWJjJ6Lyr2NuAwQzpeRuy7C0rYqanRvzm731A6A4JaecxOguS036m+teXoAwUVpm4LqAQQX5fm4dEUvn1Y0kGdwYLLZvpk01lTXh6JUqHiXQzDcuOZEWdg8bH9ERcADCa4K3wMIrYvTAwjNyXA9EOQBhOZkuupdHkBwUZiPSVdVt0I+UWJw8EidjTrmSaBAMGzImg1Jt2FKIgw/YMsEFDYQKVRBAoBA3Me8BEnawOfXIavteokHEFpfOQ8gNCdDDyA0J7eG7/IAQsMie+xvMHULuUSJ3QusyxtwK7DFwLQ5hFXOGPDnbUhlC7osQIuIMGMybL8EW9o4iwK7G0ybQyFDcT9zEtaqZPzYL66LE/QAQuvC9ABCczL0AEJzcmv4Lg8gNCyyx/oGCmUspsso5jSOCGiEc0DlvQXNhpw3ISzqMBdLEAsWZEqVRBU/QxKEDgVWp8zVN03FsSZshOuhChKUgIRQ3AdFlT0+Qos72QMILQqwDcR5N0nvW5mD4AGE1vdeXT14AKEuMT0RFzm8AxP5ZAmmadUNDsidIFLoY86ClNChZAzYGQPlnM4V/0g5U6ih6hOhhGRIURlmXIEelWGERNiKACrh3fZGCZ1sIBj1wR9RHNKi15qWgAcQmhbd8o2eBaE5GXoAoTm5NXyXBxAaFtljewOBgtxSCXrJcE7XNZS2406wIBYtBgViwgBSGoy8CduwIAkiJEGAQaWBK3HokuykRoZfgBBTgE4FRkyG4ZdgStVMie0RMY3XsmwOeQx1+jmZ0kbgkvbMZvN79QBC62vgAYTmZOgBhObk1vBdHkBoWGSP5Q1sPSgYyKVKIDfDeq4FUrR0FJfKNsS0DntRh5QxoBQt5h9QGm2tkkLbJ0tQFIkBQlm3YJiUfNGGJAvwBxTIERnoUKDHJJTDEgxVgC22z+1QjWwIRVWOQbBJtQAAIABJREFUbPCsCM1vZw8gNC+76p0eQGhOhh5AaE5uDd+1mQCh+nK4Fbfb8OS9G5YlQKAglyhyaKNTInF14RA4sHULSs6EL2VATBow0zoXa4IJKJIIWRZgmBZKZYvLNskyWRJEDpUk/qJmmAwYVElAMKCw2wFhiV0OpagELSyz26Ed3IRlK4IsIkxWBL/HRWj2NfAAQrOSu3+fBxCak6EHEJqTW8N3bTRAoBdCkXyQBBl+JcREuGwpCZPSsG1SozFJggRRkGDapLzMdQtIrUT/kqCwLjUtAxaXlVq7iYIMRVL4BK2bZU70IQoiZJFqZgswrDIs+upudLMBilzILBZhGOa61gORNHxSh3CvAClpQKQwRluAIjqgoGxYjC8kjnygH5vN+hQtSWutygIDBd2w+PeyKMKnCpD9IkxFRD4oQutTIfb6ISht4iVYNCYg0hXgTIuem6G5DecBhObktvIuDyA0J0MPIDQnt4bv2miAQOBgb8dx9IUG0RfZCcPS8dHkm5jN3YFlmfV9rBss8rSeUKiegCypGAjvQszXjbn8FBKFaRi2vq4s6cUOKGEMhHdDsCVM5sZR0nPL4394AwuCiLivG/u6TkCzNNxYOsfXB5Uo9nYe52qIE6lLyOvputPVOsBGYWBj2TqDm+pzBUGCIqpQRFKAIv9UzQKWbaBsFFn2bPC3bZRyBorpEivt9cIaiYwozWqwbuZhpDSYhg1VlhANEvgRUNJMFHWTXQkEBBRFYLCgGzYMw6muFFBEiJIIi7gJpsNPIFBWJquDT4C8O4zAvghECodsA0aouhkCEYUJi56boeHPBt/gAYTm5OYBhNbl5gGE1mVYVw/tAAiksPxyCIqkVory3h8KWQ56IztxvPcsAkoEuXIS09k7ODf7Wz5ihtUYn+ZtdnQ/2Dic3TJQ0LMoG3lXTtv0rN7QTjy94xX0hgZxee4TTCSvOKd5mKxIdUuDbdPJWIAq+qHKAaiSDzvCI9jf/TRM28CXM+8hoy2xEibrQEFLs8Je2cK+Try08zsIqjFcmvsA99I3MBjdi9NDryJZWMC7d36EnJZadd24vHHlqEuKVRYVhNU4uoIDiKgxLBVmMZu7zWMVICKkRLEzfgDD8f0IKzHIkgxVCkASZSzmp3Bh9j1MZSccy4dpI58ooszuhfXJiZT0SJ4tQxjPQUtpKOs2RAjw+0QEVJmjFfSKe6GoG5BFAX5FgiJRETBGdrxu1RLeRIwslHRkCzpKpgEhJCNwIIbIwTikNgEER7nZUGQJoU4fFJ/nZqjrY/Hw+1itxeClWm5GfHyPZ0FoTnQeQGhObg3f5TZAoJNqRO3A8f4XMBwb5VPsSoc26R9F9iPu70a6uIQ3b34fieIsdFvD/q6TODP0NahiAEUjx/7rahNBSkZFUc/h0vzHuDT3ITSz+MB8SYmSAnRO1HQq1SmQn834pOD5hw3dTqOXk07wx/pewIn+F+CXgsiUEyhbJX5WQc/hytzHmEhe5tM+KeWRjqMY7TqBrmA/or5O+OUgA5a8nuFTMI3pVuoaLs99yL+nZ/ikAAMmAhV94d3Y03EEuXIK9zI3cazvOQTVMK7Of467mWvQjBLKZhElo8DjpSZLBAY6EJFjMGwHIAWVCPZ1HUdvaIjHejd1HZfnP0FGS7BFgNw3/eFdGAjvhE8Kwq8E+b9pHOOJizg/+y4WC9OwyKVi2sjOF2BoBsUjrp8fQLeByQLMG3nYGZ0BoCyBQYJN0EQCfIrEOKOo2TAsC2S7IKCgEhdBImuCY2Uga0NZM1DSDGiaCTIwiFGZwUH8cAekwNoWBDYsVM0LK8tL88KuXOU1XgnK9GgC4Z4gVEqc1AZLRcMv4za7wbMgtL5gHkBoToYeQGhObg3f5T5AEPikOhAe4dOtLEoce76s6AURPeFBjHYeR0ZL4geX/xLp4gKfyg91n8Gx/rNIFxfx6eSvULTyjiKHgLASx4Hek+gO9GMieZUVXNko8L+SgiTFR9YAOlV3BvqRKs1jLn8XATmEmK8HBT2DZGkehmXwSZb6VGU/dsUO4UjfWYTUCJbyM0iXEwwESImH1Cg+nfw1Li98zBYB0nohNY6ewA5Wzjtj+1E0Crgy/zHmcvdQMguscHVTQ9ks8OlclnwYiR3G0f6zfKqnsXb4ujnuXzMKPF6yQCQKc9CsMgONiaXLuLb4KTTTASoD4T14euAVDER2cd+TmZsYWziHmL8TuzuPMJi4l7qB6ewE0uVFHgNZEWgePtnP8jjYe5oBwlT6Jq4sfIKFwhQM0+F9kJsgu5CHrteR+4DyGkwVoF/LopzQ2I3gVyXmEpDFRLAFJikSKJNEkTMW0mmdrB6WJYCq6pGFIc9WAw2absC0HFeDRdaGDhUdh+OIHlobINDc/GIIQSXM+0skVAIiQBIoNFDWCyiaeZhw1nrVRvUhdBuR3hB8IQ8gNPzh8FwMzYjskXs8gNCcGD2A0JzcGr7LbYBQPZmLguIoiAdGJCAgh3F6x9fY9H07eQ0fTv4MRT0LnxzEoe7TONx7CouFGbx35yes1Kv90Wn9WN/zrOTupsdwfvY9BgjksugL7+KTeFU574zvZ07DpdkP0R/ZhYO9p3AreQVfzryDkp5nRU8gpi+0Ewd7TrFb48biOdxJX+MTOvEKnu5/GX41jI/v/YLvJZcDNUlU0BscwvM7v4Xu0CBmsreRKi1gLnsXi4UptliQ31+3ykiVHGXtk0LoDPSxNYWU28kdLyOgBLGQn0FfeBip0hK+mPktRIjMC0iV51npE+DpDg7iRP+L7IpIlxagmWV0Bvsxk7mFG0vnGVyQtSVTTsKwNOZx0PmZABDxPXqCQzjaexbD8VHM5+9ibOFLzBcmkdez7Aqh603NRDZRhq4TQXH9LSToNoTpEozrWZSS9DzH9ULRC5TzQBBtyIIAy2anCFTFsRwQSMyVdKTzOlsMqpYDAgvOtYCsiAh0+RA/HF/TxUBXBuUIntr5Ap4bfRXxUBckBgiO6yJXzODCnY/x6Z3fYjE/w/JfrfEHxrAR6Q7C5xEVG/5u0A2eBaEpsT34RXTZdOVlUgS8Yk2t78vlHtoBENYaHp0qSeG9tu/PoMg+vDX+z7iXucGugGYBAvUZ8/fgSM+zGI7tY8XHPm7bxGJ+GlF/J3rDQ7i+8AUuzn8IzSgyqCCgcajnNGL+bownLrCyLRpZ+JUIuxv2dBxlJXxh7n12gVCfpAiJyPj0wMt8L+kYUuYhJc4m6oX8NLsciOc3m7uFz6ffQl5Ls7n/1I6vIebrYt7BSMdBBihzubvYERlBupzEeOI8uy4ILNB9pLzjgT5W7mStmM3eZhBBLpQjvc+ya4H6ujz3EVtLCFhUDes0TrKo7Ijs4WuHoqOwLIMJkGWzzO6Nqcw4JjM3kC4tolgsc4ijQREIteouEECYKsImF0POYOsAaXfiMVAUgyyJ8BEJkUIa2UNCrh1ApzDKgoZMQeMIBrqWfkcftGrUA+VLUDpURA/FEDu4ugWBgERIjuL07q/iK0dfR3e0fxkgkEsmXUji4xtv44Obv2AAtjZAAGzTRrjLj0BIqT1vF9+5x6UrDyC0vpKeBaE5GXoWhObk1vBdGwcQBDbZP93/Cp/o57P38Nbtf0GunOAxNwsQ6F7y7e/uOIyjvc8jVVzAvfQY9xf3d2FHdC9bIi7OfoDJzDhMW+eTOZndu4M7UDTyWMhPoWBk+YQ/HNvP5nxS9J9PvY2J5EWUzRKbqlXJz1YOUtqCKLIvXzPKONR7Cn3hIeT0HMaXzuPG4nkslWaQ1zLMI6Aoib0dx7hf3dLZX0+NAMJgdIRdCcnSEoOVu8mrzLEQRRn7u55msJItJ/HZ9K8wk73DIIVAxbHe59EZ6GVrCl1P7hMCWhxdIUcx0nEYx/ueR3doB3MWlgozSJYWQVwOAkxhJcLciguz72MuOY3MYt5Jr1yr0iFxEAggXM/ByumQyWIii2xJKOlk4rfZkqDI9CNxn2Q5yObLyJXI/O+4Gwg4OHWgHPIlS0QElLiK2OGOdTkIEmT0hgdxdt+reGbPS+gI93Af+VIGl+99gfeu/wJ3Eteh247VZy0LgmXYCHcGEIx4AKHhD4dnQWhGZI/c4wGE5sToAYTm5NbwXRsBEMis7lOC2BM/gueGXoNm63jvzr/hbvq6QyRcCRD6TjEj//07P2XFRo1eInIxHO17Dv3hnbiTur7sYuB/Zz6BD345zD5oMrXH/L040nsGw9F9GEtcwIXZd1EghV3xSdNJnIACnTDJOiALCnpCQxzN0EMWh/nPcWXhYyYtVnMTEB9gJH4YHf4+jjaIB3qxK36AfeG0YaczE/hs5m0ki7MVroOzHDS+WKAb397/FwjKUeT0NJ/4yS1BrgMaC5E76TRPLo3F4hQUMcBAoCPQy/yEqexNdi9QI9cB/RtxJ7oC/ZjO3GIexGJxmsdRtRx0hfqRLM7zuDLlFLtyiADZGxpmWfokHz9vbPYiUovZigVh/S3kuBgcCwIlSCJgQICAwhbp2QQQNOIy0JoqEhMGKUIhmSmhUDY47bIkOrUZHNODDbNqRZBFqHGVwUFsHQ4CjZDCOwmUndn7VTy9+3kosoqxqYv44MabuJ24Ds0iULd241BH01qRC8FjKTb68fAsCI1K7NHrPYDQnAzbAhCaG0r779rMTILtBAhOVIGEoBpnxUrKl+zNn0+9hbHElxWSoSNfOvEf7j6DEwPOifnczHsoW0RCdBQsEfz2dB5jq8B44jLOz77zwP0OkCA/uISIr5NP33u7jrEf+uLs+5jP32N//cONXBRk7ieTPXEcSHkSCfDi/AdsWagCmCpQIeIfWRJ2xQ7icN+z7K6Yyd7iqIJMKYFL8x8xeFgZMcF+cyWCU4OvssIPKRG2JJAFYSi2jxMlpctLmM7cxqW59zlSoxqRQfkMKG8Bjf3+PnGImX3hnTjUc4Y5E9QXhS7OF6Y4aiKqdiAe6OZIku7QAIMQCqUcT1xikHS45zTncfh06pe4MX8Rqfls3RwEcboEjOdgZXUmOFJ+A1LylO9AFEV2O1RdB4ZlI1MoI5Upc/plimKgfAmEDei/KScV8w9kIjeKUOI+x8VQAyBUQQJZEg4PPsOcjmvT53A3ebMmOKB7lzkIPQH4yMXgsi+4/V+NzX/CfYCgIT8mwtIckLWZ37O1pPKkrC8Bdream9Uc3Zb/lgYIbk/WzUVtdHO0CyCQ4g2pMXT6+7Cr4yBGO0/wqfni3Ae4vvgFWwdWBqMRQDjScxZnh19jcuNSYa6S0dDJ/EvkwIga5zj/S3Mf4cuHAEI1KqEzMIA9nUfYVZApLuLqwmes8Ik0+GAj8KIg4uuo5DN4CjF/F+6mxnB18VMmHBrm6smSKOKC3AwHu59BTsswV0EQJeY3JEpznDshr6WcOVL1QCXMAIH4C+RmOdjzDLsdyOzfHx5G2SjhxtIFPu1TmCK5RCjEshrmuNaaUh9dNN+OIxwNcSt1BbeTVxjUkJWB8iDQGAk0cfiprxMlvcDho+RCIYLlxbkP2d2TnMvB0Mw6XQxOmKOQNdlFQCdxAgJEj6RcymQdIPcCaX7iNSRzRbYg0LeLAAIFRBI/wbEcOGRGMiiQe0OOqYgfiSNeB0AguZDLRBV9TP7U7DK7kOpqBGJMG5EeL4qhLnmtchEBhFLKwMJ5DbkxCZYuMDjYigCBgOtWbW7KzE3Zu6XnqkDDrf5qgdCmSYpubRA3kVV1c7i5sI3Ms10AgUIID3adwqHe0/BLAaTKi7g0+xGmchOc5Ojh+RKPYFf8MPZ2HGU+wO3EFc44WLUg+GQKndyFoC/GJvObiQvQmRvgNMp90BPagcO9Z9kaQCGLBEQo1JHTGj8U7kYKJeyLs6WBFCwp0Nupq9wvRQuQq2KtxiTHyG481f8y50PQrRKHHzrJlCQOVby5eB6301f5qSOxQ9gZP4igEuLQQ+I/kGWFzP1EJjTMMhJFh2hIYZPEK7iVuMhgqFajfsiiQSZ3CpPUjRLPleTREejDga6nsSM6ws+lnA8kZwIfBA6uLn6GudwdlLUyMgsFGGXKg7B2HQYei25Dmi7CGsvDSNP4KJujwyWgswvlOGAeAoME53eZXBlL6RKTE5l9UCF8Ln8wLIeRQODB36mi40gHIofamyiJXBscPttNVR29dMu19tlq/14FCPMXNBTGZAYIdNjZrG/ZWnNoh4JqRl6ryrACqNySmVv98HfXJavaRst/UwGCm+CgioTcRJCNbtx2AQQygVOOAcqFkCwusKIm0/tKk/3KsZJcydROP6RoSdlxHFW1cfigyvH1pLzJIrDyZaDfE0+hP7ybFe18fpJP4nTtamlzSDn4lBD6QkTYi3Oo4lJpjq0AazHfl4dSScgUUZ0ICQphpNM8za2oF5hLQBaIrJbi0zuNiQAFKXIywlLhIvoLWRfoHaQ/KYaf9a9Z5hDNmexEJRVyfSvqnMsfjPkntwJlUewJDjKQISsN8RDIdZIozXPEB2dStCwUUmWU8xQJ8UBeq0ceThwEyqRoU6rldBlE9KN14FBFnhaFODoZE4lrQGAhW9SQSJc4cuF+hkyaOEca8p+ESxRVRKDTxyTF8MEYp1puS6PhWTZUv4RQ3O+Un/YoCA2LejWAwHvBRTN3w4Na5YaNVlCNjNntA6IHEFoIc2xk4WqhUTf6epwBgqPwqU6AzEqIlGcd+e1aEiudmkkpEsBYCxg8CEoczgJZD1hRrhEzv95eIHIjPZM0ffVlJ74A9cUWBTJ+iwpkIiLWoYVIRiSrBzkHzYuFLCVkZWAiJKj+AZ3wdT7FV9eDxk1VHPPJMiyy/a8X6kgkxbkSrPECkNEgmeD6DcQnoHoLBBIo1FGhHBjMMzCRzpWQzmnOMyuIiB5jUJhjxfpA1gbZJ8HX5UPsYBzhfdG2AQQOojBtBGMqAlGVCZZea1wCHkBoXGYP3+EBhNZl+HAPngXBRZm2y4Lg4hC9rjZAAsQVyC6W2M3AuRDWOlFTxsO0DnOqCGtBg1Q04LOcnAIlzWKgQMjAL1NqbBGaaSKVK3GYI2dLrFhLnJOO6GR2liSIfhFKTEFwMIToSBj+3gAEuU2Km0mUAiJd/gpBcQME/Bg+wgMIrS+qBxBal6EHENyX4XKPHkBoo3C3UddkBSimyijlNc7DuBZAoBpaNkUt5HQYSxrspTKUrAG5bHPJaKJuENeA7qfwR3I3ZItlpLNlTrFMKp+gARkS6OQuqCLEkAyly4fAQBDB/iB8cRVSu8z+FfcCFWgKdfigtOs522jtmx2qBxCaldz9+zyA0LoMPYDgvgw9gNBGmW7Lrm1AKxsoJBwy4XoZFQkkkOK3yxbMjA47oQFJDULGhEyJkHTLCXW0iFNhIZvXkM6XKKciFJG4CgJVbwICEpROH/x9fgT6AvB1+CEFnYqQdXhjmhIzGy5sIBT3wR9SINZKDNXUU56MmzyA0Po6ewChdRl6AMF9GXoAoY0y3a5dU7rkQrqMYk5jBV2LxcxuAuIRlCxOmmQvaUBKh5AzQGWhRQplNC3mHySzRQ5rFCkNs1+CHFeg9gQQHAjC3+WHQgWTCDS0kSzIwMYCFB+RE33MeXCJqL1dl7ylcXsAoSXx8c0eQGhdhh5AcF+GHkBoo0y3bddUM6FsIJcscwGnmiGP1YlyZUTAKhiwUzrMxTKQ1iEXLYiGjXxew2KuBF2wIUVV+Hv9CA4E4O8OQIkqkBQiNArL1ZvbJj8KbaQS3zEfcw8860FrkvYAQmvy8wBC6/JbrQePpOiiXD0OgovCfAy6ItdAKW+gkC5xAaZ1CYsr5svcBK7KZMPI6TDJmpDQIKQNlHIa0roBIabCP+BHsC8ANabyCd4ml0MbrQb3MYwNwQJXbgxEfFw5sp3WisdgK9ScggcQaoqo5gWeBaGmiBq+wAMIDYts7Rs8gOCiMB+TrqquhlKWCItUwbp+ToBjxie3g+mkYk5o0LI6dEmA2uOHr0OFHJQBSj2wEcigmvrXsqH4FQ5tJBfDRj37MdkSq07DAwitr64HEFqXoedicF+GnouhjTLd9l1TAiPdQjFVQqnoZJRsBCRUTacOP8GEWbYAynMQkCEoTG7YMBGxVcOyISsSuxbUIBXG2rjnb9hEN+FBHkBoXegeQGhdhh5AcF+GHkBoo0wfi64JJGgmkxbLpQpIIMXaqG6tZFV0Iic3gGewQvgrwUEg6oMakD3egYub0wMIrQvTAwity9ADCO7L0AMIbZTpY9M1WxJMFLIaNCIgEsmvAXfDpsmhwofgKpE+CYGwCsXvgQO318MDCK1L1AMIrcvQAwjuy9ADCG2U6WPVNUUymhZKOR1aQedkSGxFaMaa0G7BcI4Dpw4EARmyGBApkZIhrZfXod3Delz79wBC6yvrAYTWZegBBPdl6AGENsr0ceyaiId60USpoMEom06EwxYBCk7yIwcYUOpmidI8EzgIysshlI/jmmz2nDyA0PoKeAChdRl6AMF9GXoAoY0yfVy75rxIVJSpaEAj8qFuwuISzpVQxbX4CY3yFh4W4INFKiv/6gACBgcVEiWFLlKEghJQIFMK5/WKTj2ui7SB8/IAQuvC9gBC6zLcUgCBP0YCfRBb/eo503J7gzQqbi/MsVGJedcTF4EKL+llk4s7URFMLsRkmJxeebl8ecXUTxUbW2rUDyVj4krUDlGSqkZSLQdKdkR/SiqBA5nzG7QzVXNL83jMbl4NIFCpZzdLDrslMpGri7a6Ed0azf1+2vH9d0P+bspqo8ttb2oehHYBBDe2XjMbwwMIbkj+yeyDrfqU88C0QdUg2aJAoY0mHe4JKZAiF1mxt9xWRkOIVEJbgKQI7E4QZee/+aO29XRAy1Pfqh2sBAj56zIsvZIsy6UBN/M9W+vRG62k6hXBMpiu94YNvs5toLARwxdef/31pr45W3Gybr4EVYtEI4vgAYRGpOVdu6oEHGv/sr2fSilXfsNnfnfaile+igO4643JxOjOHB6vXqoAYeG8huyYBEtzd35ufhur3343dYAbs3Vzjm4fXt2YX7UPt+e53tiE73znOw0DBDfdAm4Kzu2+Gl0IDyC4vQJef54EngwJLFsQzmvIjYmwNLfAoCO/Rr9l6yqNLeheaMcuIVfKVmwbaSnxAMI6O6DRl8oDCFvxdfLG5Elg60vAAwhba4228iHYAwhbZK94AGGLLMRmDYPN/VWbv+CO/3+z5uI913UJOGd8IofcJ3w2+xAPIDQrufbc5wEER66eBcGzILTnDdvGvTJZkJMa2UwW4z+JLGgL/PsnxMK6jVdwY4YuCDZEiXJFEMGTIkCciJBmfPMeQNiYNav3KR5A8ABCzb3iWRBqiuixuoCAgaHb0EsUdggYhgTTVGGZEiybfpwz48r/f6wE4E2mAQlQcisCCBYkUYMk6fx3NSDA5xcgyo0BBQ8gNCD6DbjUAwgeQKi5zTyAUFNEj8UFZBUgYFAuWCgXJGiaH4bhg2UrsKHCpnrKcAhLy/kDWp2509HqbSVt2F2uWqujbv3+9ebdeu/u97DmeCtpqAUTgAERBgToUNQSVLUIf8iGL0i5JeoDCh5AcH/pWunRAwgeQKi5fzyAUFNE2/4CTntcslHICigX/dD0MEwEYEOpgIKqhm5dUwsV94QIAaIgQaokCeOERZVG+sgyTcpmBNO2YdEPMSFaf7zra0VDknguIiTBSZ6zci4rH+hgHgumZVHFaJgwKbvDlmu0RgQFaU4izccWOP8E/X3lGpGvybRNWLbFM3G4KlRbQ4OEAlQ1D3+ghFDUhuyrnVjIAwhbayt4AMEDCDV3pAcQaopoW19AiYjKeQv5jIxSOQLDisCC7yFg0OIUHQ4bFFFGQFIQ9gfRHYmjIxSBKqtQnCPmfeVj2yjpZVZIuXIBi5k0Erk0yqaBoqmxKnItHUITUyMFqggS/LKKkM+PrnAMHaEoAmoAsiity88gZVrSNaTyWSxmk8iVCigYZWiWuakAiIEbBKiSDL+kIBYIoysSQywY5nWQRQWyRFak+42+DWVDQ7pAc0khUyygaJRQNnWCQRCFEmQhg4A/g3AHoAbEdYtceQChic3Yxls8gOABhJrbywMINUW0bS+ogoNsisBBHCaiFauBe0d154QtIaL4sa9vCAd2jKArEkc0GGLlKksyn1QfUPhk0bAM/j0BhWyxgHQ+i3tLc7h07yYWCxmUqkBhg6Uv2SJCsg+7uwdwcHAEffFOVqJBXwCqrDhzobaGCOl9MkwT+VIR2WIeqXwG16Zv4fr0HWS0AoxNAD8EDnyigs5ghNdopHeI1ygSCCHg84GtPWxBWLFOlYJWhmWiqNEa0VyyuDl3F1cnbyFZykGHAdhlSMggGEgg0lUBCWswXD2AsMGbucbjPIDgAYSaO9IDCDVFtC0vIM4B8Q1yCQmFYgcMIQpAdjFToXMiDUoqdnb24eTuQxgd2In+jm74VR8rG8ccX2krFWolqpJ+xYZrIk5aBlK5LG4vTOPinTGcv3sDqXIedtVn0eZVoLH4RQU7ot04sXM/Dg6NYEdnL0L+ACTOy09qdJW5PDyuytzovSJrgmbomEstYnxmEh+PX8SdpTkULc0x129Es2wGPPv7d+Kp3Qewt38YPdFO+BS15hpVh7c8F9PAUjqJW/PT+GziMm7M30NeL8KyyeWQQjC4hGiPCEUleT06OQ8gbMSC1/8MDyB4AKHmbvEAQk0RbbsLmJCoWcgmRRRyMeh2vA2WAwER2YfDAyM4M3oMBwZHEAkEIbEJvjkLBRXuKesappML+GLiKt69+jmWSlnYba6ySKMloLO3ZxBn9h3DkeF96AhHoUhy03NZVq6wmZNQKJcwPnMX7187h0tTE8gapbaDBMECImoATw3vx9kDxzHSO4iQPwhJIrDT+BoRqCE+S1krM5D7aOwCzt25xkDOssuQsYRwLIVol8QhkY9gJwsopQzMe5kUt8Q3xQNHYiJyAAAgAElEQVQIHkCouRE9gFBTRNvuAtMgQqKNTDII3eypcA4aVwhrTZx6Cogqjg3uwcuHnsG+HbtY8awkuTUrNDpXG6aBhXQCH14/j7cuf4qURpaEZnusfZ9PkDHaM4SXDp3E0Z37EA1G2GrgZmN/vq5hYm4Kv774Ic7fu4GCqbeNa0GGF7IcnNx1EF85fAq7enewZadZ8LZSFjQX3TAwuTSH31z+FJ9MXEZGL0BECao8i46eEvzhR4GiZ0Fwc0e13pcHEDyAUHMXbQWAQBtVEsm/K8G2TBiUuUcAZNExVZuWDtMi7+2DZlm6vt4vLPPk6QvVQhMgQhLJpy7AtA2YlsmmZ1lQ+MNL47aoNGGNJgjEi3cM7GSGXrsRe56KC0mcZ97pe33TNFkP9JKF9KKMQqkbJiLL4Yu1xlXXv9vkqBCxt3sHfvf4czi6a5RJiW4onpXPJ5Awk1zEWxc/wQc3ziNrluoaXqMXSbaAwVg3vnr4NE7vO4p4KML++Ha1kqZhbPoW/vXjt3BzcQqm2B5XQ0BScWRgBK8ePYP9gyPwK6rra0Qg4c78NH746Vu4ODUOXTAg2RmEAjPo6BchKQ/K0QMI7dpVzfXrAQQPINTcOVsBICiSD7tjh9AZ7EemlMBc/i5s28RgdBQhNYr53D0sleYYJJCSNMwSh4/FfT0IKuE6QIKFvJ5GqrS0igJ3QthEMo2TyrYtWMQ4f0QRC/DJQfSHdyKixjCXu4dEaR5BOYyByAhoDtPZcaRLi+sqfXpWRO2EXw6iaOSQ19IcSrZaIzDS4e9FSI0hX04joyX5I09rRqCJZPHwOImYSNaD9FIImtVXcS3U3AZ1X0An05gSwDdOvIAXDj3N7P5aCpWJe4aJsqaDkjn7fCpkmfgQ6zc6cd+YuYt//fhXuLEwCYMe7mKj7sKyDy/ufxq/c+wM8yfIRdJMq56qNY1yBaAyx0f7ouvypQI+vH4BP/rsbST1vOtsBNrJg9FufO3oGZwZPc5kxFoAjsev69B0g6/1+1RID0U1rCYXWqPzt67j79//GRYKGdiiBr8whXhfGf7wg6GPHkBoZme17x4PIHgAoebu2myAQJu009eH53Z9C/3h3QwCCnoWuq0h7uvm8KuikUdJzyGv55AtJ3Bj6TwKRg7PD30TnYFelMwiz5MUKilMmhN5WYkAR3+SMp7MjOOje//OSpkaneBlSUVADiKoxBH1d0EWJFbY6fIS96+b5WWrA1kr4v4ejHY9hZi/i8cwk72FgfAu7Os6wc8cWzqHhcI0ykZhGYjQ/GRRhSQobOxQRRV7O4+jKzjAwOde5iY/hywSullisl7VSuBXwjjW+zy6An2YL0yhrOURD/ZAMzVMZ29hIT8J3Srdr2JH1gPNQiYhIZ/rgoGYu9YDCmWEhCMDu/GdZ17B6MAuKDUUPfEKcrkCJm5P4srVcY63P3PqGHYND0CW11fGJNNMIYd3r36Bn557Fxmj6KoyJUvIns4BfOvpF3F89wE2wTfTqnO8OXEPV6/fgigKOHv6GIZpjqsoWbp+MjGPf3rv57g4fQs6JyJypxHoIevB2T1H8btPPY/Brt51QQ/zVUwT6XQW18du4fadaQSDfpw9cxx9vV21wR9sJDIZ/OCDf8dHt66gDOIipBEOzyHeS0mU7lsRPIDgzhq71YsHEDyAUHMvbTZAoFP5kZ5nsafrKMp6AZ3BASgMCnKsxBcLs+gJ7QB9VL+cfRfJ0hzSxUWokg+vjf6v/OeVuU9AynRHdDc0s4SiUUBQjfB1mlHCkb5nMZO7jV+P/xMDAFL2ITWCnbEDGOk4goivE0Elwkq6qGdR0HOYyoxjInEJmXKCZUj/PhwdxUjnEQYi9G/zuUns7TyKnfGDSBRnkdey/Py76etIFGa5v6p1pD+yk4LJ+HQ2EB1BTO1GTk8hU1pi/3q+nMLl+U+wWJiBZRNIAMJqHK+M/D66Av0MWGSBctuKLJ9sOYVLcx/iTuoKdHLJcLlbJ3IhOa+iZAzAhr/m+jd6QVQO4FsnXsCLh5/hPAfrnUxpbyVTGXz48XlcunwTk1NzCAT8+O4br+Lppw7yKbtWI1fD9anb+J/v/AT3sotOjgSXGhETXxp9Gl8/cRb98e6aynC1x9IcE4k0Pvj4PC5fuYnJ6XkEA35877tfx/FjB+BTKRnVo43CIImw+K+fvIV0BeC6MS2yXvQEYnjt2HN4+cgzzA1Zr5mmhanpeXz86XkGNwuLKcRjEfzJH30T+/ftqgniqG/NMHDh1jX8j9/+G5b0LHMRAvItdA3JkJUV+S88kqIbS+xaHx5A8ABCzc20mQCBTZlyGKOdT6Ej0M2n//7IbjbxLxVmUTaLSBUX0R0agCTIuJceQ7I0j1RpEWE1hm+O/jlbGC7PfYxooAvD0b3QzDKDi5ASYyWd1zM43Pcs5nJ3GSCQdSKixjHadRL7u5+CbpVR1ovYER3BYn4Ws7nb6A0NMcAYWzyHKwufwrA0doEc738e/ZFdPE5yV8xmb7MSJzfI+NIFBJQwOgK9uJ28hpuJL5HVUjzuoegoBqN7EFBC8El+9IZ28j2p0hxmsncZJCwVZzGXu4MCm5wdXkLE34Vv7/8LdPn7kS4vYiZ7G3fTN9ATGsSxvrOYytzCb279C3JaahkgFHMWknN+aPYgbA5rdK/Rp743EMP3zv4untl7mEPlaimf6Zl5fPrFZSwsJHBt7BaDpO++8Ts4fepoXQCBXD5zyUVWpJ/cvgqtAp7cmFVcCeLbT72Erxw9zeGMzTTTNDE5NY8vzl3BwlIKl67cZN7IH/3Ba3jm6UNrzpH4Kzen7+L/+cU/YqGcrZdKU3OIiiDiQO9OfOupF3Fk5z4o8uoApdqRrhsYu3EbFy7fRCKVxq2JSQZ9f/5nr+PQgT11AQT6hswmF/F//dvfYqpAgFqDX7yLzh0mVP/9kEfPglBz+Tb0Ag8gVADC66+/3tSxo5bfbkNXs00P22yAEFHiODHwEp/mg2oMIYWy/enMGSgZRba2y7LCoIFS3S4V5lgpknvgm6N/wUp3PnsXsWAvOv29MG2dQYIqBZDTkshpGQxEhtnF8Ovxf4ZmFrEzdhCnBl9lc/61hc8YMBzvfwG3U9fw5ew76A8N40D3SbZE0Cl9KnsLUV8cJ/pexEjnUfYxE2+gbBQhizJbCsjSQWPpDQ7yMz+e/He2JJDLJKx28DPImuCTAtjXdRwdgT7mWsxm7rBFIldO4W52DBrNudJi/h78/qH/HXF/N8YTF/HZ1FtYKs1iIDyCb+//c2S1NH5x4++wUJhizgbxD4oZG6mlMDS7v1Jfwb2NQ4pvX+cO/MGZr+Hg8B4OA1yvkUWjVCojk8shncriH37wC2QyefyH73ylboBQdTO8c/Vz/OSLd10jK5LraSDciTdOvoIz+4/VBDtrzZPGVyyVkc3lkUpl8Xf/+DNkswW2IDzz1NoAge6jKIC//uUPcCs165plJCAqeHbkKL558kUMdvbWtIrQOMgFlMnm2cLzy7c+5DX6X/7k2zh8cG9dAIFkk8xl8Ne/+CdcmrsDU9DgE6fR0ZtHICQtZ1ckgFCshDnmx0RYmruhKY1+y9bbu0/Ct5/mX4s/5N7Xo7GeaC3dXM911/qNN95oCiBs1AAbE93mXm0KKmb9BzDe9RIy0WHYHEmwdgsKJRz0fYTjuz5Db18GykMHGuIH7O86iUO9p9ATHIJfDjBAyGpJ5h6QiZlO/wv5KZwe/Bo0u4yfXvuvzOwnC4Ioyrg0+wG7CYZie6EbZEHII+yLsRUir2VwvP85zOXv4a2JH/AJ9nDPaYx2ncBUZgLXF7/Azvgh7O86gZuJCwwQiER4vO85dId24Or8J7i6+DkTFA93n8ZQbB9zGoJK1IkkF8DjzWmUKrjI4yfFeHPpPG4snWOQsyt+ECMdhxFROyBJChMPg0oIBS2DdDnJbhAay8X599nCUW3xQC/+8Mj/waTIL2few8eTv0DJyKEvtAuvjf4ZNKuMd279kPkI5Jbg8MY0kEpGYdg96wIE+gBSCmRS8vRy6KYOw7IYhDlRGk5NgeVGQE0QcWJwL14/9RXs6Rte1b/+8E5wXnQglc7gr/7rD9gc/3vfbgAgwEaxXMIX41fx/Q/+HSk9/8hmc/gkIlTJ2Vy6aUC3KBWwwPOhWg+UEXBlo+iFPV078J2TL+PEyAHOkrhaY0KoacEwDM4BUOWHEIFPUWT+wC7PMZXGX/71P7Fb5Xu//3WcrAEQZlNL+Nvf/AiXZm7DpKQFDzUitBKHQRWpyqaNMpF0LasS2SLw77hs9wq3S0jy4asHnsE3T76EeHh9F1D1cVUS6cTEJH74k7ewlEg3DBAyhTz+/p2f4MOJS9CgQZEWEO9MIhQjGTlA4D5AKCN33X2AsLlfxu33dPoGbHWAsBE6WPAAgnub122AQCf9I71nMRI/yErYJ/mg2zp/9CiEsKDlcCd5FdO52/jKyHf5A/2T638DqQIQfHIA44lL6PB3oTs0yMqWFGdQDSNdXEJRy2Kk6yimsxN4e+L/YwV+tPc5JhzeTl1FqrSAg93PgPq5uvA5biUvI+rrxPH+FzEU3YPLC58wSOgODjCQ8StBdouE1SjSpQRbD4j5Xo2wIG2YLicwnryMhfw9jjYg/gJFIpD1wC+HmMfQHezHfG4K48lLDBRKRh5ZLcGhk9VG7oo/PPx/QpV9ePf2j3FtkdwdOpM5v3XgL5jz8Kvxf8BSYdopqKNbyKWATCoKA71rAgT6MER8QezrHcTu7h2sTG8vzmA+nUDYH+C0wnOZBBZzKVZIztfdhmyLeGp4lAHCSP8Q1yWotxFA+M//5Z+xlEzj975VP0Cg/ktaGecmruJv3/kJ0mRhWXHwJHAQUH3Y3TWA0b4hSJKMe0uzmEwusNKnmgOJfBqz6aUHQAIDhM4BJluuBxAo+uLe5Cxu3ZpEJpdnkEDEu76+bhw6sBuxSHiZh0HA4C//8z+yqb4egEBhnH/79o9wefb2I+GOBGyigRAO9O/EcFc/CloJN+cmkS7knBTWooTFXBrJYvb+GlF+CkHBq4dP49unXuH76z0J0zwnbk3iX39MACHVHED47U/wwcRF6IIOGQuIdSYR6ZAhSh5AqPc92cjrtjpAWP72tFkoHkBwUcBuAwQCBWS6P9D9DKL+Tmb5G8zoL3N0Qq6U5BMyme2JbEicgl+P/yNzD741+hcc5jifn0RveAg+Kcj+eCIhkiLPldMo6jkQQfBe5gbenvgXVtJHes8wQJjMTLBkDveewUJukk34aW0JQ9G9ONH/IgOBi3MfYCJxgXkJBGQGIrsZuGTLSQ6NJKCQLadR0DOct4HGQ5yCz2fexmz2DkczyJLCLobu4DATLgdj+xBSwriXvsH9p4oL0C3tkRDMiK8DXx35HocGfjj5Cyzmp5jTsDt2EC/v/X3mZ7x58/sc2UGNLAj5NJCuYUGggj0HBnbj+dETnJ+f5kEAI1vKQzN15IpFfHH7Gm7OT1aiKpyDM7H+TwztwxvPvII9/cN1hcFVt14rAKGoVSwI7/+cwwIfsASIEnZ1DeCVg0+jL9LphKsK4CJQVDSJUh1fuHcDFyfH+e/V5lgQBvCdk+sDBE3TcfHyDZy/eB2pVGYZIAwP9ePF506ir5ee6TD1GwUI5Lf/29/8Gy7N3nrAgsAprH1+HOrfjdN7D6MzFGMQSiGFRb3MFpLJxCy+uH0dM5mlBwBCUFTx1UOn8C2yINQgka6UY+sAIYfvv/NTfFSxIKiiAxBCcc+C4OLn19WuPIDgiNMDCC5uK7cBgioFcbTvORzsPsmmdzotc6ijkUPZKLHJnRj+pGRVOYibSxcxtvg5/LIf32CSoswhhxQ6SKfwq/Of8mm/MzSAxfw0uxhODX2VQcRb4z9gAuD+zpM43HeGlTIBEQpDJELijaUvEZBDONL7LIcuktXh3PQ7WCxOMX9gMLIXp3a8isHYXsxl73D0AVkELs19gDup6+xCIOKjIqr4YuZtTGeIlAcMRPbgaP9zzJGg8E26Lu7rYq4E8RuuzH+CqexNjrBYmTiJ3CdRtZMVHkUtWLBYRk/3v4SB6B7cSl7BZ1O/4nnzIZ9yINTBQaCT9VBHL3Z29SFXKnLs++6efgx29jEgGJu5g0uTE0gWsg+MR7YF7OsZxO+f+RoODY1wIaZ6W7MAgUyM2UIe7107hx99/ltkH2L800m6L9qJ0f6dDAioqNBQRw929wyw4r61MMNZC+czZJ25b8YnDsKOSBfeOPkyTo+uzUHgvAX5IvKFIkyDSy3xqVxVFUQjYSgKJclypNAoQJhOzOOviIOQnAFltKg26j+sBrCrewCxQAiZUoHdQZQqmXgFuWKBa1VcnbnFgGGlGZZCHJ/fcwzfOPkiBhqIzGgVIKRyGfyXN3+AC3MTMEEchFl0dOcRiNyv8Oi5GOp9WzbmOg8geADB9Z3mNkCQRBX94V1MDKTTeUewh5X6Qn6Gfe+K5MdUdoJP42TyJ3IiRQkQcHht358gQCf40hJU2Y+JxBXcS41hOLYP3aEhBgV0sj8z/HXmMFAUA+UoGIruw+nBrzOQIL4CKdqxpS/ZKrGv8xh2xQ8gUZzHhdn3+dmGVWb3x0j8CI71Pc/3UfSDKChc9vbzyV9zH+SaONRzCj7Zjy9mfsOWDwIfdM++zuNMsKTIBwIYlHCpZBSgygEGEffS13Fu5l12eazM+FjN3kgAJerrwpGeUxiK78dCbhqfT/2awUsVVDApMGchUSOKgRWcJDP/gNwLZDYPKCqXNyY1VdBLXGXxAQ5CJR0VRTH88XOv4eSew1AfJpQ8tNs4bbJuoFAoIZFM4f/9+58yke93Xz2Lp04cZAUbCKyf/pf87PPJRfzw07crp9MHuQR02lbITy8rzJugmH76e1Dxs6+eFCjNh36/slG+gLgaxOsnX8YrR04j4Fs7JHQtP6iTtAqgSIBisYREIoX//nc/Riqdw7e/8SJOHD2ASCTIoZ0Pm/pprLdnp/Cffv59zJUyj0QxUKpn5lQQx8Uk3gHYleKTVXZD5TVaI+0RIheVqT7Ut4tzOxwa3lsHkdSGpmkMgsZvTeHff/k+r9F3f+93cGB0N8LhEFQfZTldn1BIqbH/4w//OybzSxAEJ4qhY4cBn/9+eWwPILj+OW6pQw8geAChpQ202s1uAgQOc1RCONbzHHbFDoBIeRReSNEBlH+A/Puk/IjAN5W6idGek+zPvzL3EZLlBby270/R6e9DVk+xwiZgQRYB6lMVfdBNjSMEdkR2405mDG/e+D77+2VWth18+qdoBFIW5Fag6AICINPpCSYmLhamuD/qg7I6Hu07y64CCjWkjImj3Sc4fDGRn+XkSsSniPm62BLw8dSbbIEARAYcJwdeYSIlARQK0dQsDV9M/YYBwWjnCSiyiqsLn3H+BQqrXDaFCwp6gjtwoOckhmKjUASFrQ5fzr6HRGGGozaqzcmDYCI5R3kQBmELFIZYH1PcuariK14n10BUCeD1p17Gi4eeRjR43/++6l4xLdydnMW7733GsfZzCwlQWGA0GkZ3VxzHDo/ixeefgt+/tnKuhgP+zW9+hHvZhTVHRiNfyUS+X4xo7bqJROj7ysFn8LXjZ9ET7WiKsEXzuX13Bu998AWmaY7zCQYj8XgE3Z1xnDh2AGefPY6A/8EkTMQp+GTsIv7xwzeRNgp1vaf1rBFZRnqCUXzj+PN46fApdlWs18iFQvkbvjh/FdMzC0wipfF3dMTZffL8s8dxYP8IAn4COav3RCmXL9+7if/26x9iUc9CoDwI4gS6hyXI6oOJkpwoBo+kWNeCt/kiDyB4AMH1LeYmQKDBEVOb8gdQVADlC+gLDTE4uJsaY+Lgif4XOMcBuR3I/04RDcTmJ8X+9b1/jLCvk33zRE40OX+Akz2RFLMg2AjKUfSFnTDHt2/9C1sUWBVyKWLni0cAgPIm0DicEMssynqeAQqfUGU/h2HuiIxgsTDNAIFO+U8PvMyggvgI5AJQJJXzIhB5kFwM5IYgDgJZCXpDw2y5oHBJynVAQIByLjiRD0QmEznEkbM3rlB1lIGxJziIvV3HWFb3UjexWJzmeTxS92FFJsVcvgumHa8bINS7UVTIOD64h0lwe2tEMtDJm6wHc/OLHEZnGhUTvyhwAiECCb099334D4+BQ/A4LfH5Slri+hRpvXMhTsW+7h341tMv4fiu/VBr5HVYrV9njkXMzi8hm6WoG4uRiiA66Yp7uuPo7noQfFTzBnz/3Z/h/NRNGKtEMNQ7h4ev48qUsg8v7D3OmRQpfTTtm7UaEcHSmRwWFpPI50sOSdZ2wt8oo2JfTyei0dC6fJNUPosffPALfHDjEkpCGRLSiIZmEe0TuXLkMoBdDnP0AEKz6+vmfR5A8ACCm/uJ+3IbIFQHSAqSwgeJREgnaDL9k3mdlDaZ/p0Tos0n76KW4Y9ePNgP2ZaRN6rK8sEzJPVNJv6gHOH8B2R1sDiV8aONnuXghUfjb52QQB+Pg8ZG3AUCDpTfgHIflM2SY2mgLIeSn9U75TWg1MmOsqdiVDJzEyj6woTJ1g0CPbWKL1XnQM+nplmFByIdHp7J/VwIIWh2e2oxdKohDg88e+ApRIPrM+VJGZIL4xFGMhXjktYvDU0n2dvzU/iH936GsXbUYgBAFpGvHDyFrx47g+5ofF1lutbLtNYc6cRN4ZAPuxcoKuOzm5fxTx+9icWSe0mSquMjgDwU7cZrx5/Hs/uPcVTKeo1DOS2LQyZXtqoCqYYprtYHhSFfvjuO//nbf8N0MUlOJfjEScR7Sg7/YIXZwXMxuP45bqlDDyB4AKGlDbTaze0CCPQsPtFXbMVrG4bvj4pABav0GhURqx+pVqs5PiyP+/0+SDBzxtRU6o2W14seqxUtZBZkFMo9MAWq5lifm6Heh1MEwL7uQbxx6is4PLy36SRD6z2PuAeL6QR+ffFj/Pbq58gYJbenwY8XbUeZfvOpF7iaY7DJjIr1yo4U8d35afyP3/4Y44vTbanmyFYEScWJoVG8evws9vYPr5nnod5xr3Yd7fG51CJHL3w5PQ4DJgTkEFbvoWPHg2mW+Z3wLAitiNv1ez2A4AEE1zdVOwGC64N9QjskUz5FM2SSYWgW5UOoXfOgIVFxQSCFQx6/fvx57OkfchUkEO+EzNYfj13AL85/wKdsN2swPDBXG/CJEvb3DuPrx5/DkeF9XLSp3vwBjciNwAFFLvz4k7fx+Z1rKBF/pAb5r5H+Hzj9Q0BU9uPZvUc5lfSOrj4mLLoFFQkcEDHx5+few/tjF5EzC0xO9AkziPUWEQzfz6BYHZcHEJpdzfbc5wEEDyC4vrM8gOC6SN3vkKwIZQvZpIh8Lg4DHeRscfU57GKRfDg6tAdfPXIaI33DHAlQi+1eaxBE+lvIJPHp+CW8dZGKV6Vhru1Cr9VdXf9OSjMgqhjtHcJXjpzCoaG9CPuDTZEWVz1pk2tM1zGdWMDPv3gH5+/dRI7dT+1tRG0gF8qZPYfx4uGTGO4eYCDXCvjhyBRDZ3Dwywsf4dOJK0hpOVgwINsLiEbSiPQIkORHF80DCO1d70Z79wCCBxAa3TM1r/cAQk0RbYkL6GNMlR2p9HOx3AmTSz/Xn/mwnkmQYvWLCnZ19uPlgyexf3A3OsJRDsVbVkLVfNQPd0i+kBWhB0Q6LZRKmEsu4b1rn+PcnTEkKEtgm8FBdVg0FFWgaJUunB09jmO79qM72sHWhGXQs9ZcHhGWvUwtIWCQKeZwc+YuK9TbiVmUOVPoxjSK0InIfhwc2I3n9p9gd0MkGOIiTsvWhEf/smJw9+dCCZooJ8XdhRm8fekTXJu7izwDHQOSlUIgMI+OPgmKb/VF8wDCxqx5vU/xAIIHEOrdK3Vf5wGEukW16RcS6ayUs5FJyCjpBBKIj+CuJYE0HXES4r4Q9vYN4amRg9jZNYCg388kRGLDc1TJCts2YQMyt9MHiljzuqEjmc/i4p3r+GLiKpaKGZTtlamDNkiUxN4n07zi59TNx3cfwJ6+IUQCpFCdugsPz2XlyEgZU5wGuUiIvEd5CqaW5vHZ+CVMzE4iWcpBp4vcsvPXKRay9qiCxGt0cMduPDVyAP3xHgY/lKGRxkOkX/J2rBwarROn8DYtlPUyp6v+8tZVjE3fwUIhDc02AYEsB2n4lAXE+wA1sDbx1AMIdS7YBl3mAQQPILi+1TyA4LpI29ohRTWU8jbyKQklLQbDjsIGFSZy92hOeo+KOYVlPydc6gxHEQ9F4VdVVq5OWKnTKKIhWyxwlc5cMY9ENo1cuYi8UULJ0GHRhRusRB9Q9AyjKKpGRUDyoSMYRkckxiWh1RqRF6Zlo1AuIZXPYCmbQtHQkdfK0GBs6pxofrRGZCUJKT6EfX5en2ggzFP3K8ryOlVlQSCupGlI57NYzKZRMJykU1Rym7J6inBCGv2+JKJdFXBQKcy02qb2AEJbX/WGO/cAggcQGt40tW7wAEItCW29f2d3Q9HiSo+lYgC6FYcFCscka4L72pgUEZ20JSbgCY/w8DgbAuULIGVig/MAbJTJvdHVceYCDmFdbS4P98fzIAsJ0SopvNNdHNbo8Ne8njOF2LQ2AgR29wiP8EecQBybq0byj0i/IGBgQLBLUOUkAsEyQh2ArDp9rdc8gODa8rnSkQcQPIDgykZa2YkHEFwX6YZ0yCV9NRvlPFkUBGh6EIYVhmVThIPE6aXsh8BCS4f4RjR+Sw/aAPE1MpeHTREbMLymH1HXvAg80M4gWEcltEtQxCwUpYhgDPAFxVUJiZ4FoelV2bAbPYDgAQTXN5sHEFwX6YZ2SKdaQ7ehFW0mMeq6CNtWYVkqLMgOSKCTZeUkvKGD8x62xSRA5hOqA2FAFDSI0CD7bPjDIlQ/ZUl0MkbW2zwLQr2S2pjrPIDgAQSXd5oAU1Aw6z+A8a6XkIkOwxbWZ8YHhYucK7oAACAASURBVBIO+j7C8V2fobcvgxr1fVwer9fdWhIgoMAZAE2nTLRpEDfASWZTSf7oCc+TAKcrJx6jpAiQJAH0ulNmxVruBM+CsPU3jwcQWgQIW3+JN36EBgEEnwcQNl7ybXwiRbLZ9eSubOMYvK63rASc6M5HuSSNDvhBC4IEW6/f+tDos7bS9ZuVVbWWDJh/Uvmpde1G/7uTvvx+efZ2Pl9444036vK2rRxEMwi5nZPYKn07FoT9uNH5EjIRz4KwVdbFG4cnga0uAQIIJa7mqCE/JsF6QgACrYubIMHNvrYiQODDygamqm8aIHgg4dFPDgME3ygDhLQHELb6N9kbnyeBLSOBZYBwQUNhTH6iAIKbp+GNVJ6btXncnGMtPe4BBBdX2QEIZEF40QMILsp1s7p6AKg3bGfbrFF7z22XBMjRtFw0rfKQuhNI1hjUkwwQ3DwVu6k827WPWu3XzTl6AKHV1Wjgfg8gNCCsLXopgQKO0TdXkBOZh0ARDFWU8GT4h7foEm3asKjiKWdUJCIiUQ9EG6LsEBQ56WILxaU8gOAOAndTeW7aRqsFJl10MdTas54FwcVd4AEEF4W5wV1VgQHlQ9DLAjT+kWBwqCOnzlmuIeBkN/JAwgYv0SY/zoZtGRXiGg3FgijZUP30Y0BWAUUFJLn5KAbmIDyBLgbPgtDY1nYTBHkAoTHZt3S1BxBaEt+m3cz5DyhRUhEo5iVoZR9MKwALgbakXn5wog8Djf+fvTf/juPKzgS/zMjIfc9EYgcBkFi4rxJFStReqlJVSeVyu91te2y3Z+bMzJk585/MD93zwxy7Z2yftt1td7nKVeUq2VUllXaJpLiIOwmQIPYtkch9jSVzzr2RyQUiEplgJAhR8cowRSLixXv3vYj7ve9u5ITUskrHLZbxI0BTrfBUi5+sf/dfnUvtw6wRBXTiVWFGEWZTDhZRgtMhw+Yqcx4Es9AcgDQYBINBaHQPGwChUUlts+sMgLDNFmSj4VDBHbWCUrGMQlpAoWCHUvagXHGiYtI/1bKWYtnMxX9Iv5Ci4f9eUwVIVtT75ZRNgFKm5MTbK+Xyg3Op8SmmR8xFUdUq9a6FAioVFWple82FDAa0LpT+Wvtf1VzwoMmAsm3em4v2e6qySfMhoGCi2gumNGzWPFxeBTYXsQlakadGmgEQDIDQyD5haGqYGBoV1fa6zgAI22s96o6GagJUizXlMxYUC16tWJNJ/2JNAkywmC0I2F2IeEPwOdwQ2I5tgmAmJXJfi9DLT0WAqNojOcWVZBnRTByxfAoFWYZSViiZ4xNrBAxEswCvzYmIJwi/08N/p2qOXF9izVxo/PQ7apKqIJ5NIJpNIi+X+O9Pei4WkwC31Y42TwBBpxdWi6iBBcqC+NBcAEmW7vkfEFiI5zOIZhPISgVIKpWpVmCu5CAKSbi8RTi9VIehMZBgAAQDIDT6UhsAoVFJbbPrDICwzRakznAoQyJXckxZUSz5obSo3LNNsCDi9qM32IGBtm4ukRzxh2C13C8tvVbfl6vsQq2y40xsERNLc5iNL2F6dQl5pYitLvhMhZlEwYKQ04veQDv627ow2N6NjkAb7KL1oYqUD4q9Nhf6qOWKBczHl7W5rC5hMraAjFQA1T/c0kZzMQvw213oCUTQH6a59KAzGIHL5tCyIT5iQHxwY1/VCgpSCcuJGCaW5zATW8Lk6jyShRzkigxU8hBNq3B783AFTBCtG1elMgCCARAafQcMgNCopLbZdQZA2GYLss5wuMxzvoJsUkSxGIACLxdl0rORQqXSwbvaenGofwR7e3ci4PZpJ1Qqi9zgw8qVMhRFRV4qYmZlHhcnbuH6/ARW8ilITG+3vtFc7IKIgVAXDu4Yxv6+IbT5ArBarMx0bOToVBshVT1UVQVFWcJCPIov797EldnbWMzEUSorrZ8I87OAzWRBt78NB/p24cCOYXQFI7BbbTwXNvk00OgjrZZVlCQJy6k4rkyP48rMbcwml7n0MyoFWE1RuAMFuP1UtGnjao6Gk2IDgt/gEj2V5+OPpjU96DnHjd5dI4pBxzU0AIKOwmxRV3QKlItlZOIC8nk/ZPgBLu2sXyOF6rE6cKBnF54fPYyB9h64+WTamPJ51EjI3KAoChLZNM7evoKzd65hNhWDXGmxYq0ATosVI+078MLIIYx0D8DndDPI2Wxj9z5VRbaQw/m7N/D52GVMri6gtAVzsZkt6A924vnhg9jfP4ygx6eBnIYh21dnTUCB2JGrM7dxeuwKxqIzyCsFmCp52CxR+MISHJ760Q0Gg2AwCI2+TwZAaFRS2+y6VgEEtlaTPZSc6th7mhK2VJ3buE6APi9XK8RZ+/BulzGSaSGfAtIJF6RyGyomKumsXyNw4DCLONw3jNcOPIf+SDdsVQpej6eQ2SGRTeHsnav48PoFLGZXW2puoNP2aPsOvLbvWYz2DMJldzTMGGw0X/rQZYt5ZhLeu3IaU8loS80NVpMF/YEOvLTnKA4NjMDn9DwWaHtwfmx2KBVxY/Yu3rt6BmMrsyiVSxAqSbicUfgi9U0NBkDQ5xump/LcaP8+qd/rOUeDQdjCVWwFQCDPcIfFDbvFAUWVUVDyqKAMu8UFi9kKSSUHqYIGEqiIB5ccBASzhenSau63daVA95XJs5xKFz4G0KBxWszk4CVAKctQywrMZgtEs6aA5bLE//aoZ9A4zSZBq6BI6q4hL13yPCd6m/IUlKE2cPqkbqVCGamYBYVSBCrcuuczsELAcKQX3z70PPb0DMJus697NuXcC+TRv2a+G1WSI5AQSyfwwbVzeP/GF8iopZbscgvM2BFox+t7j+Pwzt3wOFx1wUGZEkyV78+HGBOzQG6N6zeae6aQx2c3L+KdLz9FQsq2xHGRHA873UG8OHoEJ4YPIuDxrmtOWG9daBb11qYGEs5PXMcvLnyCxdwqKpBgNS3BG8rC7RPWLQFtAAQDIDT6Ejf2fWysNwMgNCYnXa5qBUCwCg7sCuxD2NWNnJRGorjCyjDi6mHgQH/PlOKslEtKARkpzmFk3Z5B+OxBSvdW/UDf/0zTf9VO9GQXThSWsZiZ5D5qjU7+pLTN5KFObEX1HgrtKpfJRe6+Yxkpaafo4TERcInlF5AqrsJnD6HN2c3XRnPzyEkpHjs9hxQjNXqG1xbka2VVxmp+HpJa2pAVIXDU5uyBy+pBVkohWVrhDIg0MxojgZEHx0jPIt+DXKqC5KobMtpbYlpoc/rw7QMncHz4APwuUkKPVo+khMh+nUqlkcsXq2PXsvQ57HYEA17YbOuzG+RFPxWdx09Ov4sb0WnIOvsj0Kh9VhdeGjmMl/YeQ8QXqnvalmUFqXQWq6sJ5PNFmAWB5xAOB2C3aU6M6zX64K2k4vjRZ7/GhdlbKOk8F3quS7Dh2YE9eOPgCfSEOtY1kdBYaC7pTBa5bIFDG6u+iey86HQ6EPB7YbVStMtXG92fzGXwz+c+wOe3ryCjFiBUMnDY5xHqIl+ER5uZDIBgAIRGlZABEBqV1Da7Tm+AQCfkkLMbz3S/hoi7l5VeXs4wEAg52yGYRRTkPApyBplSAqv5JUynbrECfr7v+wi5OpHIL/Mp2S46WXESWyCaRZTUEkj1B5ztmEmO4fTMv6CgZDX2wSTALroRsEcQdETgEF3870WlgGQxhtXCMgpymsdDQMIhutHrHcJAcC+zGvPpu1jJzaHHu4v/rVxWGDRk5TSShRX+fU5OcZ9WwY4dvlH0+0eQlTK4Hj2NtBTfkEVwWDw40vUyQs4OrOYXUVIpYQ2xEGUGJ3PpOyjI2fsggXwPSmWk4gKyuTDK8OnPHpgsONSzC987cgr97T3s9b9eU9UyFpaiOHvuKlZiSYgWzdmPTt3BoA/Hj+5DJBJcVylrUQF5nB67jH869wFSSl7Xt0E0mTHc1os3D72AvX272EyyXmNGI57Cteu3MTU1j2w2D7VcRjDox/69uzA6MsCgp15OAEmWcWnyJv7uk3ewWtKXRSAPgx5fmwbchg7AYbPXnctqPIlrN+5gbj4KSSIwSw6JZWbowmE/Th4/hPbI+oCJQMXY/F387UfvYC4TQ8VUgs00g2CXAruDcjI/AljUqjkamRQfax/rqTwfayAtvFnPORoMQgsXam3XegMEh8WFPZHnMBQ6yMo9YG+DYLKgqGgf0Hh+GUFHB39v7savYTk3g4X0JMyCBd/Z9T/AIthwbelz2AQ7Ip5eyGqJwYVD9CBdjHGfBzpOYjEzjd/e/RGf8Cle329vQ69vGJ2efgQd7XBbfQwOcnKa71/MTGEqeQvxwiIDhC7vTuyPnGBlTad/AjH00+bqYYARLywz6CDwQOO8Gj3Dz7eLLrQ5u7AzeADd3kEkCzF8Mf8bBiFaYRwtpEytkMmCTnL3Txkeqx8vD/5bhBzt/CwyqaRLcTgtbjaz3Iiew53EFchqkZeJT+z5MuLLBI66UMH6SmKzW8YjOPDWkVM4tfsIvE533VMznVJv3JrAT37+W2QyORw5OAq328UMgtvlwMF9wwiF/HVP7eToN7E0i7/58BeYSi2jTA4QOjWXYMUro0fx+sETCHsDdb37CSCsxlO4MzGDRDLNURczs0uYmVvEjt4u/O4PXkV7e3hdNkVbnwqWk6v4y/f+CWMrM1B0nIvdbMGxvlF87+hL6Al3cO6JemAnkchgfGKKgRvJmNZqfn4ZS8uraGsL4HfeehUDO7rWZyFQQTKbwd99/EtcnB6DBAkWROENJuEJECtnAIQHJUBrr5fS06sfnV6jlnSj5xwNgNCSJXp0p3oCBFo4l9WPIx0vo9s3WGUNOpjuLyg55JUc4vlFtLt6YTIJWMjcxUL6LqaTt1jxvjn0p7Ba7JiMX4fXFkC7u5f9AEpygX9PCjqnZLEzuI/v/e3EPzIT4bOHMRI+gl7fECSlxACgw7MD0dwcg4+Im2h9Lybi1zC2coGVc5d3AAc7TvF1dIIvKnlISpH9A2gMZBoh1oJAxvXoF5ipshxhRxcGAnuwM7QPfnuETR23Vy+zYiV2hP4kv4ulzBSDH+qzBhJ8thC+N/JnDGASxSimk2OYTt5Eh7sfRzpfxlJ2Bh9M/phBAxtUykAhW0Zi2Q4JZPbQOXIBQLvTj99/7ts4snM3hzPWa6R06MT9k5+/xzT2H//776Orsw2iaGHFQxT2RpECZB6KJlfxC6Kz717TLQqAgFnA5sbbh1/EqT1H6564a3MkRoRO24qqsInh/MXr+OTzi3A6HPjTP3oLvT0dGzoEZgo5/OvFT/DutbPIlSVd3lyai9viwKujR/Hm0VPwEHDboGcCPJKsoKyW2acitprEx59ewOT0Avbt2YlTzx9BeAPwVpRK+PjGBfzs/IdIylkIlSycjnkEOwU8ilgyTAz6gFs9lacuG7AFneg5RwMgtGCB1utSV4AAE2yiC0OBg+jx7ULA0caKnqj0ZHGVEbdotrDCJDND0BnBSm4RH0//lB0D3xz6E9gsDkwnbsFrD7B/gFz1UyCTQaqwyozAQHDPPYBAAKLftxuHu16EpEoYW7nI9+5vP4mpxE18ufgx2t092N12jNmIK8unMZe6zSaI3W3PYqTtCOwWJwOCaHYOyeIKOtx9DCDoBH8rdhHXo2eQLER53G5rgAHHcOgw+0zQl5v8CSSlgHQpCVGwos3dzUzJ1aXPMZe+DaWqOIjl+J3d/yv8jjYGFefm3kOyGEWnZwDfHf4T5Epp/PrOf8NKfpYZBfLBzKfJ/8AFudKBSgN5DwgcNRp9QTT2ULgHP3z2VezuGYSljnmB9g8BhOs37+DHP30PmVwOL5w4zEq0p6udlQ/5H2z08moOfjl8evMifn7xI2QUjS15VGtmLuS10u0N460jL+KZXfvqmhdqz2KTR76A5Wgcc3NLuHr9NmbnljE6OoDvfecU2kKBDedTkiU2M/ztJ+8gLuV0mQvNO2T34I19x/HawefgsDbOHPGccgVc+PIGzp6/Bo/HhZdPHcXgQA9s1vrRL2SSuL0whf/vt/+ExXwCpkoRduEu2vosEMRH1HkwTAy6fKn1VJ66DKgFneg5x42+MUYeBB0XkADCom0Yd4IvIOXpRcVUP1bcaSpi1HYGB3acR6Q9DXHNodMmODAUOoSB4D6EnZ3skEen6HQpwYqLaPdodoYdAJ/peY2d/N4Z/yu2xb859McwmSy4tPgRiI7v8w/zCb4g5+CxBRDPLyAnZXC4+yVEc7N4/+6PYYbAin5XaB/mUhOseAlA9Af24M7qFVxZ+hReawAHOp5Hm6sbN1bOYTx2iR0MCTQMBvYwqCGWYjkzzb4EYVcXgk6N+SDfA2IdFrNTzFaQmcQl+nCo80XsDj8Dq2DFZPImphI3eE7kn7C//QR6fbswkxzHpzO/YDMINWIcfm/v/8Hmj4sLH+KLhfcYWLS7+/Dm8B8z4/Lh5D/xs8ipksIbcykTUglKqdyGStXx8lHLTxS0VRDZh4DkLKsKZFVlipx+lHK5GvVx/24RZhzqGcL3j73EeQ8sVP+3TiPqenJqHr/57WnMzi/BKoqw262ItIWwd88uHNw3BPsGdnvqnkLrLk7exN9/9ivEJc2H5MFGESJWwQKRMzcSI0Nz0XIn0DzphEzzeRAIkW/KznAXvn/kRU4ktBEbQn3RfOYXorh0ZQy3xqewuBhlBuSVl5/F888dgs9b3+RS6+P20gz+/Nc/wkop/ZWYGvqY0ZrQeEjx0/6nudAHk+dSrZfw4FwI7FD0wncOnMTzu4/AvoFif1B25EQ6NjbFTEihWMKJ4wexf+8QPG7nhmCHzsOUafE//vJvMZclk5kEO26jrV+ExQAID+1R2oN6NT2Vp15j2u791AMJmwYI233ST2J8CkQs2QkgnELaqwNAsDhxoP157I4cY78Aq9kGpaKgqOSYxk8Xk5hO3GQF/0L/W3xS/pexv+bwwu8O/Qk7Gs6mxuCxBtkZkRQoOTCSU2GmmGBTBQGH+cwEPrj7Y9gEJ/ZFTiDgCLOpgoDIaNsxBhzXV85iNjkOvz2Mgx0vsDnhRvQLjMe+ZGfIoeBB7stp9aEgZVFS82xuoOdRaKZaljnSgRT8TGqcfRgktYguzyA7YdKf5Fh4fv59VurkO0BmhgH/Xrw88AP2bfjZrf+X2YcaQPg3e/93WEwiPpn+OcbjlxgIkN/Ed4b+mE0f7078A5thSC73AYIPSiW8LkAghRp2+zHS0Yc2b5AV52o2ifnECmwWEW67E/OJKJZS8YdAgmgSNDv3kVPYEemCsAFA4NN/No+Z2UWsJpLI50r839dvTrCp4fd+53UM9PdAEOonVyIq+/LUODv3xaXMQ0qVwAzVfRhq70NXIMLgJpXPYC6hyTDo8mA5lcBMfIkLQtUahTdSqOb3jryIvb27HkoLvd57RR/5eDzFc4iuxDE1s4A7k3Po7WrHd771PAYHuiGuRcBrOqM+7kbn8f/8699juZh6aC70EXNa7dgV6eE0z1RDIScVOWUzMQ9t3gASuTTurixwXYRaq7Ehbx48iedGDnFa6Eaa5kS6gg8/PseOl/v3D+PEswcQDgU2XJNa/6vpJP6vn/81ZrMxlCHDjnFEGgAIuTEBZXkjQ0gjs/h6XKMnQNBzxhudrvV81pPqa6M5bgogPKnJNPrcJ4MiTWATg30EEyGdAILgxP6Ok+wnQA6LRLlTsR5SeBTCl5OyiOcWoVQk9Pv3IF6I4sPJn8AiiFUTg5MBAvkpkMPiam4BVouDGYRUIcZRCztD+7GQmWSAIJpt2NP2LJ/6o1mNmqffL2Wm8eXiR2yS6PMNYV/7SVbMV5dPc9QEmS8G/XvQ7d0JnyPMdn9iALJkJjCLcFv9bD4gUJORkmwyIFDjs4Ux2nYUg4F9/Pvry2dxeekTjsig+ZFT44B/D04N/ACyUsIvxv6SzRbUnKIXz3S/zmkVrq2cRqIQZdPKYHAvTvR+lyM6yPEyKyX5ek6QlDYhGfdUGYRHn/CJORju6MOzg3tht1iZ5SBgQAl9TGYzcqUCzt+9zoroQaVKDMKB7p1469jLGGwneW+caVBLPayyrZvDFqcX8F/+7p9RLJXwuz94nRVSvVBHOqUWSgVcmLiBv//810jKD9PyxGL0hTrw/K6D8DpdkBWFEx1R1j9+dkXFl9NjuDE/+ZBSJXPJYEhjEA72jzTEIJCMmY1QNKe+6ZkF/OPP3kUymcG3XzuJ508cgnuDkzfJYHxhGv/53X/8CoNAwC3iCeCl3UcQ8QZ5Dn6nGwVJQkmRIQoCrs7dwcWpWygq9/0XCCB0uAP49v4T7E9BKZUbaYVCEZ+fuYzPz15GwO/Ba68cx86B3nXDG9f2Sd+gxfgK/tM7/xVzuRiVqoLddBttOzZgEC5LyI6bUZY0gPBkvmWNSOjpv2Yj5fmkJEDj2qqxPXUA4Um+UKrJqitAIIp9NPwMhsOH4LMFWbmTDZ78EBRVYpMBKduimodLdCNRiGF89UtOWPTtoT+CYBIxHruIHf4RDvm7FTuPkKMLbQQAcnN8yj7R9yZW8vN4f+LHHAI5FDyMA50n+cNEp3/6t5sr55lR8Nj8GA0f5VM6mQuuRk+zMh8M7MVI6DA7DDqtHqSKcUwlb2IuPcGV8SKuXgSd7UgX47gTv8JOhaScej270OMbYoBB4GcycQO3Y5eRV+gkXIFb9LLDYbd/CFPxGzg79ysGKdQomoPYDGopKQFSahQ1cajzJfZLGFs5jytLn6GkFvgaOiAXMhUkYvV9EMh3oN0bRJcvzIqGWJCwJ8CpkkmpLqVWMRmbRyqf5b/XGivVYCd+9/jr2NO7s26IY+3DT6dUAgicJLMCLCxG8Rd/9RPk8wX83g/fwHPP7K+rkGiNaBwfXT+Pdy59imw1YuPemMxmhFw+9IU6eS2LssxVC712F1cqJGbkbnQOsVyKlXutabR8AG8deYnzOdQLcazdQ/MgcECN5kO+CH/z97/E0lIMr79yHC+/+Ay8nvqJlopyCedvX2Owk1gDduiD6LO7sKu9h+Nb0vks2rx++B0eZmtShSwmVuZ5fbSkX1ojU0TA5sK39h3Htw6ehLNOiGPtHlrXWCyBn//yA9wan8TLp55hgEP5Dxr9MJMp59bcJP7yg58hWkjCVKHooUmEe8lJ8aus0D0nRQMgPCm9+5XnNrrWWz1gAyA8hsSfJoBgszgxGj6GkbbDCDs6mUWQyiU+hZONvaQUWVFT2GGHpw9WsxXTqTH2LXhj1x9w0qLl7DQ7K84mb2M+cxed7h3sExDPL0EqSzjR920+7f924kcoKXlW5uSUSD4PeTnLtD+dzol1ILMC+TPQveOrl9gUQL4FeyLHsbvtGTYhUJgkMQgEAsjfofaRJqdGAjDzmTvVyALALfrgtvmxK3iAnRXjhRUolJ/BLAKmCuyCi+cVyy/h8sJHWMg+nMyJQifpWnKM7HD1YWf4AMLOLkwlbuHmyjnEC0sMcDSFTAChjETUBqlCSubRUQykUOj0T6dvdm4kZ9Cq3Zv6ITqbTqy1jJX3FRHQZvfh90+8gaM7yRdjAyc2VcXCYgwLC8us0EyCgKnJOZy7cB2BgBd/+PvfRf+O7rp0No1hMR7DT8+8h/MzFE731boMNA8aP5tZ2LFVYEaA8i3wXGSJE2s92Ojs6hdd+N7hU5wkiViHeo3AwXJ0FbOzS+z9T74Ui0sxnP7iModH/uD7r+AA+1TUP72nchn8/Iv38eHYlyhSVcQ1reYbwnUpVJXXiRgf+lNSZBRoLg+Ag9rtLosdLw8fwXePvgi/qzFfiOmZRQYIc/PL+N0fvIajR/bAbmuMfaDn5ktF/PbKabxz6XOklRyEShoe1wL8HQLMQh0nRQMgPMbXX99btyNA2EpwwN/ut99+W5/4En3XZtO9PU0AQRTs6PXsRKd3EO2uHnjtIXbuW8kvMkvgt4eQl3NMp3d5BlipXpj/EGlpFW/s/EOEHB3IK2mOSKCESfQnOTpS0iRiH0i59/h2YjZ1m+31eSnNjoF+R4TZAplYCjnHuQz6AqN8aifTA4GG1cISsxjEapCCJ0dGGg+NmfwiCLSQEiLfCcqPQA6QFH1BzMJSdor9IWizW9nv4TmOdEgUVpCX03CIXtgtdk7ElJVTHLIYzUx/JcMiyaDN1Yvh0AEEHZ18kpxL3cGd+FWNpXggM6SWB0FFMkrhll0oo77SW7sBax+LevvLLdjx5oETeHHvMQTdvvp5EBQFd+/O4cKX1xGNJfgEn80VEPB6cPjQbhw+NAqXs/4YyUHv9sI0/ubDf8ZcZrXhPAhcH6Natni9F81pFvH80EG8cfAkOgNtdUMUiTkgh8svzl/lXAGUy6FYLDH7sWd0EM8e24dgwFe3jxol/xe/+REmEktNz4Uzja+TKpxqMBzsGWL/kJ3t5NexkQNpmYHBZ6e/ZBPJKy8/g6GdfbA8UKK73geK5hLPpPBX7/8U15Ym2QRoMS0jEEzD5Tc/Mt2ywSBs+pPfshsNgGAABF03l94mBnIOpNMx2dvJj4AofLKpL+Vm2F+AchVQ+CM551FKZcpeSCYF8lA43vNtPtGTMia2gU7ShAQ58TLZsKp2/C5PP1Zy8/hi/j12ftQKQ1FtBKrjoFH5xBp47AEGBKmi5rtAvhDUKEGR1xpk8NLlHWTafyJ+lbMzVioqHFYvAxX6IUaEnjWbHmcwQh90YgA63f18H5krSLHTM0XBxgqe8j2QMyNlY1yrAOjZ5MdAJg/6b3KAjOUWWUZfqc1AmRQlquJoRjYbhIIAS0PPRo6Ko+19ePvoSxju6odYJxcCMROpVAYLiytIp7NsaqC6BaGAH93dEQYHG6UnppS+H904j3+99BmylCNCR782imToD7Tju4dfwOGB3XVt91SDgeYwt7DMc6K/U1pir9eNrs4I/L6Nqz8WpBLOjF3GP575DZJy4ZHZBje7VrTn210BNjOQH8JGjIgWsllENLrK/hSd6YZMuQAAIABJREFUHWEOcWxUYZCvx5WpW/ivn/4KywXygaFMilMIdVdgc2yQatlgEDa7zLrf1+h66/7gOh0aDMJjSvtpYhCY4qHQOlDqYw8cFiefoinNMSl5UsxOq1Z0hk77GSnBSpLqJ1ANBPrKpoornP9gbZEkAgKUYdFnb+NiT8QIaMWUvnJ25v4JNGjFoB7OaEhX0+9J0XusAY6QIBNDTkoyrc1FnEwWNncQ2KGx0BjJl0LLlkihazZ2SCRAIJdrhYe0ihGanX99kovNDIKVyBMGBTS+tfR/bUZUiyGfqSAVc0KqtKOCxjzaG92STM1b3Xht7zG8sPsI+y7UK/FMrAHFy1MNCdq3tVTLFLmw0ceJKPWxuSn809l3MbG6CMWkX6hYbb5uix0nd+7Hq/ufRVeovW7oJoECdriko3C1eAHNnVgdAgv1GsmBohH+28fv4NbyDOQWzMVuFplF+M7Bkxjs6K2Gfa4/Ks7gyemVwWaejdaj1hPdR4W0qK7ExZkxFCoSV3R0Oxbh77RAsKxTm6OWB8EACI2+bi2/rtE1b/lAHniAARAeU9pPG0CoiYMUbS3ZjTbHyn3FrfHFKBN3UKvmaNJi+Lla4DoKtlaQqVbR8TFFr40H5ofGcW/8VWaCieA1JarvU950dessXlzNsVhGelVAvhCGCq/uLAKF3+3wR/DG/hM4ODAKj2PjmPlm5U6KazEexb9e/BRn715DgYpf6cge1MZDjpddniBe2n2MaxgE3N4NsyE2OxfaC1S++tdffo73b55Hngp1tWAutDPDTh9O7trP4K3dH9owFHUzc0lT4qobF/Dry6exWsoAJqrmOIdApASH20JE3yObYWJoVtqtv94ACIaJQdddpreJQdfBGZ2xBJhFSAOpuAOSGkbFRJn19NVINlgwFOnFt/Yfx2jvIFx2Z906BM0sDYVWRlNxfHztPD67fQnxor6FjdaOhcpX9wXa8fKeYzg0MAqfi6IG9DHNEDggMwmVen7/xnks55Ko6FiDYe1cLFzyOYTnhw/i+PB+hDyBhsJRG1mfWlbLCxPX8f61c5hJRSGT7wEScLlW4GszwyKuLzcDIDQi5a29xgAIBkDQdccZAEFXcbakM2IRFKmMbALIZimrIiVNql83oemBVAAqELQr3I0X9hzBnp6dXPq5kdwI6z2LFBCFAVLUwie3LuLS1C3ECmloniUtbBXAatJAwsnhA5wXIeQNMEWvebI032gusiIjnk1zmuhzE9exmEtAaUGZ57WjEyGg0xvCs4N7ONqk3d8Gm6jV/dhM43BgVeVw03O3r+LsHfK/WUapLMGEDBwigQMVNieZKdZ/ggEQNiP91t6z2T3RylEZJobHlO7TamJ4TLEYtz8gAbL5S4UyskkyNQSgVPy6F28ivW0zW9AbiGBv9yA7+hGt7bDaIAiWhk7hnMyI0gkrCidqujk7gfMT1znePy0X2Bl1S1oVJHR6gxjtGsCh/lH0hjs4pwABBfI12Ags0HvJRZBUhdND316cwrk71zG+PINUIdcSv4P1ZENJrdpcfk6IdXDHCKfGJlMQOZUSO7KRYuC5EDBQFBSkIqZWFjhZ1a2FKcQKKQ4fRiUHm7ACb0iC00OhjfVXygAIW7KTm3rIRvugqc50utgACI8pSAMgPKYAvyG3k6mhVCgjl7KgkKf0yz5UTMQkbO4kua4yMgnw2hzo8obRE2zHYEc3uoId8DndmjJa8zzNu0T7/0VJYoe3ieVZTC5TEqA4lnNxVrKtsNNvtPRE0btFOzo8IXQHIxho70ZvqIN9E0SB6iM83B6cC+VHiGeTPI+7PJcYFtIxlGgu9D99xb7RVDiBl9NiQ8QdQHcggv5IJ3aEuxDy+u/VenhwSPfnAq7/kMqlMRNdxER0DguJFSykYsgrJahQYK5kYTWvwhMowek1Q6hjWqgN1AAIGy7Zll9gAATDxKDrpjNMDLqKs+Wd1UBCPm1GIe9mkFAG+SRsnCa5mcFxpAbMcFis8Ds98DrcVSVEYaQPn1grZSqXLXE1SIoIoHoDVGMgU8pDpmRH0D9aobm5ABaKqrGIPI+A3c31DbTQ2IdTwBJYp0RMGsMAFOQSVvNppEo5yGUt4mGLOJBHTpHWheRvEyhU18Wpm6nao8BFudasS6XCyZhojjSZkkK5RbJIFqnuiFINq5UhIAPRkoTbL8PpNmlZExsAPwZAaGYXbs21BkAwAIKuO80ACLqKc0s6o/A8pVRBIQMUcjbIihsqXCizXwI5lenjkEeTIT1Byak47K+qGZkyfND8QeGaZaocSQl1UK2ZwGfsLZFHow+hMXMAbnX8nGNjjZGd/D0o4kIDDmBow9kpt+VcqqCgKoBHrQuZSDSKV1s+ShdOsUNg1qAAizkFm7MEl7cMq90EgTImNgAO6JEGQGh0523ddQZAMACCrrvNAAi6inPLOmNFplQgF4FizoRiQYCq2BgoVGCndE66mx62bHLGg3STQC1XhQYPyjBBgmDKw4w8rHYFTrcKq8PE0QrrhTOuNxgDIOi2TLp1ZAAEAyDotpmoIwMg6CrOLe+MnBcJKCgyZV0EpIIJcsnMhZ7u12XaukpqWy4A44HrSoDWv1JRqg6MJq6nIFgrsNnLoAKRFmuFkyAxO9Qga/DgwwyAsP02nwEQDICg6640AIKu4nxinZEyINMD+ShQ5N0DRRtrBPQTG5vx4CcnAc2coJmEGAMQSDADZkvVTLQJYFCbjQEQnty6rvdkAyAYAEHXXWkABF3FuT064yJARjMk8LAE7mGBxwAFBoOwvXeVARAMgKDrDjUAgq7iNDozJPCNkcDXkUHYTgq0FeHt22l+D74IW5kLwSj3rOMnSDWJWLKPYCL0ItLeXlRM9cPlnKYiRm1ncGDHeUTa0xB1Tuin49SMrgwJGBJooQQIIBSSCqKXJeTGzShLJq5Zsh3bViqoZua/XeXVzBwauXYrgYvprbfe2p67sBFJtfia5jacCTWAcDf8zQYI2netwqFb90r7tXitjO6/yRKoxYxq1U+38gOql9TvA4QSsmMaQNC7Nfc9e/TTaxVHt6OMuQjcNgVVeq/lVvVnAIQ6km52s9VMDN9kgMBlcpUKpKICuaiVj9Y+Jvp/8LbqJTGes90lQGXDASLsRKsFop1SG+uXv2IrZt9qgNDst2y9ORsAYSt2w9Y+o97eMACCARD0240VQC4pKGZl9vyneHAKBzOZycvbAAj6Cdro6UEJ1MqHU+SJKlV4zzm84tcKJBgA4fH3tMEgbE6GBkDYnNyapqu+6QwChQUW0hLLzeYSIYhE9369TnKb3CrGbU9cAppJSy6VIRdlCFYz7K7NV2nc6ukYAOHxJW4AhM3J0AAIm5ObARCakRtnIyyjkJGYOSCAQMyB0QwJbKUEiEUgBquslOH027TERV+DZgCEx18kAyBsToYGQNic3AyA0ITcyKSgyCoKqRIsNgEOt9UACE3Iz7hUHwlQNsxCpgS5qMITdnxtzAwGQHj89TcAwuZkaACEzcnNAAjNyI0AAjEIWY1BsDsNBqEZ8RnX6iMBzieQlaFIKlwBG/sjfB2aARAef5UMgLA5GRoAYXNyMwACOxY2GAVbNTEUM5r91+ayrBtu1ojDovbUes+uffjrj6+WGFerhkje7ppfBNdH1OIwG2hNyKGB3rbPJY3JsPXj1U++XGKaAUIZTgIIholBe5N0Cv8zohha/zZs9RMMgLBJiTf7UrXOSbERlcqZBzY507W3mSAKImyCE2pFRkkpcJleKkFsMVv5RylLkMul+x+eBgCC2WSB3eKEzeLgUsHUaqrhvqqiOZiglEvIy1koZfkrQEEwiXBYXWA6WclwSeT7Kua+DASzBTaLC6LZBlktQlILcFjc8FgD3G9WTkJWJSgVirp4GCyQxAWTAItgg2CyQK0oPGcqxaxJ+vFkTf2baXyCg/srqQWoZS0stLXNBIvZAqvggMUs8gIoqgRJLfLzH3dezY3dBAvtM7OD5V8sF1ApUwnlzcvWAAiPXoFmv2XrraMBEJrb4V+Hqw2AsMlVavalagVAoNOuU/TALjhhNj86MyONU1JLyEkJrlH/uI0Ua6dnAMOhI4jnFzEWuwClosAletDu7kPQ0YFobh5z6duQlIL2Qd8AINCHxSl6sTfyHHb4RphdEM0izCYBJbUIq2Bl0FBUC6y4UoUYLi59hJXcXFVxVrkAkwluWwjHOl9hxX556RNW3AxaVBl5JcPKhvp3iz4MBQ+hzd2NpewMFtJ3MRg8gOHwYeTlDOaStxHLL2A5N4OcnH4IJJDcvdYgerxDCDrbUVRyiBeWkZVSyEkpFORsVdbNKzOan8cWRNAeYTnLagm3Vi8iU1plINbKRvL2OyLYGdiHDs8Oln80O4uJ+FWs5hd02T+Njp8AY9jVicHAPmZ2FtKTSJZWkJGSKG8SLBkAwQAIje4/4zpNAgZA2ORO2A4AgU56e9qexY7AqHb6FhwgBU4nWgIFpAzpZzk7jQsLH1QVXfNK60ER0Yl7tO0YXtzxNqaSN/Hx9D/DarZhILAP3b5BVuDLmRmMr15iBVuuKA0BBI81hOO9b6DbM4hobg5BRwR20cWKO+zqgVWwYSY5hjZXN8oVFadn/gVz6QkGCDaLHQ7RzUDAbfXhVP/vwGq24sbyWVTMJnitASxnZ3Bz5RyfxmmMBGRGwkcRcfcglltEqriKkbbDDLioMp9NsDNw+HLxYyym70IuS/fEwADBFsJgYC/6A6NwWwMwm0zIyzncXr2EO6uXkZPS3E8zjcbf5R7Ake5X0O7q5VPzVPwGLi19jEwpXgUIGhjSuJT7be3J+kFe6aun7vt3PsjOECAI2CPYFTqIweA+hBwdSBSWcWHxA0zErzCj8tX2MIP1qBP+w2Phz85D3TxqrMRIBe3tONT1Mnq9u2ATHZhLTeDc/LtYyc3zHqC2lj+rZ34yAIIBEJp5H41rDYCw6T2wHQCCxWRBm6sPba4uVpC9/mEEbWEkiiusPAkkUFaiRGEFc5lx7e+P2Qgg7Ikcx0v9P8RU8gben/wxn3J3+EexK3gQJSXPyngpO83KhVmLDRgEUgYBezue7XmD+6GgdYtg5R+SsyhYWTkV5Bwr96yUwKczv8RMchwmVNDlGcRQ6CB8jjCDBL+9DQFHmK9fzE5iNbeE6eQ45tLjKClFuKxe7A4/g9HIUfjtYR6/XJH5GUuZaX5Gl3cQK9k5XIue5XlkSgkGCaRQBbMIh8XJMidTC8nELjr5xJ0oLiOWX7zPnjQob7o37OrCiZ43+dlz6Tu4vPgJYoVFFOUcK0Si/y2CHaYKQY8KA0JijiSliKKSZQDB5g+zyICR/lTKCq+JSgDHBFhMVgaRpMjpmTRXYlmojzJU/jcytQwE92J/+/NM619Z+hTj8Ussp1rTzCACz53Am8kkQC3LKKl5NtHQutG60u/JbERjKZdVBmhksqD5PGhKEQUbj7+o5KGoRR6fYBZgt7gRcnThud430ObqwZ34VXwx+xukizGQOYmuIcBGfZFUyuUym75oPdcCEQMgGAChwdfRuKwqAYNB2ORW2A4AQftAW9kOTmaG/R3Po9PTj8XMFK5Hz/CJVqOJFEhsIyc7duXeB7WRqa912KsBhJcHfhfz6Ql8Ov0LJIpRVjROi4eVaEEh/4Da87TvNOVBWM9Jke4lOn0oeBABR4Tt76Rc6DTvsfq5r2RptXqCrSBXSuHO6lVMp25CLst8T6erD3arh+lnAhRHul5hcEQMAPkYyGUFi5lJJApLEAQr+rzDzIR0uPtgszjhtLpZQRGIInXDoKQsIVtKMVPy5cJHiBeXWRERAOn1DiPgjDDTQMrYbfPxufhu/BpurVxAqhRrwtERsItuHO9+A3sjx5EqxfHJ1M+xkL3LPgDUSHGH7BH0+Ed4DLSW7e5eOKweBjWXlz5mcwytQae7Hx2efnjsAWRLScylbmMxO8UAIeLsRdDRzgrcarHzuGvXEBghEEAgazC4F4c7X+ZnXV367CGAQGvjED0M6iKubu5PFOzISkncTVxFNDcLtVJmf44udz86PYNwWd0oKDksZWYwlbqBvJSG1WxHxNWDTu8g90Gyn0/fwWxqnH1MagwM7fFe3wheG/w9iIIDF+Y+wET0BgNjj9UHQdCSHjEAUYps7lnK30UJhYdAggEQDIDQyDfPuOYBZrKOA6uRarnOTnnSAIEUhtcegs8a4hMh0fx0ig67uxDLLmAicY0dCGve+Tklw9Q9fXQ91iCcopuVTr1Gpzyyx9PpuUbp1gDC64O/D6lcwnjsS1agmg0+ySdRzdfhARp5QwZBQMjRicHgfj75E+AhBU2K32FxIV2KI1NKssIlxRMvLGI6MYZofpadEMns0O3ZCa89yL4LdLLvdO+A1xZkRbOSX2BTRc3sQWOj342EjqLPP8SnW7qX1pScK00VraiPBhiKDLiuLH3G7AApTDJ5kHnBZyfGQmQgE3S0QVIlXF3+HLdWzrMsGnWooz5prt8b+TM+JX82/UvupyBn7vVBDpEjwUM41f8DOK0eHpeslBBwtiOeX8J/v/Z/83rvbjuGZ7pfB9nw6TRPbAn9/szMr5CWEtgXOYHdkWM8bs1kUIFVsPManp39NVby87wv1gMIJBeX6GPzzN7Is3wvKXa/ow3EaJHp52r0cwYZBzpewHDoMK+b5v8BNnOdn38XiXwUvf4RPNf7HbitfnYo9dgCrOA/m/4Fxle/fIixcFn9eKb7VRxof4EZsbvR6zjc+xK8dn+VPdB2MgGc6fg4Prr7M8SkmYf8JgyAYAAEQ/k3JwGDQWhOXveuftIAgU5s5ExG/gcu0csffLIZk3LMS1kkStGqlz/4VL2cncPFxQ9YIZCS2BEYYXp8vcprpN5Lch53E9dxPXqWvfypaQDhWbw2+O8YNBD9ToqQzBqT8etYyk4hVYxXbfZVkLCRkyJMcFl9rCz6/MOwmmywiU4t+LBSZj8GzdRgY7r98tKnTP2TQyBRzF3uQfQFRuGx+WGGmYhmxifkNEmn3UuLH+NO4iryUopP3oJgQdjZrflv+EdYdqToiBon1oVobjIl1EDUTGqcGYREcYlBAwEKjTlwIeLqxUjbEXhtftxevcrgIM0OhY07hBLA6/ON4ls7/z0r/1+M/SWmEzfvrR/JnWj80fAzeGPoD5jxuBk9h4nVqzja/SqbF94Z+y9wiC58d/hPEbCHcTd5k0/rI+EjbA4h/4vx+GXsbz+Jg+3PM/C7Hv2CHSr3d5xkcHFh4X1WzCTr9QACKf5+/24GIUFnBFeXz2AudYf/Tnvq8+l/Yfaqx7cLR7teZXbl3Nx7zBpIqhYRUlSzcFq8+NauP0C/f5QB2O3VKxgKHWAzC839t3d/zKakWiOANBw8jDdH/gRFKYfP7/4KB7pOoC84xEwIgSxiEMiB9crCGZye/VfkyomHQJoBEAyAsMnP/Tf2NgMgbHLpnzRA0Dz97XzSphMf2aP3t59g7/Ol9BRurJxDXslqs6tU2KufFB+d8trd/UzP0r2PbprrGlHz0ewclnPTbMu+DxCOo2ZioJMuOfr1eHexMp5N3WbltVogZVpVkg2EOdIpnE7HA/7dEMxWVoikvGqn3FrEBtnTv1z8BNeip/mEXVOe5H1Pjo0Oi4fpb7LX04m009uPWG4Bn07/kj3xSUGxD0Lbs9jTfpxNGHTqJBqbTAqkVOn0T2DBawsg7Opm08TFhY8Qy2vOcaSMSEmTWYRMAmTWIUfQq8unsZC5yyxKo+wBy5TYgfARnOz9HrMnvxj/KyykJx4CGTWA8PrO32cW5ac3/jPihXlEXH3slLqcnUWvdyd+uOd/4/7Ih6Eo5+GzBQGzmU0fN1cu8HiJZZhP3WE/DpLF8Z5vM7AkluTK8iccrrkeQCBQebjzJRzuepGZnS/m3kW8EMXL/T/EztB+Bgg3Y+exr/0ERsNHmVk6PfMOgwAaJzVay3ZnD97e87+wM+ZidpoVu9vmZ1BG5pB3b/8DMlL83vakPU5mnX+7//+EpJTwq1t/BzMseLbvdfQFhjgkMlNI4MbSOZyf+y1i0iIqpodBmgEQDICwyc/9N/Y2AyBscumfNEBYO2w6qR3pfBk9viHMpyZwefkTPiUyPqiCBFJamhMb2fjXT1ZU65vmWK7IrDBqCm+tk+JHkz9l8EEnP7J9k3lhNjmuhSBWFcJGPgj0PAIIL9QAgkngsMbl3CxT0mRGsJgFjjygdiN6DjdXzjKAoHER5X2480UMhQ8jK6UhkaOcKrGTI4Vf5uQsri2dZp8FYhDopL3Dv5s99cnUQH1Q9AOZCPJSBm3uLvZzSBZX4beHkCzG+P6Z9DjPifw9yJFwX+Q5BmRaKGkRk4kbfHompXg/JHHjqBFiMPr9e/Dq4O+xgyAzCKlbD+U+0ADCMbw08G+YzfnvV/8jUqVVzsdQU7o7/fvw1u7/mVkViqRIl5K8+kWlgIXMJDLFOPZ3vICdwf2YJpPC3K/Q6R7Ayb7vsYPhhcUPcWvlC5b3fYBgxtXlzzg6g+ZIkSUnet9kFmImdRsX5t9nxubUjrfR6xvCZzPvMIuiAYRj7J/yOQOEyXt0P4HbDtcOvDX6P6HN2cVyW80vsflLqUbd3F79smoi03ajxWzDruB+fH/kf+R9/dMbf45EPoZe9wiO9b7Cpoap1Vu4OP8BVqVFlNeAA+0VMBIlPepz1+y3bL1PppEHYZPKZBvfZgCETS5Osy9VK/IgPDh0q+DEwY7n+eOfKERxLXqGT9jkXU6nXvLop9N3s6F3a8VDp9M9bcf5xHg3eR0fTP6YqX7NI15jJEjZaEmMqq1BBoEAAtHXrBA4ImCFT8E1j3s6DatQcGPpC9xcPcfKHCYT0/zfH/kPTPn/5s4/YCU/d8+LnhgF+nClijHk5ZSW1MkscJjicPAQen27WHERQ0ImCjLTuKweZi4IGJC5hEIgJxPXMZMeY3NEj2cndrc9wz4IdFInIEHOjqSsb8XOcwSJ5txZYQfLjcwNND7ywfjuyH9Am6MLH0/9DNdXaP1y94DZPYDQ/0POB/Gja/+J51RrxN60u3fge8N/xg6XZBIhxUvhl2YIyMopltWhjpewM3SAGYrry2fQH9iN/ZETfGonWp4YELqDAMKRzld4vqTwb1PoppxmcEkMwqHOFzn08s7qFTYP7Ysch9PqxefT7+Bq9DT6vEM40q2ZGM7Pv4epxE2Ws+bXkmbG4tu7/oiZJ2IcbkXP854hIED7NlaYv8dakXclAT0yWRzteoWB4y/H/hrpUgJW2BF29MDvCGExPYmUvPJIcGAAhPU/dM1+y76uAKG2Bzb5yf9G3mYAhE0ue3MvlQmqScSSYwR3Qy8i7e1FZQMHQaepiFHbGRzYcR6R9jREsf5Aa6dQcgwjBUcx/OTERh90UjQzyVtYzE2z8n6cRgCB6PmX+n8HU4kb+GDqJwwQ6sqjQYDw4sAPMeDfwydVi0nzTH+Qqif6nZzZbseusFc9JWoihRNyduGNnX/InvBfzP+GKW8yJdBJ2mMLcdgkmT4oLwMxANQPmSRGQkfQ7u7Gaj7KoYntZCrx7eJQPC4wpcrsUU+Oe+ToRwmRCIyQHZ+c8kjp0cmaAMfu8FE2OZDcKU6fGilUeiYBmY2AGSWKOrnj+xgNHebT9pm5dxHNzjDAIBmQOYgSOz3f930Uy0X8/MZfsK9DrREzRAr6YMeLGG07ysqWwkA5yZTJzDkkiNmg/UG+FzkpyeP0OyjMU+LIi5uxc8zK0F4ihoWUsc8WZudWcmKkaAhKVNTnG2bGhhwqyUGRZErRBARGCZhcWf6M+6BrBgN7mMGhhEvENBDDMx67wM6jZFahUEq76MBU/CYDGAIUxHbciJ6p+oJQRkUrs1OndvyAGR8ya51beI8BLzViwwic0d5m/5N1msEgtBYk1BgEesp6vk2P8+153Hub+2bXf5qefekpL73HVRcgvP322xvzo4+Qo96DfNyNsR3u1xiEYUy0CCDQC0kfV6Kqif4mJ0YK16OPN0UhTCZuYiU7y+aAx2k1IHK48xQWM9O4uPjhPVPG+l/m+mGOdB+bGHa8jYHAHh4v0eIEDx5uFFlQ4RMmKfyJxFVWIpQoaSh0CLsC+9l/gTwMyZRAGR4rFZVP+Hdil1jRE4NAcfkU5rgrfJBt3vQsahQBQVQ3OSWS0yKdrkmmdFInh0ACERTWR973FBpIZoBsKcEKjPI3DPj3ct8EBmo5FShXBNnqN8qCSECO8jk81/MdDv2j6JCx1YsMMAiYkPNlxN3HmR5JKZPci3LVx6QqJGIRCBANhQ+hyzPAwICUZrIQxVTyFlP2FLq4v/05lttSZgppKY7Z1AQr/1pyJ1K2IWc3R8WQCYDmQ5EDFBlDOS7I/4KcC8nBk8wtFB1B8qbwVEoqNZ0a42dRoiNiImg+nAcBKuL5ZVxfOYtUYYX7ocgV6odMVwSEyP+DgNdM1cRCDBBFqZDvBGVVJMaGzBi0lrS2zTQDIDQjrc1dWwMGegEEvfrZ3GzWv0tVm9t79Z5vNpt1A1S0x/XUvwZA0HvnrNNfzcQwETrVEgahhkKJ5qePsWCiegYm3ix0yiYHPIpmaMZ57lFTIaVDdnKfLcRhdES/3/M1WPfoVh8g0OmXPNF3Bg8g6OxAuhB7iF5/qFtiFSplpv6TRYrUkKqpmW2wCw52UqQICApXrNVr4FoJdNLl+YMVE2VsJMVjouRBZpH9LOhETQqQ8jjQPMmBkU7JdLqn31GEBtn0ScaaWULSUjdDqxtATqOkpKmRnOkUTw6QG5kYeO0494KdTSwH2k/CZw9xkqTJ+A0GQgUpA1M17wX1TX4Ij3p5adzE8pDTZa2aBc2bfiiFM5kHdoX2YzZ9G2dnf8PgjmpbEFvyEFtjtrDSJuBC/fAeUks8J/pok8zoGfQ8ih5gTxcT5WfQzEsE5Lg+h2CFaKLrtPyPJDdKwU1N9ZeWAAAgAElEQVR/av1oY6V+qFHECvmP0JpR+COBglpWR2KGKNJiPn2b81802wyA0KzEmr9eT4VOfenZX/OzqQ8Q9FDEevttGABBz1Xewr62AiBs1XTIRq190DXwsWFrwMSgKVlK+qT5TJCCqdfoRK49+8HrtGqM5OJImQY53+Aj+qFryIRBJggtZbGmvEixPViUiE7tpCBrfhyPKg614dybuIAjUwQ7Olx96POPMEgg8xClWiYWYCMWot6jtPoRIeyJPMMZN4kxoPTbNZq+iWFuyaXERrQ7e7E78iwcopPNIzOJcc59QQBiM0DXAAitXzo9FboBEJpfLwMgNC+zbXHH0wQQmhZoAwCh6T6f0hu0KBPN4bPm9EkZCB/Xd0RjaRyIOHsYeJADJjEiDzmTbiOZamG8lMZZq+ZIpjEy23wVFDY+aAMgNC6rzV5pAITmJGcwCM3J66m92gAIlGpZgmAVYHNtHGL51G6EJibGzIapfsGUJrp7IMTVzIq2ltuimT628tpaIabNsAWPGieVAC/lFMglFa6ADWbhwXJXWzmz5p5FRTwLSQXRyyVkx8woS9t33AZAaG5tDYDQnLye2qu/6QBB4VoMEiyiGTaXCJN5+37kntpN+A2fGCnaYlaGIhkAoVVbwQAIzUnWAAjNyeupvfobDRAoN4JSRiEtQbCYYXOLMBsA4and69t1YrQHiUGolMtw+Gxfmz1oMAjbb0dRFIPhpGiEOeq2M7/pAKFcrqCYpkiKCqxOCywilenVnAONZkigtRKgOg1lyEUFilSGxSbA5vz6mLkMgNDa3bGZ3g2AAJiMPAib2TqPvuebDhAIBxC1KxXpBFeNHaAwJi26zWiGBFomAQ5koXDfcgVmQTNxCZavj4nLAAgt2xqb7tgACAZA2PTmedSN33iAUM2FTzSvXFQZLIDKKhsAQdd9ZnT2CAlQigbBBIvVDIvV8rUCBzQbAyBsv11tAAQDIOi6KzcNEPrOaamWrV+fE89GgiMG4V56gqdnWhtN2/j9k5KAlsOJI0L0dKLbqukYAGGrJN34cwyAYACExndLA1duDiCcxv7ec2jvyDxVAKEBcRmXGBIwJFCVgAYQ5GqYo2CEOW6DnWEABAMg6LoNmwUIdhSxS7yAA91n0NWVhNVOWQJ1HZLRmSEBQwJfAwmUlQpyMRkrVyTkJix4zHIqLZ2xngyNkUmx+aUyMik2L7NtcUezAMFSkdFVHsfB8Efo71uA04c1YVlr0IKpwgBCzxd0reDoJPNwaI+BWLbF5jIG8RRJYE1UTwWQCipS0xKSNwBpxYxGsps/KYHo+f0xAELzq2gAhOZlti3uaBYgmCoqgsVZ7BU/xED3bbhDMgQLGVO5lirPiYME+Z9MoOrRok3gEC69M8TRM1S5DLmgcD4DSn17z6i7LaRrDMKQwFMiAarGx6G/ZlSUMqCYUUpXkJksozhvhlqi1Jrbd64GQGhubYxESc3J66m9elMAoTCHPcKH6O8ah6eN0hRDy0Co/R+3mrNfWa2wu7NoF3UN46L+lZLKGejKSlkDH/Rwcy0R7lO7ZMbEDAlsuQTofeMKrHIFxYSC0ooZUswEKW5GuUiVTLd8SE090AAITYmLGV+j3HNzMnsqr24WIFgrMtrVO9jv/wg7eufgDlQgiFRF8avioW9GWaYscTLnGbA5rbB7Hj/WuwYOCmmZs89R/HgrGIqncsGNSRkS2KQE6L0rKyryqwoSYwpyd4RtzxzUpmoAhOYW3QAIzcnrkVfruel0GE7TXZACVyFiyT6CidAppL29qJBNoE5zoIR+4RIOdn2O7u44bM4NnBSrFRMLGQlyQWVlTimNN5sQ5h5zkJFQVsGAQ3QIX5v0tE0vknGDIYFtJAFiEeR8GdEbRaSvmKHmq3Ga22iMrR6K4YPQvIT19kGoN4JNZ1Jsflr173h6AMIw7gQbAwhOFDFiP4MDHObYeB4E8hEoZmRIBQVWuwV2r7VpkMDgQFK5dgJUwOYRYXUIRoElvTe20Z8hgToSkAtlxMaKSF02Q8l88wDCdt4clLpbr6a3iUGvcW3UzxMHCNsZQW4kvLW/V00iFm1DDBBSno0ZBKepiN3209hPiZIizeVBUJUKV04kk4PNZYXdLbITY932gG2THBLzaQkVtQKH12qAg2YXu8XXa3bo6oK10ibN5iwjvLbFy7lu93KxjNWxElJXTFDSG73AT2qUrXvuVp6Gm52FHoWaas/UEyA0O4/Hud4ACI8jvTX3EkBYsg3jdvCFhgHCqO0MDuygTIoZiGJzg2GQkJUg5RWYLeQIs9EJpIJKWXNwoCgFAmdWlwU2h8VgDpoTvf5Xk+Ma/a9WU0ABOFFLucLmn4parjqvPn7Yae3DR6mJac8IgpkdU+85x1L9jMd/jP4yegp7pJTkq2MSUmRiyJi3vYNiK5aATup6KuNWjPFx+qwdgr+OLPkTBQhPE3tAG2jzAOG8lmq5SYBAz6QEK+S0qMhlQNWCp9ZvFY6vJjBBJZnJGZFy17NiMNoTkYB2ggIoQkUuKVCKKoeZ0kLe+x1do1Z08w3hXUKhsxSlQj8ECChohcCCTYBoF2AhZ9nq756IYL4hDzUAArgKpwEQtueGNwCCjuvyJACCxgZUT5mc5aguPtCir82maiijcVLUcfmb7ooqDxKwk3Iy+4OU1TIDBf5YVpV2NROGtq4bEUSNjGCd/aHl2iDQAK6GSNE0NocIi13LufF1PP00Io4nfY0BEAyA8KT3YL3nGwBBx9V5UgCh4Sk8qBwM0qBhsel9IQEANg/lZSh5Baqsgqpja8WGqgvzJNanylowu2AiIGnmxFz3Ql+r+Tn0lsc3uT8DIBgAYTvvfwMg6Lg62x4g6DhXo6vNSYBYA8pWSaGqiqxWs2RWgcGTAAXrTaPqC0FgwWwhkGDhH8EiGP4Jm1v6R95lAAQDIOi4nXTvygAIOorUAAg6CvMp7IpMCKWcwo6lBA7YjLDN/T84619Z838gZ1a7xwqL1QAJem1PAyAYAEGvvdSKfgyAoKNUDYCgozCfsq4IHBTTEpsVVFUruvV1OYrXIitoyJR3w+G1sYOrEenw+JvUAAgGQHj8XdS6HgyAoKNsDYCgozCfoq4IHBSyMkoZCWqZwMEDhTYanKeJIh04RJWcBikOgZK4tDJBwiMGRo4SBBIcIhzEJBggocHVW/8yAyAYAOGxN1ELOzAAgo7CNQCCjsJ8SroinwNKZkU+BxS+2Dw4MMHMVf9EyFkRotkJh19ASU1CKRdgEp4MSKBaIA6vCIso3K8q9pSs2VZOwwAIBkDYyv3W7LMMgNCsxOpcbwAEHYX5FHRF0QpSQUUhKUFRFK6O2VQrU0FgK+w2PxxCG0wlD5wOP8w2BcvLk8iWohDdJcCsoEwhrlvVqkwCmRocHpHDIo22OQkYAMEACJvbOVtzlwEQdJSzARB0FOZT0BWFMmbjBY5aYHDQMD4wwWyyQC2KMJc86OgYRHdfPwSzAxZBhCpLWImuIJOJoWxLIldcQbGUQsWsNPGMzQtYM3dUIAgmuIJ2WCkTp+GQsCmBGgDBAAib2jhbdJMBEHQUtAEQdBTm17wr8vwnv4NCusTKtJFoBVa8FTNEsx0eZzvEcghixYuOnm74Qj7ug1NlV8qQZQWSVEKhmMbi7BSiK1Mwu/IwW2WUKyqnbW5lY8dFtcI5Epx+G2deNFrzEjAAggEQmt81W3eHARB0lLUBEHQU5te8K8qQmIkVoEqU23pj9sBsElBRLVBzVjjFDvQPjsDvD8MsWGGzWyEIAuECUIE5ynZoMnOiAsiSjFQsidWVZUiVJCRTDJlcDEql2HL/BAJBhEPcIQfsLtGIatjEnjUAggEQNrFttuwWAyDoKGoDIOgozK9xV6Q4i8QepEpaPYV6vgeUHbtigcPmh8feDkHxw+0MI9LTDofDziaDGntP7AEVbtLSIWsMgZaVscxAoVQqIBZdwNzsHUimVYguCWWT3LI895wjQa0wOHD5bZye2WjNScAACAZAaG7HbO3VBkDQUd5PAiBohXZMsJhFJpWVstQyhaCjqHTqqmbUby2d3uxg2fcglodcqs8ekIJVCwKUjAuR4CAGR0fgdHlhESwQrSIDga+0Wk2GNb/Q6nGUkcvksbIURTYbQ8m8gry0BLVSQIXsFy1oBIZoD3qCDlid5IvQgoc8xV0aAMEACNt5exsAQcfV2WqAYDaZ4bC4+afD288lnO8mrqMoZ1tug15PbARWrBY7BJMIuVyCokoNjYWc8qyCjSsSSWqB7ej1mmAW4bS4GRTl5TRfL5gE2Cwufl5JoT6UTaxuY6CD6x9WNTjJvZaTgBQ1AYP8ahFyrUTzeqMoC1DyXiDbhs5IHwZG++AOOLkGwiNbxYRKhZ5LSvmrCp+eTRka04ksFqeXsLQwg2JlAdZQFmaxNVEONRbBHbDD7qaIBgMhNLPpDIBgAIRm9stWX2sABB0l3iqAQECgmnrvodFazXaMho+g0zMIl9WDUrmEsZXzmExc57A3UbCCbNvmR7jPl+nEWVFZgasVpSElvpGoSGk6rR6Mho8i4urF+OolzKTGmNWgtrakK508aW4mk4CArR0j4cP89xuxc8iWUqx0ScnLa0CGyWRGyNGJZ3u+xQDhi7nfIFlYQdDZjme6X0NRLuDi4vtIleIMmjZq1J9gsjALI5gtkMsSZKV4Tyb0OwI9otl2z1ufAIrNbGM5p6UEikqOn0Un6nymhGJa0ea7LuuuRSqYKhGg1Am7yYNIZwid3SGIFoHp+rVAoaKaoBIpIdw3MdTmRtkZFVlBvlDA0uwKpm7PIZ2KQXAl4enIQ7C2hkFgx0q1AqvLwmYGzotgtIYlYAAEAyA0vFmewIVPFCDQfJkif0p4ScUkYsk2hDvBU0h5elEx1f9YOk1FjNrO4MCO84i0pyGKX90BolmEzx6G3eJmU8KDjZRpwNGOQx2nIAgiJuPXEM3NYyJxFQF7BMOhg/DZQ1o56DVd07+kCjFMJm9iOTMJZVOn7Yc7JUDS5xvF/vaTcIpu3Ih+gbnMxL2Ef3k5g5KSg1pRGRR4rD54rAGIFjt6vUPo9Q+hqOQxn56AqWJmsLCcm8NcagwltcDsAilw0WyFW/RiX8fz6PTswGzyNu6sXuH7h8MHsZJbwIWFD5CT0pDLMspl+Z6yJxmSrEjZk0JXyzJsggNhVw863Tvgd7Tx88fjl1CScwzMfLYwhsOHscM/ApvFDjOIqXAyoFjNL+L8wm8xnRzjvkhZZlYLkIsUcljfObGiWCBnfbBa+xHq6YLTaYdZrsBUKCPU5oU36IFgub/m7INATopUafGBBEmypCIdz2J5MYZ0PoNCpYhcPg9VzUOwJGFzpmGiEMgWtVqtBk/IAdFumBmaEfN9gGCCkhG2PDlmM2NtxbXso1P9aUX/j9NnTS/ppZ/06udx5tTsvZsCCGtPgs0+dO3121Vwzc6TGQT7CCZCLyLtfXyAQAqSFPyRrtfQ6emHxWR5OL2uycTKjcBAurSKn974cyRLKyB2YDR0FEe6X4VotmAlPw+lLFfFbmIF67UH+WR+a+UCri1/XlXA5HCvnaaJpiclTtfSvWQuIArfYrYy47DWdEBMhd8ewdGuVzEcPgSzyYS8nIVakRncVMplXFn6DNdXziJTSrCiH/DvZYVObIPPEQKd5DOlODKlJEpKEeniKqYSY5jNjENWi3ziDjs6sSMwwqDJZfXCb29jEJCXMujyDEA0C5jPTiJRiCFTTGI+cxvLmRkoFZkBllP0oKcKRiSlwIpdKkvo9+9Gp3cHMy5L6WlmP2KFeR43jdVuccFmccAmONHh7sNI6BDsVRB0M3YOGSmhOQyqZWSWC5BlVQttrMO4V2QLShkfHI4BhAd7YbVZoRQk5KM5OEQRvYMdcDpsEAQzA4V77wmZGcjfRFHZOTGdzmJmch5LSzHACZitZs1EUy5CEJIQbam6AIHmbDFbNDaHTSca20P7iEEPh03WaeUKMyfeNpfhh9Dkx5AAQmyshOQlAgjmlgKEZr9n601F7++1XuNqUvR1L68dXPWaq94gSK9xbSSzTQMEvRZ1qya6kSAe9ftm56iarAwQ7ob1AQg0JlJOpNToxKuZGe5/qkWTDbuCB7C//QTSUhz/PPaXyJYSfLrdHX4GezuOM0twdu5dFJXsPYDgsfox2nYMYWcnphK3cHn5E5SUPCtot9WPiLOHFQQ9t88/hKWspjCJrejzDSOWX8B08gYrcQYSbFrwYnfbszyeeGEJE/GrSJfi3N8z3a+jzdWN0zP/ghsrXzBLQFOxCg4+nR/oOIFOzwDi+WVMxK8x2CnIWShQUSmrkNSiBlAgoM3Vy6YInyMMCwS0e/rY36Gg5OCxBdj3YDE7xQAmI6UwmbiBufQdZhEcFhd2hg7iaPercFk8DHSIbbi5co7l2uMbRrIYw2SCxhBnX4jaHqB9SuCgx7uLZee2+nA7dhnjq18iKyfvmTJUuYx0rMC+ABvlPjCbRIiWLji9O2Fzh9ikwB8SucwyFSlKIKfCYbWgrTMIu8PKLArlVZCKJcQWEojGVpGvFJCXCpAUGRWzth5luQwpnYHJFIe3TTMxVHHFQ1tdAIGuLvQEB+Bx+DgREz1DLSvIlzJYTM4imp1DqVxY1wyljbkCb8TBeRG28zu9me9AK++5DxDAAKEBi9imh9Ps92yrAMKmJ9TCG9n8uZ4v0CaeqydTspXvlwEQ6ix2sy9UKwBCvb1ISurF/h8i4u7FteUzuLr0GUpq/h5A2BM5hlh+EZ9O/5Id+ajR5vLagmwG6HDvwExqHJeXPmWAQAxBxN2HA+0n+bRcUkqIuLuRKERxK3oeYVcXRtqO4PbqJVxY+IjNBaSM6CQ/FDqMwcBeVqy3Vs4zqCBFMxjYxwCGgARR8aSsSflQI3aClPJzPd9GyNUFMkEoaglL2VncWjkHi9mGsKsDmWICk8lrKCpFPsnvDO4D+V+kiqs42PkCjzWWm0eHux/J4gquLH0Or82PolJgEweN0yJY2UTwTNfrzESQMyexHCPho+y/cGX5M2ZaSA5SufgQ7UnVEAgsDQb3MfByiC6+n3w9cnKaAQzdR0yLUlKRiZeqAKH+l4QBgrULTs8u2FzBr3yQyrKKwmoeKCpo7wgjFPKgopgZ/KzG45iemEOmmIPZbaYaTvcb+QXIZciZDEyIw7MOQKB50V54bvB1nBh+HW67916tCNr7/z97b/4dx3WlCX6ZGbmvyERiX4mVJLjvonZLsiXbsl3VVe3qrnJvdXqmzpmZ/2PmnJkfpnv6TJ+ZququcR27ZLssL9olaqW47zsJgNiXRO57RGRGzLk3kCRIApkJIEFCVDwblgW8ePHefS/zfu/e794ryjlcHT+Nr4bfx0xy/N6+Pbwq/pwUVLiCDj0fwiqVx+MCCKv9Liu3jMepoFYpzpp11wGCJkodIHxDAQK5G1rcvXil96fMan/n5n9DKDvJN9mSBWG1AIE+FE6zFwPB/Uw0TEsxpKUEbIKD/flkJbCbXQwWbkfOQy6K7HLoqtuK/sAeyEWZwcNMaoSJiW5bAIdaX0Wbt4+fuRo6uWiKV1hJNzo7cKTjdbR4tiCeD2EsegMNrjY0OFvZUCKqItJiHLcXzuNW5BwrfAIIu5teQJO7g8FP0N7Myn8+PYEWTzcyYgLj8dvoC+xEJDePk9MfMOhocnVjX8tL8NkCuBO5hCuhE2xW31p/EFsbDrBV5MLM55hN313iPiEioYktEySP7Y2H4bHW8d/zHGlRYIBEN+xroVMMfjLZDNKRHApUmKlC7QWlIKCQ8sBm34JAdzvMNrIQ3G9aSmON+CjACCmSR3wyCsVShOIoIi+JKCqapeKRMEZVhYFcDMY4BNvKLgar0Y4dbYfx8tCP0B7ohnnRgqAoRYST8/jixrs4M/YZkmJssYLkox+YUiSDx2+D1UXhmXokQ7WaSgcI1Urq8fbTAYIOECqeuNWi7sdlQaDDS/7+ox0/RIurk83cp6c/4hs4tfIAQbs1ahaEjgcsCPQssfMbne188ye3xWTiNpvwt/i2YaBhH+bTk7g4+wUi2RmNbAgjv88uOJgLQGx+4h1Q6OVAYB+b43OFNC7MfIbp1Oi9iAZ6Zn/LywwuSNHPJsZQ72pGr38Xm+/JAnF66iO2DOT4Vq+Z+wlYtLi68WLPnzBJMCel2FdOAKHVs0UzjZPFwGjGrYVzTNgkgENAYIt/OxYy0zg3cwxxMczKnTgM2xsOYSC4B+HMLC7OfYnZ1F22CpAFhORMshqo38s++qnEMFsPyI1CXI2+wC50+QYRzYdwfuZzTIaHkQinqgYIctoDu30L6rvaITwEEJYeULIIpObSiEyFIKk5mN0mjrJcMb8Bmf0LxEGIwWJfmaRI++cye7Gz/QieHXgNrX6q+WBCJBXCyTuf4MzdTxHJhqBg5bBTHSBU/CpZsYMOENYuu418UgcIOkCoeL42I0CgG63HVo/twUWllp3D8Yk/Ipqduecvv8dBaDyIWG4BpybfR5YY+YsuBpfVh23BA2hwtmAsfuuei6EkEC1SwAqFYh9UMGCg2zMRJknp3gyfY5N6Kd9/idjG9AgD+Jbf6RvEzsajTOS7NPM5gxjiHpSeIUXvtQYYXNgEOytp4kQQsZEUsRYdcAyJfPgR37fHGsCrPT/lm73GT5CYiNjq6YVZsMJkMGIhPYWvJv6AhBiBYDDDZa2D3eREtpBmjkMpzwIpeVrXtuBB9AX3IJmL4tr815hI3oZUlJj4SO4TytEQyy9AKogMgMgtQYRQAhh7m1+A1+bHyckPcXP2AmIEEJiDUP6IlTgITk8vrC4/DA/5PJemOiAlLOUlJKNRJGJxFAva+FQwiXgHD7RFFwNxEIxqFO7GlTkIfCbugYTDONj7Iu/HxfETOHv3C+aFFFE+AkJ3MVT8KtEBwtpF9ESe1AGCDhAqHrzNBBBIaVpMDvhtDdjedIRv3sT4/2rsD5hNjbHSKjVSutvrD2JP64vsFx+NXuW4/kWEwAqcTPQUlng7fAkX575ghb+00QfEYrIh6GhhPz2RCMdiN3B5/mt+76OBk1oIotPiRad3gAEIuSOIlEiREuSueLgksfYOO7YGD6AvsBt5OYO59ARcVi+7Cm5GzjNZkUz5Jd4CgREiCw4E9sDvbESjq4PHpefaPb0wGgXMpcYwmbiD0TitW9Rwy2LGSZr3w/taciP0B/ZxOGNWjLMLYjxxk58lciOFQPYGdsNvb+RMhxQBMh67ydEfBIYIGJ2fPobR8E3EQsnqSIowQxCamaRocxNJ8cGwWLVA2RG1vAcwGSDnRSQXokgm4gyaaG6MKbSSCEz8LFkUiOgopdIaB6GeAIKyLEmxtOfMsxDcaPF28bmYTYwzkCqWsRyUnmUCVoGiGHSSYsUvlYc66BaE1Urs8fTXAYIOECqetM0CEEiB1dkb0Onbiq3B/azgQ5lJNmnPp8fvme3vAwQ7BusPYH/Ld5iVvvTGzLkEDBQZ4eQohOsLZx4IcyzdKDmCwduPvvrd7JKYSt5hImQsN8+uhQfABDHuTVYEHW2cuKnV28O3egIGw9HLSEv3Wf4PC51ACEU/bG3YzyBAAxMJ9r2TJYBCLYl4GM/PsxIk9wOFTVoFK/MlyPxvE2wIZ0NsEaGIgitzJ5EtpJgjQaCDQhAfBicPz0PLSulGg7ON37GQncFCdornRDyLdm8/8xC0REoi/PYmOM1utnZIRRE3yLKycAbxbBiJ+QwDhEpFmoiDIC9yEOqJg2C1aFGRpXTKpPiJS2CkyAUFmVgaC+Mhzs9gdgpMTDQolDyJwgwBI4VClvIjkMmBIj+MMZjLcBAe3kcOpTVQym4KbaycZIqfV1TOz+AJOmDV0y1X/F5Z2kEHCKsS12PrrAMEHSBUPGybBSCQmZ4IdqSwqQ1HLmGYwgjz0QcsB6UFmYwWVnRkHidewhyF/S1GDpACIqVMCs5h9iCSndbCAu/lSdBCK1vcW1j5EidhPH4TY7HryEjxR8ABAwqDkU3tBF7avX2IZOdwO3IJocwEhx2Wy2aoRVXUs8WB8hsQeOG4e64nbOAoASI4jiduMFjY0XAU7b5eWE02fq/NZOffk5WBfOdFRWECIb2TbvkzyRFcWMZCstzmcxIlo4mJiQSCiKinhXEa2TJC0ROUL4GyRVL+CQIHFElBezEWv84hpnKhwCRFqcpESYUs5UHoQaCzFSazBUpBswyYSPkz+VCbKRVFysUziE4vIC2mYLZTOsXFD7GqhT6SLFlqDCwUqMUcAwSLMwmjqXzq6oofhjIdiERpMhq4qqOeKGl1ktQBwurk9bh66wBBBwgVz9pmAQjsr7f5mReQ55C6NN9aV1a8mrmfwhapDyUJWroWI+UCNFLGO+OiInww1TLH4JtsHM5HN29yP9BtvMQfWE5wpNhtZif76mluTFZcBCWVBF1yNdCznFa6lO2BLsGqwvkI6P1kQydAIJjupzxeji9/zyNPtQmKEnJFSoO8vlTDBBLISkI/FP1AsmPZKgXmQWhFsrSIg1xK4p9FjLPC8inxkQDB0ASbYwscnnoIZgJHtMxFZb90cRRJKEpIRmJIJGLLkgYNBBSKmluiKBdQzKZhNEbhasjBvEIehEp7U+nvWqSFygmS9FTLlaT16N91gLB6mT2OJ3SAoAOEiudstUplI6MYtNhjKtZTpdm34uoqdyjFO1crh6VZ+CqP/s3tUUp5vRxgIlkVREULdaxQrInKPCPvhVpogSfQDGcDpVYm08EysIeTI0lIhKJIJuPsSlg2goHBgQKlIEORMzAa43D6cxDMyydKWu8uMAgqqnDqxZrWJEodIKxJbBv+kA4QdIBQ8ZBVqxhLA20kQKg4Wb3DppEAlXtOUTZFsVCWh8DlnvOUbtkBu7MZ/rZ2mC0OGE0CjBayUiypw0ClnGMZhMfnkZcyMLuFBwtBLfIVilpqD3sAACAASURBVHkZhWweRlMeNo8IwUr1GKguxPosKCsJl+swUBREwKanWV7DCdQBwhqE9hge0QGCDhAqHjMdIFQUkd5hGQmQ0synZeQS5AZSoZZLHESKvWiC0eSCYPJDybsgWLzwNAYg2K0aaZGAArkukllEpsPI5ZIw2qnCp+aL4WRKlJgJRShyFoqUhMWRh9VDyZqUZUtD12LjSvkPbC4LnF4LV6DU2+okoAOE1cnrcfXWAYIOECqeNR0gVBSR3mEFCRTkRTeDVKxY1VEbwsRAQUqZYUQdvM2dsLt9MECAYDNzGuaCJCMeiSEVu89BICJlMStBzmVhdUhsNTAYcjAKBA42xmpQWjIBITJMOAN2PcXyGj8JOkBYo+A2+DEdIOgAoeIR0wFCRRHpHVaQQMmKkE2KWoRBFemHNcIfhXZaIZjroEoeqLIT7oZ6OLwuiDkZ8fkIUqmEFoKoFmE0SChKaUBJweYpQLCTxWDjeSrMPVBUWB1mOHw0X916sJYPgw4Q1iK1jX9GBwg6QKh4ynSAUFFEeocyEiAuQjqah5yTNb7AcuTDZZ8n34EJhbwZxawdTk8L3PWNyMaKiM5GOQ8CDBIMxjzsXhlmK5XClrQcCBtsNaDpliIXTIIRTp/OPVjPh0AHCOuR3sY9qwMEHSBUPF06QKgoIr1DGQnQ+ZFzRWTjea7NwABhFXWMOGBFFSCY3EDRi9SCCfmUBINNhknIQrDkmGfA7oQNIiEuuzyKxQTg8Fhhc5thNOnWg7V+EHSAsFbJbexzOkDQAULFE6YDhIoi0jtUkAC5F8SMhFxS4oyHHJmwCpDAN3aYUJSNyCdNUCQjzG5AsIgaAdFEYz7GbVgEB1anGXa3BYKZwjIf4/ufslfpAGFzbqgOENYJEDbnttZ2VqsDCAZwmKO9H6OB55H0tEM1PJhb/+HZOQx5DFpPYmfnWTQ0JmE213b++mibQwJKUeGoBrr9FxczHq5WqbJZv8jFFjjFstFQvrbChqyc5g7AbDfD7rFAsJgeLzjZkEU92UHvAwQDCikDp8zeqLa677OVZ7E0/Haj5rrecWsxRyIG16pxNNPiz3rHrMXaqp2D4c0331wT1blWk6zVoa12wavpt9q5lfIgjASe0wHCagT9LehLGQ4JIOQzJUvCajgJT1ZATEikUtswwmI3wUaWA6sODmqxKwQQIrdExC4ZUExSds5ajLr8GKv9Ptu4mTw4cq10CY26GccqyX2zyr/cPq8JIHBlvBrZNWuFqh7XYS73Hg0g9GPYrwOEzbAfm20ObEnIyhDTMgqL4Y9rcTk8tnVx8iWtYJTRaOCIBZvLrFsOargBGkCQELsEFFPGDbUg1GratfzOrqUuqeVYJKtaKfRajVPav1qPpwOEWn0yKoxzDyCQBcGtuxgek9i/Ua8hToKcLyCf0kCCQtUatavP5vHll26xXBgCoGgFAgcWp8CpoGt0N/hG7dtGTVYHCLW7bG4EQHicyrjaM/Y456RbEKrdlSr66QChCiHpXTj7YbGgQMzIDBYoqZJWjZEoBvSF+QSEtAgK+MuHC0aBoxPMVhOIkEh8A7IirJY78QRW8o16pQ4QdICw2gOrA4TVSmyT9NcBwibZiG/CNLhSpYqiXISULUIma0KhyJEObNcnoHBPG2vam0s51wA88PA8YmkwIlBp/0YJnchiQGmTzXaBAQIBhVq895uwLY97jjpA0AHCas+cDhBWK7FN0l8HCJtkI75B09D8uZQUUYUsFVDIK1CK5HoA+6P5R6XfaTyA9Spq5hsuMuUNJm08Hpf+YzJAsJDVQGCAQJW3a8U1+gZtyWOdqg4QdICw2gOnA4TVSmyT9NcBwibZiG/iNNiyr4EF+h+lCCgFzfVAaZvJJWGqUUKi0hcMAQIj/RiN/E+yHmhVxdcPRL6JW/Ak5qwDBB0grPbc6QBhtRLbJP11gLBJNuIpmIYW7lYiBiy6F2q9rnvuCh0Q1Fq01Y6nAwQdIFR7Vkr9dICwWoltkv46QNgkG6FPQ5fAN0QCOkDQAcJqj6oOEFYrsU3SXwcIm2Qj9GnoEviGSEAHCDpAWO1R1QHCaiW2SfrrAGGTbEQNplHiAmhGfoo/fDjFXQ3CCWowT32IxyWBpftfCvfUQlPXQ+TUAYIOEFZ7gnWAsFqJbZL+OkDYJBuxjmkQw5+IgUWZogqIHFhi/Ru0zGpaVqN1vEF/9BspAS2l5D0Cp5Yngopm0Q+RPBdzXa0yzEQHCDpAWO3nQQcIq5XYJumvA4RNshFrmAZ99xcLlOVQgZQ3QJYFyLIFhYIAKFS0xVCiDK5hdP2Rp0IChB45P4WGEY3GIsxmCWaLCLNFhdUODg+liJBqmw4QdIBQ7Vkp9dMBwmoltkn66wBhk2zEaqbBVRJVSKKCfMYIMW+BJNuhqDYoqgUqqMQmx/6tZtSyfe+lJ1rMWLi0M1dtvAdFNn/mwnJroWVQ6KbWnra1UIrsAgyQYEQeZpMIqy0Lq1OBzVmyKFQ+MzpA0AHCar9YdICwWoltkv46QNgkG1HtNFSgwCmPVWRTAkTRhYLqggIbAM1qUEtgYFINMJsEWMgevag3KQfBAz5sRUW+IMNEuQkMBlBOo3xRRlEtcqXnTdFUKjdtgNlo4h++U6vgOT+8FrEow2AwwmQwQjGokIoyZGUTrYV2WjVAMJp4X3j+vBZSXEvK/aoqpEJBsxwYjLwXUrGAglqAiqIGFAxZWMxp2O0i7B4FZutD8lhm83SAoAOE1X6mdYCwWoltkv46QNgkG1HNNAgcyAqyKSCbtkGUPFBUJ1RDyWJQzSDV9RFghF2wIOjyoqO+GQ0eP2yChZURA4Ql1gnCDXJBZiVEmiqWTWMiPIupWAgZKQ9RkZ8oUDDRWkwW+J1utAca0eSth91ig2mltRBAgJaqOZXLYDI6j6nIPJJSFvmCBOUJgh6CNlaTGXV2F1rqGtDiC8JlczDQYbDz0L4UiJCyWFI4LeYwG1vAVHQesVwauYIIhS0KOQiGJOz2JNx1gNlGGSlXXqQOEHSAUN23yP1eOkBYrcQ2SX8dIGySjag0jUXLQTalIpN0QJTroMABwFTpyVX9ndwFTrMN7XUN2NrajfZAE5rqAvA5PLCYzYsKaDnlsVh7QVWRymcRSkQxEw1heG4C16fvIiFmUKTBH2Oj1xHIafbUY7ClC13BFjT56lHn9sJmtrBFYXlrS6mOhIpsPo9wMobZWBijoUlcnRxGJJdGAcXHyu+gtRAwaHD50N/UgS2N7Wiuq0fA7YPdSmCnZDl4eG/u18TIiXlE0wnMxcIYC8/g2uQI5tMxiIoEqCIExOFwxuEOoKwlQQcIOkBY7cdYBwirldgm6a8DhE2yERWmQZyDXFpBKm5FXqqHAueiS6F28ycl5LU4sKdzALu6BrClsQ1uuxOCSWBlWm1onKIqKCoKJFnGXDyMG1OjODV8BdOJBYgKmbc3vhkUlYHO9pYt2LtlK3qbOlDn8rC75BEXSZnp0BcbrUUuyggn47g9M4aTty/jbmQWObKMPI7VENAxmtHX0I59W7aiv7ULQU8dLIJFSzldZRQCr0VVUCgUEMskMTw7iTMjV3FnfhIpOQuVQUIELk8S7nojBGF5K4IOEKr/LFQ66Xq550oSWv3fN0W559VP+9EnHieqWmm+OkCoxU5u7BgUrSDmFCTDAnKiH0V4NsRy4Le5cLhnBw717UBLoBE2C92yl/i0V7nMknJN5zO4Mn4HX9w4h+GFKYhUtGEDzfQEdFxmG/Z0DODowG50NbbCabWzMl1PUxQFWUnEralRfH79LK7NjiGvSBsKEdgKYrJga3M3nh3cjf6WTrgdLpiYR7H2RmvJyxJG5yZx/NZFXJy8zS4UqDlYjQvwBLJwepd3NTwMEEr+o83wfbaSRLQCY7WBprVU6rUci9Zey3Wu/XQ92SefOECo1fJLB7ZWB3ct87oHEPzPIelph2oob7J2GPIYtJ7Ezs6zaGhMwkzu72UakaXIH6rV8Slyj/u/U2r2YV3Lmh9+hj6kD+6Bluf/Se7LvTky70BFJgEkEx4UlMAi56AWK9fGKCnUo7078fy2/WjxN8BsFh7wZ6/nbSTHdC6LS2O38P6l4xiPzW+ou8FpsmJ3ez9e3H4AWxpbYbNYq7Z+VFonnWdREnFz+i7ePfcFbi1MQmZa5sY0u9GCwcYOXstgWzecNvu6QNvDsxRlCXfnp/DhpRO4NDWMnCLChDTslhn4GlUunf2wgaIEEBKXDSikjFgKEDbFZ2aZraj1vKq1plVzKmo5Vq3XWc38q+1Ty3WWe+dTAxCWIr4ns7EGFA1mzNkGMBKoHUAwGkxwWbywCy5IioislIJCRnGzBxaTFflCBrkCmTSLrIQVEIAghrkFJgIolW6tZCZVCygU6fa29lsBzdMikP9WgFQUUSiKMBoFWEw2NtuKhRwKilz2/NOhp+cJ/KhKUWPurzAnra+Z11hUC/xTad/ZepBREA+bkZcbF3kH67k7Procm8GMnW29eG3XYfQ0dcBqtpRdM825UCyiWNAsAYLJBJNpkU2/wpP0TDyTwombF/HOxa8QlzIbQly0GAQMNLTjlaFD2NbRC4fVVhEcFIsKikU6i4BJMGprqfCtR/7886M38NaJDxHOJzdkLYLBiE5fI17adgD7erbB43CVXQvnxaB9obWASm0beW8qWU4IJJAb6FcnPsREfAFFgwQLQnDXJeD20/MPSuM+QDCimDI+kLCTLBOVznS1CuXb1K8WynOzyr1kJanFGqs5EzpAqEZKVfbRLAi1AwhkNbAJTmwNHkCjqwNJKYZYdh5FpYAWTzfsZhfCmRkk8hEUVBk5OY1YPsRfKj3+HQg6Wu4BhPuMbAIBmjWC/ldRi5hLj2M0dg1yUby3UmKem4wCBKMZpPypUV8CE0XyF1PSmMVGfZ1mNzp8A/DYAphM3EEoMwmPNYAu3yCDhLuxawhnZ8qCBHpXo6sTHqsf8dwCwrlZKIrGHCdQtPSdZpMV7Z5+eG0BxHIhHpvBhKpCVmXIxfwjX66UCImsB4moGzIaau5aoHC5RlcdfrDnWezr2c6cg5U+yKSAyH+dSKQwMxdGOBJj5dDY4EdbSyM8HmdZZVRUipgOz+N3Zz7F+clbEBctS1Ue1YrdSI35rW68sv0gnt26l8mI5fzzdObyeQkL4Rhm5xdQkIsIBuvQ1FgPl7O8S4KeJcLf709/iq/uXEJOLQ8kK07+oQ5LrTqv7noGDb4ARyms1AjkpDNZhEJRhEIR5CUJPo8bLc1B+AM+WMgitAJXgT5X6VwGH138Gh9fPY1EIQsDMrCbJxBoNUEwVw8QGPArG2dRWa0c9f5PXgI6QFjHHpR8Rk8K/dUaIAhGAY2uLhxo/c49ZU83cbIakPKlw0IKVCzkGRgQWBiJXUVBkfBC90/gtdVjLjUOSuniNLv4lq0oRQhGC8Rinn2vze5OTMZv48vx3yMrp1j6BAycZh8anW1odHfAbaljE3lGTiKUmWJAkRKjrOzp96Ss6x2t6K/fA5fFh9uRC5hJjaLN04t+/25+11j8OiLZOSTFqKa8aVYGAywmO4MQgisWoxWD9XtR72zBbHIcU8lhCCYzW0ci+RDEQuae0neY3TjQ+ir8jiZEs/MwmyywCpTgqIhQegJ3wpeQkknpliICwFkSExEB2VwQRbhrmuOA5GYzmnGoexu+u/soRyzQ7bmcEpqZDeHshWuYmQ1DzEvI5fMwmozo29KB1145Ao/bVfbTQDfvc6PX8cuv30dUzNSUi0DWg6GWbry++yj6W7pgFlbwfy36anM5EZev3MLla3cQT6T5nFmtVgz2d+HQ/h3w1XnKAgwKIbw+NYq/++SfEcqnaroWCjPd4m/C93YdxZ6ebWWtOmydSaRw6fItDI9MMlDIixIr6saGAJ4/ug9dnS3sNlpxb5UixkMz+LuP/xljqQWokGExTCLQJMHqfJCUV86CoAOEdSiDp/RRHSCsY2OfJoBAB4GU4O6mF9BVN4ikGEPQ2QYLK/cc3+KnkqNocXfzDf/mwlnMpyewkJmG2WzD671/xUDg8txx2M1OtjhIxTxEOQunxcO3bnIF7Gw+irnUBD4ZfQsZKcHPkILu9e9Ck6t90b3hZvCQLaT4XQuZKdyOXGSgQPehRmcn+uv3ot3bxyb/qeQIphJ30Ozu4p/JxDBbACwGC4ZjlzCTusvWCrIsDAb3o9HZAQJDBExojTS/VD6KhBhha0k0N48b4bM855IVwWWpw3d6foqAsxFSIQe5KCGUnoLH5oddcOBO5BKuhE7w36gRTshnFMTmzRCVNqgob/pfyzH0Cnb85MDLeGZgF5x2R1neASmcWDyJ6ZkQCuReADA5NYePPzsFp8OG//jv/gW6OlsfMUkvnRdZEcbmZ/DzL/6IO5FpTkRUq+Yy2fDa0CG8vOMQRyyUM2mSi+Tu3Wl88PFxXs+enYOcDfLcheuwWiz40fdfxI6hPths1hWnR5/dhWQM//Dp73B55i4KBk0mtWgUtXB4yxC+v+95NNXVl+Ud0Dyy2TymZ0NIpen2DwYMXx0/j0QyjTe++xwO7h+Cy+UoK5NENo23jr+HEyNXkVcljmjweiMc0bDUzaADhFrs8LdnDB0grGOvnzaAQDyDocajaPP2suL12epZQZIiJ94B3egD9kbODx/LhlgR34meh01w4fW+fwOb4GBlTM8FHE1845cLIqyCDSkxhrScRJunB1OpYXwy8it2UfgdzdjecBhNrg4kcnT7UdFVtw2zKXJDXEWLuwsNrjaMx27hWugk0lKC3R+7mp5lFwPtAc0vkp2FzexkwDESvcJ8iWZXJ7sNrs2fQjQ3x1yDBmc7vNY6Bh5moxVd/m2oswcRzsxiLjXG1oeMmMBcZgw5OXOPk+C11uP7g38Nvz2IhcwkWwwmk8NocXXhaOcP2OXw4cgvkMgvaGxkhRIiKYiF7JDVFqhY+Qa4liNIlpQWlx9/fvg17OoegKXMjbs0PgED8nHTh56U7NWrd/CPb70LsyDgf/6bv0B7W3NZgFBSqu+d/xJf3L7AoYK1aKQUAzY33tz7Ao5u3Qu7ZWXFTu8jy8fnX57D8RMXGAS8+vJhjE3OslIlt8Ozz+zBD773POrqygONdD6LTy6fwjsXvkJayddiKazgPWY7Xt56AK/vfQ4uO+W7KN8IvNHeaKRgFTPTIfzqtx9iZm4Bb37/RbaIOJ32sgCBuAinbl/Gr059hIiYglHJwGWfRF2LkbkZpaYDhEq7of99qQR0gLCO8/BUAQTK8iY40Onbxkq83tEEt82PvJxh/7zJaGZFT+RCAgpNri4kxDA+Gvklm+xf7/sZm/7vhC/Ca69Hs6sDkiKxmd4huBHLLyAjJdEf3I3Z1Bg+Gfk1WyV66nZgd8sL7EK4On+SXRs7m59ljsK56U8RJADReJhvYVfnT2AsfoO5EDsbj2KLfwe7LQjM0F4YDQKTJpNiBEYY4bb62T1yZuoT5iTQ+wiQNLraYDU52IrQ6u2F3xZESkowt4I+EPFcCBfnjiMrJ+6dDp8tiB9v/R/gtQdxO3weJyffR1qMsRze6P8ZsnIaH4/8E+YyE+yioGjAbFJFLELplBuh1jgpEpmxidD34wMvY6C1i/MdVNuoemRoIYJ33vsCN2+PYWhbL370w5fg85IbZOXGEQ35LE7cuoTfnjmGxKK1pNr3rtSPYmbavUH8cO8L2Ne7HdYKYCedzuA3v/sEV64No6ujGX19nbh89Q4mxmdY0W7pbsW//ukP0NxUX1apSgUZV8Zu4799/gdEpdQ6KLP3V0Zrqbd78NqOw3hpx6GKYGepTEi+yVQGJ05dwsnTl5kX8sZrz6JnS0dZFwONQfke7oam8X9/8BZms1FKmA27cQT1HeYHeAg6QFjvaf12Pa8DhHXs99MEEEgMpDS3NhzEQGAPAwQCDMQvIOVJJnqxkGU3A7kWnul4A4pawB9v/R0MBhNe7/srGAwCLs5+AY+1Dh3ePuQLlN42AzLP0w2f3Aa7m59HKDuJY6O/gWAQsC14GB2+fkwmbrPyJ8DQ6u3BcOQirsyfZJcDWQuaPV24HjqN6wunmXcwUL8PDY4WdmfYzW62LGSlJFslaL7kzqB52MwOTMWHcTd+A3Ixxy4FIjJ67Q2wmmxsEXGQi0GMstWC3AzEe5hK3OYxSs1nb8Cfb/9fGJycmf4Y52Y+5fEanB34Xt9fQirk8fnYbzGbGWeeBhEUswkDEjEPZDVIvPQVTxqBHJvZDDPzH8CJfSjvPpH0KMteQSmCfOZLDfpmGLG3Y4DN2F0NrZzbv5pGZzYSTeCzL87gyrU7aGwM4LsvP4POzhYIQuUx8pKIC3dv4h+/ehcxKf2IUiUyHil4zaJBlgrirJClQas/QG4KWt/StVDcQX+wDd/f8zyGOvthEcqDnWQyjZ//8h3cuj2GwYFu9tmHFqJ8yw6H4/B5nPgP//ZP0NrSWNFlMjo3hf/y/j8hJCYeWQuBUpqLTaBQS/A+0FoUVYXZKICSShHIWBr5QgChxV2P7+18Bs8M7uZ8FNU0toRlcrh45RZOnbnClp6jh3dj51AfXK6VyadLxw7Fo/g//vDfMZUOQ4EIu2EYwU4dIFQjf73P8hLQAcI6TsZTBxAEB3Y1PovB+n1MOCQiHoX+SYUscoUcE/7G4zeZd0BmdVKE797+B2a/v9H3b1jREhAgxey2+iBxvvgiAw0y25ObosHZionkbXw6+ht2SexoOAK3tY7BQa6QwbbgARSUAq7Nn8B0ahR+eyMDBHINXAudws3wOTS5u7A1uJ8VPFktyJ1AQIZcBvSlTW4C2htSuGQVuBo6idnUXRSLMs+FIhEcZg+DCwILRDwkPsHN8FnEc2Hki1lIxdwDUQlkQfjJtr9ha8XnY2+zRYIsBc2ebrze+zN2c3ww/HNEibdA5XTuAQQvZLV+RYBACrXZV4+9nYNo9zex8qGc+yOhSa45UOd0Y3h+CuORWVZQpWY2mLC/YxDf3/ccOoMtbEmp1JgQF0/hy6/P49KV26irc+PlFw6iZ0s7++6raaIkcU6E/+/Ldx65dROgCbi82NMxiJ7GNgY44VQcd+YmeOhGrx8TkXncmZ9gAFRqJWsIAQQKb6wIEFJp/OMv38X1GyOoD9RxdAaREl1OB4ZHJ/if//5nP64IEMi0PzY/jf/83i8w/xBAoC9Gj82BHW192N7Ww0WiErk0bs+Nc8Kldn8D5hNRXJ0ehViQ7q2FAEKbJ8gA4fDgLk4LXanRvuRyeSZcnj5zBaIo48C+7di1YwBer6tiqGNpfMoW+b//7u8xuQgQbBhGQ5cOECrJX//7yhLQAcI6TsfTBhAsJgd2ND6D7rqtrLxJ+Wq5BCguwcBm9EQuDKPRhEZnO+azU/hq7HcQTBbNxWC04FbkAlrd3ex2oBs53bgJbMRyc8jKWexoPIS5zDgDBOozWH+AIxs4bFBV0e3fzlEO52c+ZXIk8RGGGo5wtMCV+a8xHr/FgGJ78CB6AjuZIBjOzrELgsiG5OIgYEEAgNZB7fzsp+zWoDFsZhc6PP3oqtvK0RJ1tiADhfnMJM5Nf4b5DCmANIoPhb5R+CfNg+RwK3qe3QsUEdHj34n9bd9BJDONY3d/w1YMagwQkgYtxJEtCMsrcKtgwUBzFw50b9Xi9w0G+J1eBjokj7lEGKeGr2LsYYAAI6ci/tH+Fzn/AcXMV2p0Q/3qxEWcOXeFSW+vvHQYvT0aOKgmzpmAD/n/zwxfw1snP0RMzjzwSrIQdNW34Nn+XRyFQH7xRk+A10VpguPZFM7cvYYbM2OQlwAEsiB0+ZvYxbC7e7AinyKdyeA3b3+Cs+evQ5YLCPi9eP7ZfUxYvHFzlNn//+pfvlHRxUDWjZtTd/H/fPLPCIvJBywIdJ6aPH68tG0/3DYngwMqrkRrJKCWk0VcHLuJcxO3eJ2lRgCh0enDd3ccwfPb93Oip0pNkmRcvzWK419fYBfDwX1D2LNrAD6fp2pwQOdlOhLCf3r3F5jOhCklFGy6BaGS6PW/V5CADhDWcUSePoBgZ+vBYMN+BOxNsAl2BggZOaW5C+QMWw/IGmAR7JpFIXGLgcH3+v41JxKiaANSzCkxjsvzx9HkbEfQ1co39IyUxtGuNxgMHBv5FVsK+gK7OaySrBUUPkljXps/yRELdLMni0LA2YK70WsMEIhfIBitaPX0YH/Ld9Du7WUuBN28SbmemfqISYpEKtzReBgOswvnZz9j8iQRE3vqdqKvfjfzD6aTowg4mtHlHeCIBuJJEFC4MX8GC9kpdquUzMekMGxmNzsKyNJBZMgW9xYcbH0FZsGKy7PH2QJBkRvUKJw8l1IRXXCgoDavCBDo5u9zuOF3ePgmShYbn90Nj93F76bCSXPJCCukpeG0pIg6fQ34F4dexVBHHxMNyzXyzY/encKvf/shwpEEfvjG8xja3ge73crhkRRrXy5MksZmC0QmiU+vnsJ7l08gU7yvGOnvJCO6dQfddVximRSn1+6CbzG9cCQdx3Q8jLRIibbuOxloLQ1OH5MUjwzsqpjsKZcX8cXxc/jwkxNIJtI4dGAHDuzdjs++PIuJyVns37sd3331GdT5ypMUc1IeJ4jYd+Ijzh+wtBEQdFpsXCCqxL3w2J3wOd0gUEdRA1TxMpFLaWdvsdFzPosDr2w/hO/uOcrJnso1smJQTop3P/gKV6+PYPeOATxzaBfqgz7eU4F/yieyovEJ7FBK7H/44o8I5WIwKHk4rHcRaDPpJMV1fMd/2x/VAcI6TsDTBBDoi43i+gcD+/lmTlEIdPunDIUJyiWgkF9cxHRyBLPJUbT7+vnvY9HriIthvNbzF3BY3ZwjgBzpdyKXEc3OsTvA72jk/0/JlQ62vcphix+PvKVFMdibsDV4kKMVMnICY/FbyEkptipQyCKRIykR0q3wec69QDcluvlvaziAPv9u/xJo/gAAIABJREFUVqLEc3Db6tgicWH6c9yNX4fX4sdgcB9bQTSAMMoAZqjhEJMbCYhMxe+wxSLobMV8epLdFPTOlBTH2elj/AwRG+/dDg1GBgZkqWh192JrwwFYTVbcWDjLwCgtxikVFHfnMMe0guicBRIozHH5uH6Se6loDykaOlPkdqDCRNTopk0RB49keFSBgNWFf3nku9jfN1TRlC2KEk6cvowPPjyOdDbL4MDrcbHlgW7gA31dzEcoBxJImU1H5vHW1x/gyswIpGXSFBNIoPmX1kJrM1NGQBggF4sMCpcq1JJsvWYHfrD7Wbw4dABOW3nmP/nnxydm8fYfjuHu+Ay2DXbD43GxghVMRvzkzZexfWsvrNby5v1YOolfff0BToxcg4hHIzKYA0Kum8VCSbQ2Ln5lNGpcigKt5dHEQpQu+oX+PXhj//NayGaZ3I4E3IZHJvDOB18ygCPSZXNzEBarGW6nk3MgdHY0w24rn1Uyk8/hnXOf46Orp5BR8jAhAY9jHt4mI4ym+8mSdJLiOr7wv4WP6gBhHZv+NAEEEgPd4pudXZxdsMndDq8tyMRCshoIJiuCzmb+gk9kQ2hyd0NWRJya/JAV6mt9/woNjjaIxSwKRZmfo0RJlHuAkg+RJYL893W2RozHb3BIIEU10E2ezP7k0qBkN0RmIyXd5RtgUDKRuI3Z1CgrX8ptYDXZ2epAJEVKAz0cvcwWjqHGw+jxDzHo4HFNFjgpeiK3gJNT7zMHge55DY5W7Gp5nrkQ5DqxGG0cAnl+9kukpCiCdiL8WTCTHkUiT5aJ+35/+n2Hpw9DTc8wz4LedSt8AWOJm8iKCZ5fqXGa5ayC+AKlWW6CAvuqEiWVvtLLZRogRUSZB18aOoB6D4VurkyEJDM28Q6+PnkB4UgcZouZCXyk7BqDfhw5uBt9veXZ8uTrpzoGf3/sbcxn41BWUT+J1lNuLTajgENbhvC9Xc+grb6pIqeCrAg3b93F16cvIRKOg7IROp02HNg3hL27BhkwlHObEEiZCs/h/3rvF5hKR2qabtliMGF7cze+v+c5rt5YLsKEwc7kLI6fuMgAgQAmWQzI2kVr2Lm9Dzt39DOYWzlLpsplrf/rB7/CregkFFWG2TCHumAaDo/xged0gLCOL/xv4aM6QFjHpj9tAIFuOgQESFk3OtoRcDQiJSYwmxnj2zf57SnbIR0aqShhKkHRAVc5vHB/y8tMFhyNXuMERyUTsuZXp/8aOaVxd912xHLzuDD3BUdFaH+mDppKNMEEq9nBQIAABrk1yHJRuplT7QQiDFIIY1ZOsnuBRujz72JgQZkco/kQu0coIRLN4070IoMAuu2RlYEsEERWpBsiF/Ap5jhPA4EfcpdwngBF4qRJSxuFThIR02cP8q8ZjIgUMZF/ABxoJgQq1KQgHTMilaxDAf6ykQxrOYZE7iPf/U8OvIRt7b0VM/ZlsjmkUlnI8v3bMmemtJjgcbvZ3VBOCUVTCXx46Wscu34GGeVB98Ja5v+gbIEWtx9v7H4eB/t2VDTN076SVYSSCeVFEaqiwmI2w+N1wWGnVMvlKzJk8zl8dvU0fn/+CyQX3ULrXUPpecofRXkdGLztPMQpsFdqtA4Cb6lUBvm8eM+6QrM3CiY4HXZOHU2uhpUauXLO3LmKX536GOE8heYS/+Au6tuNMFv1VMu12tdv4zg6QFjHrj9tAKEkClKEZJqnmz8pSS3cj+o0OGChkC8YtegGmdj+eXI+wyl4WcdrloNHs9LR15TJaGG3BI1Jyn1prYOl26ABBk3JLlc8iQAJ3bDodk8/9F6ryckWEIo+oCyHdJsmkEF/LFk17n2BLwKS+7fa6svJ0tpLykcjEi6igWXOESmtbFpFPGSDxDyEyoz2VR1HFXALdjw/uBsvDR1Eo6++bM7/Emh7uHKuhs20KpjllNC1iWH84qv3MZuJQKlUEWlVC9E6U/XDA11b8erOw+hsaKkqt4P2GdT2oARuKhEuOXphYQZ/+/E/YyIR2pDqlGxFaOriNNiDrVsYvJRr99expNfix6CSJWQ+HsY/fPp73Jgfg4QCBDUGp3sedQ3CA+4FGlm3IKzhYH6LH9EBwjo2/2kFCEsV6YMK+kFv6tK/lf5SqUJjtf1Wvy3ayMvNt9KcVv+u6p7gAkmSgmTEhHSmDkX4NqRgU9DuwRu7n8XB/p3wOKqLma9uBVovNoMvzODt08dweWoEUg3TEj8MDP02F14c3McFm4LkNilT5Gg1ayj1pc/sQiKK357+BKdGryGvPmglWsuYyz1Dp5EyKh7ash0v7ziIFn9jVZEmq3k/rYV4FB9ePI7Pb55HUs4CBgk24wR8TQXYHFTk6cERdYCwGgnrfXWAsI4z8LQDhHWIRn90UQJaymUV8bAFUqEBqmF1XIRqBGlUtEyEb+x5Fju7+uF2uMoWKqpmzFIfcrtMh0P44OJxnB27gXRBrGlho4fnQhUqgw4vXt5+AIf7d8Lv9pW1iqxmLcQ7IF/9J5e+xpe3LnHkQu2qSTw6E6MKeC1OPNO3Cy9s34/GusA98ulq5r1c3xI4OH7jPD6/fg7zuTiKVKRJjcDpjcJLNRhMj5JEdICwXsl/u57XAcI69lsHCOsQ3rfoUeIiZOIqUgkXZLWh5q4GOocCkTtdAbw8dBB7urfC7/GuSxnRmJQ1cTIyh/cvfIVr03eR5qqYG9woZbZqQMDuwbMDu3GobyeaSLEK5qpyNaykTCVZxkIqhvfPf4UL47cQlwkcbPBqKPKWQYKD81w8u20vEzBt5pW5HpWkS3Om6IlYKoHPrp/B6eFrCOUSnLfDpCRgt4bgazbC8hD3oDSuDhAqSVj/+1IJ6ABhHedBBwjrEN636FE6J7KoIB03IJP2oqAGVgx7XLNYVLBi9dvdGGrrwTMDu9ESCMJhsXM8PYUeVtMonj4vS0hm0rhw9waO37iA2VQMMpXurm6Ial5Tvg+vBfBanRho7sDhvp3obmyHy2ZnXz65HcqFDt6zflCaZ1kGhQBen7qDz66cw2RigasdbjA0uL8+AgkgrogNW+pbcbBvCAOt3fA4XZySmsJKq1kL1VqQZAkZMYeR2XF8ce0CRsLTDNoUFLg4k1WYhbdRgd25ct4EHSCs/3h+m0bQAcI6dlsHCOsQ3rfsUWar5wkkGJHNeFBQ6xYtCbVl+9FoRJDzUhrpYDPXNqBaDW67g8mVpf8sFb8Wy091E2TMxSK4NnUHNybuIpJLIi3nNUJibadZ1e7TK80wsS+/LdCAbe09nDWS0k9TfgL+8npoYqW8BEREpCRTN6dHcW1yBAupBJJSBsUnuBbKBkFAgVJrD7Z2o7+lC/UeH1t6yq2Fzg5FkNyZHQcRRWcTEcTEzGKJ6iJMSgoWUwjeoAK72wRDmQiO+wDBgEKKcjzc3wqS2dIEVlVtkt7pqZcAA/JyDOYaSsDwwx/+cE3gvZYTrMVYm+GDVDSYMWcdwEjgOSQ87VAN5dPtOgx5DFpPYmfnWTQ0JlGBWF3DbdeHIgmwJSGvIJOg6AYHZMXPnAQtDXONNbAKCJR+2mThzH8cpUCuCFKsS6wJNKesmOOIAcFohKwqSEt5SIr8+CwGlY6HCpgMBthNFtgFC0fR3F/LfY1Pa6HsiFpCI4q0ATJyDvni5loL2T9sJgF2wQrBYOK1aMmyjPfCfdnFI4sMgLjIlUFFVhYhFmUUDQqH/RogQUAcVnMC7oACm8MEw5KkSMuJtQQQYpeAYsqIUgKIzfB9Vu4YbPb5VTrC1fy9Fnqp9J7S5bWa95br89gtCGsFCOtdaOn5Wm5Crea01nGKBgvmbP0YDjyHpFsHCGuV4+N8jiIbirKCXFpBJmWCLHlQVN1QDZYlQKHGYIHRibbKUkjjvc+DooLyNN77/Qa8upby5UiVMmsh1blY1KLmmKuW6+C9eGQtpd8Sd0FdTB+++DveF7L0EDAowKRmYTbFYHNJcPpMoJpQ1Xy3PQwQlkkEWetl1mQ8HSCsToy1Bgire/vae6/ZgrD2Vz74ZDUfolq9a6PH0QHCRkt448ZXFBUFUWWgkM9QSWeqe+GEqlLufhOXx9Lbt1wCi/VFNIhAwECGyZSGyZCGzVKEzQtYbMYHai1UkpgOECpJ6Mn9vZa6SQcIa9zHWm7CGqdQs8d0gFAzUT6ZgVQq6qSVhpZFFVJW+ydlnNYAgg4SnszGbIa3qlAVSgKmnQPyPggWA6x2wOIwQjCDuQar/T7TAcJm2Nvl57DavSy3Eh0grHGfa7kJa5xCzR7TAULNRPnEByJTbymb3oOZDsmergOFJ75Bj30CJarW/b03GIirQGBh7edBBwiPfSOrfmEtdZMOEKoWu+5iKElAJymu8dDoj+kSeEokoAOEzbuROkAAdA5CDc+nbkGooTD1oXQJfAskoAOEzbvJOkDQAUJNT6cOEGoqTn0wXQKbSwKPehnWPT8dIKxbhBs2gA4QdIBQ08OlA4SaivOJDsa8Awpto0g2qmLJ//5Ep6S//AlLgGpHEEdRS49goKKpXDl1sfjmmmanA4Q1ie2xPKQDBB0g1PSg6QChpuJ8/IMxENCiGIoFqppIORKAYsGAYtEIlVIYLgnrf/wT1N/4xCRA50JRYDSBSzYLggqTWYVJAEwmwGTWyIqrTXCnA4QntqMVX6wDBB0gVDwkq+mgA4TVSGtz9VUpD4JMYY2AmDNAzJpQLJqgqlYosHLSJFXVAIIe8bi59u6xzIYtSFoKbINRgcEgwwgRRoMMq1WBzVmE2abCZDFqkQ1VBjboAOGx7N6aXqIDBB0grOngrPSQDhBqKs7HMxhlUiyqkHKUTdGIfM6CYtGFIpxcwGn5/AdVfvuvsAKOpGd3Befue6SXhkEM96obEi7ZrI3WUXl62jpZx1bu/MSWen8tSye5dH/uh7iqvIFaJkWjmodgTMJiycPmLsDmNEAgi0IVKEEHCE9suyu+uJr9qzjIYgc9zLFaST3Ur5absMYp1OwxHSDUTJSPZSAtzbKKXAbIpgSIkltLswyqlVDbUomU799ENQmMRq7FYDNZuMDRckUdZbkAo9HE9RfyBQlSoYAiFFDho81AgyDwcm8tJjNsgoXrE9DN+eFWKBRgMJhQUAq8FrEg81qKm2otBq6TYTWZuaKj2UQVKqkex4PEk0KxyMCN5k5rydNaVFpLAaAKjmoOgjEGhzsPhwewWI3MVyjXdIDwWD7qa3pJLXWTDhDWtAXV5Stf49CP/TEdIDx2ka/5hQQOCpKKbFJFJmWHXPSx1YDSKteyadUcBXhtLjS46+B3uOF3e1Dn9MBqsXBRJuOSmyaBgKwocrGgdC6LSDqBRCaFcDqG+WQceUVTsE+ilao5um0ONLjqeA0Blwd1Lg8cVvviWu7PjEh9OYnM8AZkxDyi6QTi6RQimQTmUhHkChIKT6j4AK2FQI7LbEfQ6YPfVVqLFy6bAxbB/ICbgNYiyhIvjspvx9JJrugYzaYwn4ogI+W5BDeoYJMhBrsjBZdXgdVeHiToAOFJnOTq3qkDBN3FUN1JqbKXDhCqFNST7kbgQFaRSQCZpANSsQ6KwV5TqwET3GGEx2JHR10jtrZ1Y2tbD5cTtghkPdBKtj78JcSGeEVlUzzxIogYl5NFjMyO49LYbdwNz2I+HYNUlB+ruZ5KIzsEK9p8QQy0dGFb+xY0+4KwWTRLyL3yyEuMCNpayK2gauRPRYEkyxgLTeHy2G2MhGYwnQpDLEiPdS1kzbGbzGh2B9DX3IltbVvQVt/EIMdkMnGlSo5NeHgtRGJdrAJaVIqQCwVMR+dxZewORuYnMRkPISPnoRpkmAxx2O1xeOoUWOwruxt0gPCkvwxWfr8OEHSAUNPTqQOEmopzwwajKIVsCkjHbBALgQ0BB2aDgKDLhx1tPTjYuwOtgQbYrTY2xa+2cVnqgoxENs2K9fTwVQwvTLE14XH49KkEst/uxtamLhzsG0JXQytcdgcEk0lTpKtotJZCsYB0Posbk6M4cfsybszeRY4AT229OsvOipS/x+JAX0M7DvYMob+1Cx6HC2aTUBVnYOmgGugpIpPPYWRuAidvX8GVqREk5SzAICEGlzMGjx8QrMsvTgcIqzg8j7mrDhB0gFDTI6cDhJqKc0MGo1t5PqsiGTUjLwZQhLumlgOatNlg4tvpoZ7tONA7hEZfPcyCsO71kEJK5bO4Mz2GTy6fwq3QBPKqvKG8BLIc1Du92Nc5gMP9u9Be3wSL2bxqYPDw4mktZKofC03jwwvHcWV6BLkNBjxkOfBZnQzajg7sxpamDtgt1lUDg+XWIhVkzERDOHb5FM6MXUdKzjNIsGAenro0nHVGDo98uOkAYd0fiw0bQAcIOkCo6eHaKIBgNJA52rhYPIiIaiqMBu32pi6S15ZfyPIs+Qf7VtOnOjHRHEtzIgXAhtpFlhbNc+Ua8othYWzCrZ6Gp41v0ORSzXPsWlCQjhmQSnkhqwEA61fcS6VD5PZ6hxdH+3exEiJwQDftWjVaZ1bM4+bkKN6/eBx3wtOQ2Pdd+0Zr8Vod2N+1FS9s24/2YDP75mvZiLQ4NjuF35/7FDfmxpHfoLXQ8XAKVgy19uDloQPsWrBZrLVcCltGpsLzePfc57g4NYxMUYRBzcBunkVdU5FLQT9scNEBQk23oKaD6QABMLz55pvVfyPXVPxP32AbARDIv+uzBuGwuCEWckiJMVK18NoCsBhtyEpJZAopKCrVJFaZUU1KxGKywUix++UUJ7tZDSgqBchFcdm+mi928eZTRhELRjOcFg/PKSMnkS9keQ4ui5dZ7Bk5AamQ05j4zGDXjh2NL5gsMBst/DepmNfWUqHRh9cmuGAxWiAVRUjF3L0qiwqDkUeJfGw9yKiIh60QC41QYKt5ZUa7wYz93Vvx2s4j6GhoYdN1NY3N1cUiS0WLbljZdE99k7kMzg5fxTsXvsJ8Js5+/lo3q0HA9uYuvLbrGQy0dsNqpuiO5RvNSVEUFIv3gSDtkclEeQE0vsVKTZREXB6/jd+ePoaJ5AKf71o3M0zoDjTj1Z2Hsad7KxxW2vvyrbQe+iefVQMlSKK9WdkXQpYEsvC8feZT3A5PoqDKEBCGxxuFO2B6xIqgA4Sni6he7vNR6bxV+/daApdK7zT86Ec/qv2nsdJbH/r7yjfLVQ70hLvXGiCQ8nSY3djZ9Cya3J3ISWmEc7MoKDKaXZ2wm12IZUOIS2FWrHkpg4XMFGRVQnfdEFyCB4VFwEBWiPtgQYuxp/HNRjNi+TDuxq4ySCg1slCYjAIrblL0BBLo7/RDIWuaEteOjslohs9WjzZPD2yCE9PJUURz82hwtqHLtxVGo4CF7DSS+SjSYoxBjqxogMRkMCHgaEHQ0Yx8MY+Z1CjycqaiRcBssqLTOwiPzY94bgFJMcrvpnklxRhycmox/Oz+oWBiYhxIxr2QUV/ziAWTakCbN4g3972AXd2DsFutVZni6fwnkmlMTc+zTDvbW+ByOcoqVSL8zcXDeOfs5zg1eg05Va7p6TeqBjQ6vXh1xxEcGdjFfvqVvpgoIkQUJcyHwlgIx5AXJQYLZrOA5sYgmpvqYbFaVmQr8PqzKbx3/it8ev0M0ooWLVCrRue8zuLEcwN78PLOgwi46x6IHFnuPRRqGonGMTcXRiZLwBZw2q1ob2tEXZ2PgcJyjS08+Rw+v3oW7176CjExAwNysJnHEWgxwPwQF+HbDhCWI+rWat/XO87TopfWIwfDj3/84ycKEGoVH7oeIdTq2VoDBLqVt3n6sK/1Jb6JkwKkuGuxkIHN5IBYzMNqskJWZUwlRhDLhTAeu4Eiinit5y/gsvowlxpnRe+x1jFYKBRlWExW5AoZvmU3u7sxnRzBJyNv8S2fQYPJCq+1HkFXC1yWOjjNHhZRVk4hLVNo1xz/ECghF4LP1oAe/xBaPVtYsYfSUwwQ2j196Kob5HnS++SCyO+6E72MlBjh27tNcGBL3RC6/duQFhO4OPcFK/tSxkLtfNy3OJT2ymH24Ej76/A7mnjdBUWCy+JjK0QoM4W7sWuI5ebvWSNIicl5BfGwgGyerAcU0rg6gl2lc2I3mnG0dyffuJv9DRypUE3LZnM4c/4aTp2+AqPJiJ/84CV0dbUyo75cy0l5XLx7C299/QFCuURNCYtkPdjV1ovv7T6K3uYODmFcqSmKimgsjktXbuPu2AwoX0AqlUEymUJ3ZxtefeUwWpoa2JqwUiPrye2Zcfz3T3+HqUy4poGcZD3oq2/D9/YcxY7OfljN5d0khUIRMzPzOH/pJkZGp3jexCHxel3Yt3sburtbYSXwt8LxIXA0HZnH3x97G8ORGRQNEsyGafgbc7C7KOLjvhR0gGAoa5Gp5vOzUX2eJt20VhnpAGGtklvmuVoDBJvZhe3BQ2hyd7B7ocHVzqFzyXyYb/ELmRk0utpY0V0NnURMDCMrJeA0e/F6/1/BaBBwYfpT2C1udPj6IRbyyMlpuC1ehLPzDDT2tL3ICv2TkX9id4XFZEeTqxO9gZ0IOJpgNtnYOpCREkjkIzCbLEjmI7gVucDKnhRyh7cfO5uOIuBoRlEtQixk2drhtfr53ZHsPARKpmMwYzhyAdcXzvB4XmsAje4OdPm2odHVjkQ+jNPTnyBXSMMhuEGMBnJXpKQ4g5GlbgO31Y/Xen6KOnsTsoUUpEIe8XwYbouP3S+3wudwYfZzdnVQ41tuRkF03gJRaeMsibVufosTf3LgZRzq3wmHzV6V9YBuqndGJ/DOe1/i5q1R2O02/Md/96fYtq2nIneBrAgTCzP4xVfv4eb8BAqG2uVHcAs2vDZ0GC/vOAif01PWmsEuD7KAzMwjlxPhsNswPbuADz/+GqRs//Knb2Boex+s1pVdFLQXkWQc//jFOzg3dRNyDfMjEHB7ZstO/GD/8wj6AmWtByVrzudfnMXZC9cRrPdjz84BeDxOCIKAhqAfdXVu/v/lWjqXwT+f/Bhf3L6IrJKHCTF4PAvw1j9IVtQBgg4Qav09VMvxdIBQQ2nWEiCQ6Y0U/VDDEQRdbSBrgt8WZAVMCjpbyLCSdVvq+BafEqOI5kO4E74Am9mJ1/t+Botgw93oNbhtATS52lEoUva3DCtfUqakfLcEhjCbuotPRn7Fpv2gsw27mp9FvaMZM8kxvmT3+Xey22A4ehnN7i60enowlxrD5bmvEcuH4Lc3YHvDYXTXbWN3QlqMMxBR1SIcFlIuJrZaRLJzuDz3Fb+PeAINjja0+/rR5d2KgLOZ5zYRv81WCOJckPshI6UQykzibvQ60nLsHtHRY6vHm4N/Db+tAbOZMdwMncdU4g7P78WunyCan8cHw79APDfP45G+yaUVxEIOSGoL11aoZSPLS5u7Hn925FXs6uyHuQoyH90050NRfHTsBC5fvYO5+TC7Fv7mP/w5tm+vDBBImUVScXxw8Wscu3EWuRqZ5o0qELB78ObeF3B0656qyHyav77IQIz+eev2OH799kcQRRl/+dPXsXWwBxZLeVBGpvnPrp3F7859hlQxX5Ptocu622zHK9sO4vW9z8Fpo3wXKzeyfozencQf3/sSk1Nz+M6Lh7B/7zY4HZQjwQgL5X2g8M4KxicKSz07fA2/+Pp9RMQU2d/gtIwj0GqCSbj/sA4QdIBQk4O+QYPoAKGGgq0lQKBpOc1ubG84gp7ATgYHpPjJlJ6WEos3agOycpL/vcPTh5ScwLu3/p6VNAMEsx0TsVvw2vys+AkgkCXCbnayNYBcBp11g+z3Pzbya/bZ9wZ2sTWAuA3XQ6fR6OrAUONhjEav4tzspwjYmxgMWE12XAudwmjsCrskttbvx7aGg/z/U2KcuRBk+m/39aHDO8CWhuuhU7gWOo14foHfxcRGswfbgofQX7+buQ5iMccugoyU5L+TNYP4E5fnjuNm+Cyvm5rX1oA/2f438Fn8uLZwGqemPmBg0uTuwvf7/y27NMhtMpceh6IWoBRVZBNAPOqCrDZWBAj0TnIRMPlOpTTHFDmiJdBhhwfXf77fTKoRWxs78eODL6G/pavi7Z8eT2eyOHHqEr4+eRGC2cTmbJvNiv/x3/9ZdQABKsfgn7p9Gb8+9QkSi9aSh480zVuLhNHSBJMy53LFi/UeaG0PrsWAdl8DfrjvBezr2baqyAVSsPPzEXz+5VlcvTGC3i0deOO7R9EQDJQlXtL7SalenRjB3336NiISKdVHGxMfF9dC+0JWlHtJmiim56G1kCoOOrx4begIXtpxkMMayzVRknD2/HUc++w0EokUhrb1MoeCLAYBvxedHS3saihHVKTxScbjC7P4L+//EjPZKAARNuMwgh1mrtNQajpA0AFCDVVQzYfSAUINRVprgEAKsz+wF32BnfDa6mEzOyAXJe12DgVSQcJE4hZmU2N4vusngEHBH27+LYdAvt73VzAZLbg6fwIeq58JhKR8SXGSrz6WnWeAMNR4CHOZCRwb/Q0TEocaDqPFswUT8ZuYTAwzYCDz/+3wBdxYOMMWCwIQpIjp3+n3mgXhENq9/Xzrp/ck8zHmNNC8aVxSUAkxiunkMI8byc2hqMg83oHWV9Bfv4fdAcPRSzwm8RDoucHgAQw1HUE8G8KHI79c5C4APnsD/mz7/wSH2YVTkx/hwtznkIt5NLo68b2+v2Qg9OnobzCfmWAeQlFWmKCYiHtQQMOKAIHTCQtm+CmNsNODoqoimkkgnc/DKgicqz8t5pCVKNpiUbGqFCxpxO62Xvxw/wvobmqvmBBJkgq4cWsEH31yAplcHrt39OOjYydRKCr465/9BNu39cJurxyGl5dEnB+9gZ9/+Q7iywAE4g747C7Uu30MeGKZFBK5NM/PbrZwlsZUXosuKTUiW24JNOMHe4lsOVA1QCDLwUI4jlNnruDi5VtoCNbhxecOoGdLW0XrAb2bkg6NzE7iP733C0Sk9CMUEZo/p3l213FEBSWOovWQlcthsYGOSjpIAAAgAElEQVQiCJL5DIOGUqPgjiZXHb638xk8t21fRWtIPi/iqxPn8fmX5xBPpOFxO+HzeZAXRbgcduYg7NrZD49nZdImvZsA5EIiiv/tt3+HmVycUzDbcBMN3VYI5vtcDB0g6AChhiqo5kPpAKGGIq01QLAKDuxoeIYBgtPi5ds5hSSSFYFu4EkxgYn4LYQz0zjS8ToKqoT3bv8cglHAG30/Y1LjVHKUFThZEci3T0qNfp+SYsjLabR5ejGVGsGno7+G1eRggEA+/InEbeYSkFWAQAXd4OfTE6h3tNzjG5AFYSR6BU3ODmxhkmIPkyGJbEjjy4qkWQUKOQYNJoPAypoIlXfj1/hLtMe/g10aBBRGopdxbuZTRHKzvE6yIHR4B/FSz59CUYp4+/p/ZZeGZkGox5sDf80hgV+M/R4TiZs8Xpu3F6/0/gVS+Rg+IhdDPsQuhmoBAinOlrogdrf3ocUXZGtBNJPkmgglC8Lw/CSmYkSMXAzHZIBgWAQIL1YECDTPaDyJP777OS5fvQ23y4m+3g589fUFSJLMZu1dOwbQ19cJi7m8r7scQCBQRsCA1kIJjuhckFJdSJKrRmGyHqVuHglNQS7ez6XAAMHfjB9wNEZ1AIGJitE4Tp29iguXb6K+zosjh3ejr6eDgU41oVkMEOam8H++84+IypkHAAI977W7sLOtF1saWtkSkM7lEEpGIRZlOC02zMQWcH32LheEehggfHfnM3i+SoDw5dfn8fGxk4jFk9g22IOh7b2YD0XYbVIf8OEHbzzPkSblSJf0/lA8iv/1t3+LWR0grPgty5asKsm8NfyqrmoonaQI6AChqqNSXaeNAgiDwX1MFCRlq1XFy7DCTUtJjiag37V6u5kXcHrqY1hMFnyv72fsBphKjqDN28NKcjY5ykDDbfEjLi4gJ6XQW78LM6m7ODb6a1bg5CogJUvuAS3KoQvj8Vu4PH9cc0H4d2BbwyHk5AwuLfIJGp3t6PQNMkCoszWwEieeQTQXYrdIk6uDgxIoxJHG5Z98iN0HW4MH0eBqYzfAzYXzTLbMSHF+t9lkR69/Jw60v4KMmMD7d36OJEc/AASeBuv3cRzCcPQqsnKCQ0L76/cxgJlNjePLsbfZBcO3U0qvnAQSUTdkdWULgsVkRl9jG3a097EJnkzyVMjHZrZoufdjCzg/fosBAim0UhPIxdDciR8feJmT8JRLjsS3y3AM7390HHfHpjkckMLmbt4eY1Lf4EA39u/eimeP7oOjjBWhFFJ3+s5VvHXyo0dcDDSHtrpGHOjeylYRqoNAlhGnlc5RkUEPrWU4NMVJfpZaEDoWXQx7q3QxZDI5nDpzGSdPX4Hb7cCzR/aiv68TDoetKnBA7yaQcn1iBP/vsd8+4mIgsBN0+/BM7044bQ5kxRx8Dje8DhdbDNL5DC5O3MG1qREGDPcAAgxoIBfDjiN4cehAZReDKOPchWt494MvsRCJ441Xn8XBA0OYnJzDx5+dYgD353/6XfT3dq4Y6kjvJhfDZHgO//m9X2guBlWCzXgHwU7dxbD021QHCNXplifVSwcINZR8rQECRRB0+7ahyzfISpSUO93GiWBI5Wj5JpqdQ7aQhs9az7594gqoFObY+5cMKIhcGHS2IpKdwZ3IJVbK9c4WLKSnmaR4uOM19vl/MvJrtkx0123HnqYXYBVsnICITP23Fs6ysqcoCnIF2AUnj3UncoHn0xfYzcraYwvAKtj5GQIr9A5ZkdmlQaRDirAYS9zkeVJrcXcj6GhDo7uT+Rb/P3vv/RzXlaUJfi8zX3oDZMJ7QwM60EqkSFFeKpWqVGqpu7q7urd7d2IrtmM3Zv+W3Y3diPlhf5jenZjontnpLtcqqapkKImkKHoHGhjCeyTS2+c2znlIEgSBNMADCJLvKhQkgWfuPfe+e757zHcIVEwlRthVQO+uctZiT+0xVLlq0Td7ATdmz3HmBTUmrbE42HXBp2Gbk9MqySVBaZ23Zr7noEpZ1bkdyOqcSaiIzhcPUiQLApnkqzw+rkRIirTeX42gJ8DuhpnYAoMEMs0vj0MgMNHqr8VfnHgXvRykWPzkn8lkMTY5i8hiTFdwqTR++29nmEPgvbdf4cj5zo4WBg9rNZ7/ZBR/unEBX/RdRHpFkCKdzHxOD+p8VchJEo8n5AugdokHYD4RxXhklusiPDYWTUANBSkefR0new6VNMuTa2FsfBq//fQMJqfm8cbpYzhyqAder4fTNkkWBIBKWREyuSy+vXMZv7r0NeIrghSZE8TuRFNVDQOzWCaFao8PDYEQl2eOpuMYDc8gmiYr2TIXAwC/6OYgxfePvFo6SFFWMDw6yWN58GAcb7z2Eo4d2YfhkQmcv3gTToeIP/vpW+gskYZK8RTXHtzFfz77eyyYQYqmBcFAPbOVjzIBgoHSNhog0Cl5R/AgWgM7WJF6HQQQ0pytQHEGdCynVEPy67dX7YVb9GAwfBPx/CLe6/4b+JzVHIxI1y2kpjiyn9wNZM6P5yNs7icFTEr5i6F/5tgGslQQSKAUxLyaQ4QCChWJQUatpwlU4J64FoYjdxDLLcBmsXOQYU/tET7BU7/C6WnmICDFZ7dRuh9Y4S+kJtiikeR3k4XAzmyIFL9Algp6F7kS6DkUY0F/khWELBy35r5fsmo8OrVT9gaxN9Z72jkVtM7TylaQwfB15lqgtE16DjUKF8hyFoMDObW5aJojgQ5yJ+gxBhq7MSgwjhoBBrIqrEaiEnJ48clLb+P4rgNcGbBY05kT9YBBsgREInH8n//hn5DOZPH3v/gp9vR0ccBisUb3ji1M45/PfY6+mZFVy0AXxkJDocwR8uNT8SVqNA4az8qxkN+eIv8psI/SHAOe4v52OlVTFsZnfzyLcDiKvT1dqKmp4mh/p8OOjvZmtLc38d+LNUpz/Odzn+HSyF3k8SSbZiFAsdB3mhOuJEmBo5rCY1kZpEjXuix2nOqmNMfXURugrJ8SLJWJFL49dwU/XLwJt9uFluZ6LEZiSCTTOLh/F06eOIRgdaBo0CWV6v7NpS9x5u5VpDjNMQq/bw6BWjPN0bQgGKh0NvlRJkAwUMBGAwSKOaBTdsjVyNkE1a5aju6fTY2zYm70tTGrIjEUVrsbmMr48uRXHGtAREkBVw1iGZ1lkRQ0baLEnGixiOwucFqdqPO2YTw2wDwIZFEgBU9WAKJMppRK2ksp7oDeT42U/0xyjPtBaYzUx2ZfNwc2UjAjETpRXAIBAXqW11HNqYjVrhoOiqSYifH4AP+dFBMBiJ7QEQ56jGTmObCR3k/+cvp9MhfnTAQCPar6eM0BAgOUnbE7dAQBdw2DISKGmoj1s1VlOW8CKch8RkWMiJJyDQQ/DCdKclvseG3XYbzTexz11bVlEyWRXImtjyLnyYJw6vhBNDTUlPTNZvN53Bi9j/9y7jPMElGSgWvZIYg40rYLPzp0Cl31LUVdJuQWGR2bwq3bA1hYjPG4qTARKWKvx43duzrQ3dlSFPAQmByaGsN//PrXGE8S3bJxjYiSdte14ceHT2Ff246SQZdkEZmeWcDtO4MYGZtCLi/B7XSgqbEWB/btRGNDbVHLDoHf6fAC/uPX/4r++QkoggRRmEKwNg2X3yRKMgGCcWt7s59kAgQDJWw0QKCTEZnLyZQedNfz6T6dTzCfAJ2+m/wd7Isn5UfXknKleAFSFPtqX2aWQvLZM63xMu3BByiNWAxdHOxHipmIhSiuQW96Oh+dnumUTuZ7kQCDKvM1XO9hyYxLJ1SHzQO3zcsuCL8jhKnEEAc00kZJJzyvWMVuDeoPZTLQ7yhAkqmWLVZUOxvYEkAWDKJhLgAT6jOBEKaLXoU4h/gViBiJOBuon+QGSeajkNeoK0GFmlJRAfFoFSRQoSZjuRAo1bGdfPfHXkdvx+6S/u7lS4+sAdFYgq0KAb+XFVCxky5zKETD+OzaWZwbvGkYB0KhT0S13Oit5poSx3cdhM+1NvUzATmK/k8k0hztTwGLhUbcB5QJQLEIawWj0TpIpFP407Xz+OPtC0gsuYWM+jRpLQcdXrzecwRv7n8ZQR/VBylOZECgJ5lMYSEcRZrJnxwIBas4vqIYSRKNnFwl5+5exW+vfIPFHGVjZOCyjSHUBJNqecWkmjEIRq3yzXmOCRAMlKvRAOFR14j+2M5WA0WTONWRtjeqgaBns+vMxKxMVZmVJZnnaWOkIkarFj/ifHIbxymQ4s9wwafVz236ZiqwnX614k96VUXd8kCpiRSXQO8tXMtmbouN30c/Iz6G5X0iS0MhloCLOZV9FtarRRbM/wQsVgMSBTk+KtZEmRV1hhdrItO8y2rHie79eKf3BFpC9UUpilcuPTaPayjJF8CWlUyafdyfXv0Wk8lFqJtQrMkp2HCgeQfeO/gKB15Smee1mh7xraf3PX5C1ONFihZrkvO4Mz6Ef73wJYajM5tTrEnQ6Zbf6z2BA2WCN3YDkQtI1XhOShWdonFToOWDmQn86ocvcW9ulOuiWIUw/L4w/DVmsaaV68cECAYqoE14lAkQDBTq5gGER+d6ffstbUwm4KBfWcxY+8hSUL5SXltgDys/llt+2UDZl/UoqseQV5GIWJBMBiBrQcPLPRNcq3dX4XTPYZzYdRC1/uqSNRXK6vvSRTTz2VwW/VMj+PzaOdyfHUOOLCzGlpXgtxHmqHb6cLxrH07vOYLmUH3J4MtKxsIKVZYxujCFf7t8BrcmHhhedKrQHxKP1+bEodZdnM1AbpNi1SkrHQddTyRRM5F5fHbtHK6M3EVCzkDQ0nCIVIdBhcNllns2AcJ6VtbTu8cECAbKfrMBgoFdfWEfReZvKvkcj9iRzYWgwgssgSmjhGIXrFzV8cTOXhzt2suBccWKHZX7XjrRpnJZPJgew5e3fkDf1DC7FjYDHBT6RARQ9d5qHOvci5d3HkBzqJZTJnUX1PobjYUyKybC0/jixgVcGb2HtLK5YyHwFnT5cLhtF17ZdRAddc0MEkq5G0qNksZCaaLT0QV8e/syvh+8iVg+DY1iDzAHX1UcvuCT1gMGSFkF4ft5RG4ASsLClODPQjOq0qFpQdjes20CBAPnxwQIBgpzEx9FnAipOJCIupBXQtDgNBQkkOq0W2xo8oXQ27YTx7r3oaG6ltMFy63wuHz4BQUUz6TQNz6ESwO3cHd6dNPBAVsRiFlSsKLGU4X9zV08lrbaRrgdTr0mQYVAgUmrFIUpogemRnFh4AZujg8iJeegWTYGOspZMuSOCjq96Glox7Hu/ehuaOX4CgJwlQIFfSwqxxyMzE3ih8GbuDE6sBR3IMEqROFxL8IX0mB3rB7vYgIEkyipnHX7tK4xAYKBkjcBgoHC3MRHkZtczmtIxoBU3ANJrYYmGA8SKJ0w4PCgs6YJe1s6sbu5E9VeYsS0PfRnsyNoecAc137QWPEW6ibkpDxG5iZwe3SQSY0m4gvIyZt72l4ufo53gQU+uwttwQb0NHdiT3MnagNBPoGTb15nmVxtLDrIoNgQRdW435OLs7g9OoCBmXGMRWaRJnCw+djg4ZDIkuARnWiuqkVPYwePpylYx0GlxI7IdSv4auERmyOlifK8ULqoxumpxHUwE13g+ImB6TEML0whIWWgChJsQgxORxT+oAKHe+0YDBMgmABhE7e6DT/aBAgbFuGjB5gAwUBhbvKjCCRIORWpmIBM0g1JDUDh1EdjMxtIbToEG9d1aKyqQbXHjxpvAAGPj5UrsR2SQio0CtIkQiObYEE8l0Y0HkM4Gcd8MoKp2ALSch6y9iRHwCaLq6AuYReotoMPjYEQQp4AEy9Vef1sUSCSqeWncBpLVsozeMjkclhMxhBOxLCQimEqShknWR5L6Yga40dHil4HcG40+ENMSR3yBlDt9cPrfNKiQAAnK0mM5QiwRZJxLk8dTsV5XqgGBJGCkVvBJkThdMbhrSJwQAG6a/ffBAgmQDB+dRv3RBMgGCdLPAQIwdOI+1uhLRHSrPUKt5BFj+MCetsvo64+jiJB4gb20nxUQQIFS0I2AaSTDuQkHxTNC00g9sIiu/o6REjGeErpFC02uEU7nKIDIhEwWfQqiwVLPUXMU9Ehys4gyuBMPouMJDEJEmdprOPdRt9C52t9LFa4bHY+edutepaKnvCyFEqrahyESD+k6H5in0xLOZ2gaTuNRbCwG4XotGksVJCLmErZjlAYi7Y0FgiQVQILOaSWAA4xO2qCDIuWgdUShduTgduvwe4qDg5oXkyAoFtXKnXvGL2mV3ueWYsBED766KOnuucYFezyaNN/WsMRoAgiZpy7MRQyAcJWfMBGvIMZBmUNuYyGTNKCbIbqFHihwQUNlJa5lOJZoa997b6RTUF3IRSs6ss3x0ebkgCtoJyMGOimPGPlWGijf/SiQuqjbn7Q82Se1tdZzvD1mX7kKlnu9eB9irNzdNCgj4MiClVYtCwslgQcYhZOXx5OtwDRbiHS0ZKtFEAwen8s2aEtvqCw9rcjQCA30ovehJ/97Gfb+ZuteH6e5gelWxBMgFDxpG2DG1RFgyxpkLJALmNFPmuFrFD1SQc02JeVhy4Ahm3QabMLWygBAgikMAgEEYGYBAuIjyQHu12B06NAdGoQHcISi2R5XXvRAUJ5Uno+rjJKN20lmDIBgoFrzwQIBgrzaTyKrAmqxpUfqSCgrAiQJQGqLEBRBT4wMg9QOUfDp9F/852bJgGBgkcVleMJLCJgtWqwihqsNg1Ul8sqEjDQSaEqaSZAqERaz/a1JkDYBvNn1CSsZygmQFiP1LbhPTqhIbMCUkVnXlMEDh52tTIlsA1HaHZpHRKg+BAOFyG+I/rTSgF2BZfEOh5YRgzC09zP1jci8661JGDUXFYKQjcyI6YFYSPSW3GvCRAMFOZ2etRz5YTbToJ9dvpSWAIPoaFBGNG0IDw7a2CjPTUBwkYlaMD9Rk3CerpiAoT1SM28x5TAiysBEyC8OHNvlG4yLQgbWDNGTcJ6umAChPVIzbzHlMCLKwETILw4c2+UbjIBwgbWjFGTsJ4umABBlxq77Knkrx7Rp/9wE6oNrmeOzHueQwkUaBgpu4D+4xgBg3wAmywuEyBssoC30eON0k1bubbNGAQDF5AJECgTjDgFFORSEpScAoGCuMrIBzdwGsxHvYASICxKmMBqt8LhsUF0PM7quF1FYgKE7TozxvfLBAjGy7TiJxo1CRW/GFhiUnxxeRAoTTyfkSDlFFhFK6y2JYa0Z+Mwt54pN+/ZLhJgg5UKKatCUzQ4fCJsRFa0zS0JJkDYLgto8/thlG7ayjVtWhAMXBcvugWB8sTTsTwEiwVOnwhroTqfCRAMXGXmo1aVAKemapDzKnJpmVMQXV6iTN7ei88ECC/OejYBwjaYa6MmYT1DeaEBAlVIlFVk4nnYRAucXpHdC2YzJbCVEqDYl2xCgiKp8FQ7mNVwOzcTIGzn2TG2b0bpJtOCsIF5MWoS1tMFEyCovDmTaZf8wFu5kNczX+Y9z58E6PvPJSW2JLirTIDw/M3wszsio3TTVu6rpovBwPX2ogMERdYBgtUECAauKvNRlUjgMYBAFoRtbsUyLQiVzO6zfa0JELbB/Bk1CesZyosCEBjBLvl8H8pJA7YSIBRQdLH5FmDhssRUOpkqs6mazGV8bRYRqqZAViWdRtlsz40ETIDw3EzlczcQo/Ya04KwgaVh1CSspwubBRDKXRBGjZ1yyUWrA07RC1nNIyOlWBxWwQq71QnRakdeySInp6FyhTu9jm8pgGARrHCJPr7/MY4ErnJQ8BUT373Az01JCchK/okiwVaLCL8jyEFpiVwYiqo8dGcUZEBjsNscqHG1wOeoRiwbRiQ7i5C7AW3+XUjl45iIDyKjpCEpWSiqzM9b3mwWO+w2FwMKipAnUKGoEiQ1z9evvwkMXOxW15IsgDSNVaWxbnYTQONy2tywWWz8MgJKOSXDsl4pg83szcN1ZvPw/EtqFjklC3UDsjUBwmbOmPnsjUjAsP15CzNzTBfDRmZ8xb2bARBIqZKCc1pdS5u3XnJWj9km/iEL6L+8JiGWW2AFttFGCmRnzWG80vI+JuID+H7sM6hQUeNuRltgF2o9zZiIDeDu/CUk81G9JyUAAil9v70GJ9t+jPaqPVA0CaJFBI2PlJNoccAiWJCR03BYHUhJSXw3/GuMxQceU5z0nJCrET/a+bf83m8f/ApJOcHghRR3MhdhcEHKx2MPYGfwEBp8bZhJjmEuNYH9tcfRFdwPBSoy+QQmE8O4O3cJc6kxKNojpU/Pq/O0oafuJTT7OhmAJHJRzCRHMRq9h4X0FCQlV7GodeDiRpO3EztretHo60QiH8W50X/DfHoCKlWH2sRmFWxo9HXhYMMpNPk6GCzMJMdxY+Y7jMXubxFI0QdIQK/VvxNHm96E1x7AeGwQA4s3MJscRZ5lW7l1xwQIm7h4zEdvSAImQNiQ+Iy52ahJWE9vNgMgOG0eHG1+ixWzw+qEi09+TshqDhklwydbUpTh9AzOjv4W8Vx4w2Zzsh7srTuONzo+xnDkDs4M/wvIXE+KtbN6L6wWGxbTMxgI38BkYkg/TZcFEEI43vojtPh3Ip5dgN9ZzSfZhfQMqp11nB45kxhFlbOGFQQpzcnEICtuuo5kQUqlylGLU20fIOCqQSwT1k/0moyp+ANcmvwCWTnFp/6QuxG7godQ72tDNDPPp1PqP/0+no2g0d/J47gxcxYzqTHk5QxbCaiRIrdZHahy1qHF340mfycDNbqGxv1g8Taf+jUq81h2E+CwubErdBgvNb/N45mMD6Jv/iImYv3IyullT9ItKo/sKvSvlQpTrySo/3QtZbo8il9nGnTavGxJofncETyArJzBtelvMbh4fQ3Q86gva79rqarhQ+i6UihP/p5+4hA96Aj0YH/dcTT4u5DOx/Hd6G8xHL0DmUACv3BlJsLSWFdJUDABQtmL0bxwiyVglG4q16JsxPBMC0IJKVYyGbIgYsZhLFESnaodNi/sZPK3urC//gTqfR2YiQ/j3vxlpJUUb6KyJrHC2oh5tiAKOs0TQHi942OMRO/g6+H/xsqr0duB1gCZ52OYTowglguzm6EcCwKNI+Cowe6aI2gJ7ITNamclTqDHbfMy6EjkI0hLKVYH4cwM+uYuMGCwCAI6q/ajp/YovPYq7iYp2pCrDmk5heszZzGbHEcqF0UkO8fuD78jhCNNb6A7eAA+ezUgqLDCxpaLaC4MOkl7xABSUhzTiWEMR+7yWNNSnOVJIMkl6nIXLXa2cND/RNdH/aT3SHK2IpM8jbct0IPT7R/C7wzh6uTXuLtwGfHcIpv5adz0LofoZZ2o/9vBf5KyjOejDGAojoLAhdPqZquLoinISilklTQDANHmhJ36uuQWItnS87NyUj+Za2BXUWf1fhxqPM3X3Zo5h/4VAIFdSjYX7FbdHcH90GRkJHoOgVMNFosNLpsXTqsTgsWqkxUpuSWXicyWF4fNBZeV5tjK8qK1lKG1umTpIbnQfB1seBX76k9gMTOLM0P/DfPJabZwWAURIDplouvWBKiCCkXNIadmoAmPW1yeVYAQvQHICQsKHrvCt2iUUmGYZYBp2sj+GKHAXtRnGDGX5chuXQBhqzpXzgCWX0OL18gFbLFUxhGsCCKmnbswGDyNuK8VmmAtOgS3kEWP4wJ62y+jrj4OUXz8cpKz3eLkTZpM8XSK3l9HAKGNFee9+UusGOg8RXYE8qVn5OTDjZtcD+U0UjqFkzNdXwAIb3T+OWYSI7gw/jkrbLJaEG8ymcHJX16wXhQOsMViEEjhdlf3Yk/dMbYWkHuBTuhkEaHfkWuE/c8cPCgjmp3H/fmr7MYgFwQpeVKqdoudT5Ru0YejLW8yuJhPTbLiInfH0MItjCf6oWoagq56tiC0Vu2EU/SgylnLSiknZ2ATrLBYRB4HgYLRaD9bEqLZOZZ1s68be2qPIeiqY6sFvZcAA7kmBsM3cXPmOyykpx+TWylZE7h5q+vn6KjawxaIHyb+iHDm0TPY5O7rxsHG1xg8kVWk1t0Ml+hhV8gfBv4zMnIc1a567Ks5gY7QXjgEByvce2FdVqTEu6oPoK1qFwdn0prx26sQz0fQN3sRQ4s32YJC7+oK7sPhxjcYVKwECDbBhqCrAZ3B/Wir2g2fvYrBXEKK4drUGQwt3mKwRW6YvXUvo8nfBZsg8jxOJYZxbfoMFjNzHHPSEzqM3TVHWX6k4wejt3F9+hvEsvMPY1iorzWuZrzZ/QnqPC0Ymr+Jwdk72FV3EH53iNcLXUPxJjk5hYnoMG7PfI+ktviYFedZBQixmwLkuEUPzVlqRu5ntJcYtW8b2S+jgEupb2+7/N6oOdiq8awbIGzHgdLCpWh1I0ACgYP1AIQZx04MBE8jZgBAoNNks38HOqr3wu+o5tNljacRbtHPJ99IehYSReITzbOaYx8ugQZZU9mE7BOreFMt5sslWSVyEYSz0w8D7woA4d3uv+ZNZTY5xs8eidxlhUaWClIEjwW0leFioH53Ve9jRU0WgKC7HlWOGj4lkpImIEAn4mQ+jqHwTYzG7rG1gk6p7YE92BXqhc8R4ngDmhuPzceggYDFvfkruB++jrnUKFs1CET47AH01BzlmAdSiHQvQSk64RK4KTRJzWEqPoJbs+c5kJHk6RH9qHbWct8IMDT6O9AW2I28ksat2QtsbSCgUW6jcdW6W/DT3f8O1a46/Gnon3Fv4crSM3StQNaK3aEjeLPr5/DY/ez+SEpxtAV2IpJZwD/f+t8YkLzU8g6Pi8AhKeFmfxevh8uTX2M2NYbeupPY33ASFgiIZhe4RgFZbybiQ7gw/hkm40O8LtYCCIJg5TkiC8zO4EGem8J7KDj03OinLCvq4yttP0ZLYAfmkuMsQ9FqQzqfRH/4OoPVA3WncLjxNL+PgEOzv5tySxhAXJv+mmNOCo0sESbNCC0AACAASURBVGRFONH2AdLZGO5MX8ORttOodtfyOqT/aM2R3Ifm7+DMg19hPj8GbcktRM95dgGCBQpZEJYBBM68UStxYa2+Gkl29L0YtWcbtccWemtUv8r9Fp/GdUYCtK3svwkQ1pD2+gHCLgwEXzUEINAprs7bxj5wj72KI94bfB0IOIJslibFrUeeUyR6ns3+pLhIqR1uepPv44yBNRptRnTfeGwAV6a+WlKsjywIb3X9BSvoufQkK3JSqpPxB7z5z6XGkVPSj8BYGVkMdJo82fYTtFf1wGohNWFFOD3LikTRVFZoAYpFEFTcnbuCewsXOYOCPi4aP8Ue0CnUSlYMTWHLCp3yyVXQH76GG7NnkaKgSU1jq0SDpx376k6gO7iflTwpKTptUzAnxRKQIiSFR1aMkeg9XJ78E1tKdNM3pUja4LX70VG9DztDB/m5d+cv48HiLWRkyuwoP4jOarGju/oA3ur8hPv9m/v/N8ajA5x6WWgEEPbUvIR3d/4NaO7Pj/0eU/FhHGp+nZXimeF/RcAZxMc9/xO7CG7NXcBieha7aw6zQh+M3MLt2e9xoP4keutPsqn+0sSX3M/DTa8zaLo+8y3uzP3AY1wLIJDsemqO4WjTW7Bb7bgy9TWmE6M41fYTdAb34vzo73Fn/iJ2hA6it/4Ux4B8P/Z7zgohZU1KnH5Gsv1w1/+IRl8Hzw+5cbpC+9Hi28FA5vP+/wex3OLD8ROI66zah4/3/gOyUhpf9f8rumv2o6fhCAcx0jqQFQkz8TFcGv8Kt+e+R15LPRaiYAKEJz92owFC4SBmlKIyAYJRkjT+OSZA2MYAgU5MdHomczO5CxyiC731r6LJ18mKo2/+AtJSUldUmsZmdj1VjgLRPGxx0N2Oa9PN0sfOqYxLrgm6+mEMQufHGIve51MnZwSEDqHG04SF1BT65n7goEAyM3MrAyCQW+B0x0forNIDHclPTgCAlAk9gBQ4nSLJv3116lseH/mqSeGQO6Le3Yxm/y40+FrhsLr4teQ6IMBEyvDbkd9wPAFlXAScNTjS8AY6qvfwyZxO2KRkJCXPLgm6JpmPMcCiE3gkM49bs99zBD2Z9unET6CEYhj21b4MvzOImcQ4+ua+x3i8nxVYJSmBrHRDR3Gy7QP21X96/x85QHG5a4f6SYr5za6/AFk1/r9b/xe7PAhQcJ0BVUJX1X581PNLTuGcTowxqKNnk8Ifi93D/YWr2Ft7nAEN/fvc2Keodtbjldb3OW2VXAnXZ77j964FEMgtcaz5XRxqeBVzqUlcmvgTZ1q80fkxBzYSQCDrB2VC7Ko5wvEf349/xrIrjIfiJBo9HfhZzy9R523hDJJEPgZRsHMsArlnvhz6LxzPUWh0T4tvF35+4H/l+I5P7/0j0pkUjrW+iT31x3j9zyUmcWX8DK+/jBZ/ooy4CRBMgGC8mtz4E00LwsZluOEnbA8Xg3EWhJUCoY37cMPr7FOfjA/jxux3nKpXOMdSRL0R7pXlQYrD0T49SFFKs2uDToUEN8h0nZTotF4+DwIBhFcZIJDJ3waHhfznmYepdQSIyEJAp/xr09/g9hwBBAJAQMBZy4qz1t3EqYYziTE2fVPKYI27Hnk5j4HwdUynRqGqEoMq8qGTibw50MUuBnIbWAQbK3+yDFAwIyk+AlCUHtk3fwkD4WvsavHaq7Ez1IvdocPsDiEQQ0p6LjnBJ3A6AVNwIKeb8gQUtybQe1v8O/CjnX/Dz/60/x8xHLnFgGW5BYEAwuudn7DF4L/c/t8Ryy48/D0FCrYH9uKjPb/kPn4z8htO36RTOwEecrUQ6DrU+BorckrHJOVOgaWn2n/K1qCLE3/CYPgGj4UAwhGOQbDg1uw59IdvcByLU3TjRMuP0dtwCmPRfnYHiFYng5sGXzu7GCg1tKfuGMfEEEg9O/ZbTn3V+SF0WVBMwc/2/JJjQcgaMhq5izzFsQDIqVnEs4srLChO9ISO4b2dv0A8F8G/9P0Hzj4J2RtwuPl1VLvr0T9/nd+9GjjgWVhOtfwMMSnGbj47LgbTglC5qjIBQuUyM/yO5x0gELHOvrrjfGpL5qK4v3CFA84oeY2yF5JShAmAHpIXrVPCOkB4Ga93fIICQCDlQvs+KVcyS9A7lvvxy7UgEECgID1SuBZNBxqFTAh6ts8R5JNy//xVDCxeZ+VD6Y90Gv3Rjr+FzebAt8O/xkJ6kk/6ZGp32XysaOhZdCKlfpE1ggLrdgUPs9+bXDLhzCyqXbUcdEdAhwACnWyn48OIZhawkJlik7dX9PMJvDvUy/EKFA9B2RKd1XvYkkIBhmRyp/fT7wnEcNBmEZBA4IesGu/v/HvmHyDTP5n7k9TfpfsKpv3X2/+MFeh/vf1/PAYQ6BkhTxPe6/4FK13d3XEbCmRW8gVr0sGG17Cr5hC7oAYWrvN4u6v34UHkDi5MfI5weppdLp3BfTjW+CYTNhH/wFD4FrtfCGjuqz2Bw42v8TwRSKh213FKJAGt82OfM6AgPoyXm9/hvlCAJ/EoUEwMWT9oLkRBxBudn6Crah9GYvdZsefUNGeQUMbFfHLyMXBI8STHW97jgMaJ2CD+NPRPHHgqaFY4BC9bjdJKDJKWfcJyUFjqJkAwLQjr3PY29TYTIGyqeMt7+PMOEOgUSqmGR5rfRLWzhjdv3aQrcIofnaAfRPseO5WWJ7nHryLXxO6aY3i1/UMOFCTTfVqKFbdOlOlieK3zYw72m09OQIXCio0CB6lxGBqTJaUwHR9ldwEFRZIiDjhCnAFAgX6zqXE+ydPPSWFXOYNsviZlOB6nU6zEsRdE7EScAzXuRgYHkcwc6rytHNVPQIIyHciqQRkTk7EhLGSmkZWSfNIngETriRTnWKyfrR176l5mlwNZOAqBmmReH4neZf6JUsCMLBGHG19Hb8NJ5KQMvp/4jF04lHpI93JmQfU+nGh5j60Bv+//fxlALG+kJCk9keID3KIHWUo3hMb8AaPR+5hKPOC4AIpBIJcTKWrCHwQKKG10LN7P64MsOERSRP2hrAGSOcUQkIuCXDD0MwoYbPXv4DmhtUauAZJZ3+wF3Jn/gcEAxYBQYKVb9PK/aU4pLuLy1JccX9LobccxBhENyKsZdoURMJtOjjBIIjkSMCT3Csn21Y4PQRUZydJxd/4iX8tNI1xKQXxqMY+ZaUFY5YM3YxDWswsae48JEIyV57qe9rwDBNoZaWOnlD+KsPc6AnwSJD86sfwtZmfZ1/7YyX4dkqR3NPm6OFKefMWcTlngO1jreWUABApSJF84mbzJ8kGKiulzKPftYRPYXJ6XsuxKoFOyrkSsnPJHQW417ibOyycTPwUbktWEFPVU8gGb0UmZkOLfETyEjurd7G4gZUkAi077dDolZUgggmIUGrztyMtZPIjcZjDgsnk4FZPiMih6n5QUyaTG1cDghrIQmFmR+SCG+aROCraU3OkeCrQ83vIuBz6SIr47dxlz6QkGKWQFCThDaPB2sqmfFD6dxh9vAqcb1npa0ezvZIBE4IAsGovZGbYGHG18E3vrXuIYCyJ1ov7NJikGIAJlydKhu1mqOJ6FlDf9O5oNM/EVWRHolE8yIKZHkiW5OggkkJUjlpnndZFXs5xGWetqekQkpeT0rJf4ADL5JMfQ0PMpDZKeR6my1FdijaQ1S3IlYiya28NNr7H7hdJbL09/+TDgtJIlbFoQTAtCJetlq641AcJWSbrIe55/gKAPnhYbZQBQsJt+utI4P595CVYyraxjXkhp08ZNfmfyKXNaYCnGwDIAAilqUgQUWEiplZTWuJZVvhCUR9cUxkQggRQU5duTQqNraM7JxK4oEpNFFWIwOANBDMBpJZ5/DVarg5+TkiIc90CKl6wXTEC1RERFSp4BBjQGJHS9HmegN0qvJIInUp4Uh0GZF+QOIUtGuXKne0kGBxtPs4mexjESucdUx4k8RfQL/B6yqVAsxVpuC1K8ZMKnwL7lhadI2R5qJIKo/ZydQgGmBBT0WhOPp8zRu8lqQWOl91IsA1lfCmOmftDv9WJXlJ2gZ3cQgCOXFvWNA2lJLkRoZKHsEj1Yluaj8D7KFmFabYuN5UQy07M3iDa7gWMdyGpDVhTKxLk29Q0iudl1xdOYAMEECOvY8jb9FhMgbLqIS7/gRQEIpSXxFK4oAyCwqZOADcUwqHpg3WY2UmwPyYgpdoKJtHRq6uWt4NpgAphN7hO9Vy9a5dVP1r5OdjEQgVEhfmK9MiG56sGVh/lET8qWYgXIyrIdG8mBZECkTvR3yoohl4hujVlfTQoTIJgAYTuudRMgbINZMQHCU5yEhwAhD6vdCofHZhgxy1Mc1Sa+Wj9508mazBGSUjhVb+yVdOInV47D4uJ00ZQUq4jtcWNvr/RukgFZqkQ9jdMAGegAQYacV+CucsBiXTvFt9Lebsb1UlZB+H4eZhbDZkh3+zzTBAjbYC5MgPAUJ4FIlyQVmUQeNrsFTo8IwbK9N+enKK1NfbVOPEMWkyetJZv64m3wcPKwZZMSpJwMb9BpAoQll6SRTIpmmmPlC90ECJXLzPA7TIBguEgreqCcV5GO5WCzW+Hy2alsg9lMCWypBFRFQzaRhywpSwBhey9C04JgTBGpLV1k63iZCRDWITSjbzEBgtESrex5tDlnYnkIVgEOj7jtT2+Vjc68+lmQgCKpyKX1ypguP4HU7W3FMgGCCRC283dlUi2vMTvboRbDdl44q/VNUzXk0rr/1yZaYLFZtv0G/azJ2Ozv2hIg9wJZDlRFhcNlg+iwFeVM2A6yNAGCCRC2wzpcqw8mQDABgqHrk0o+59My6CTHaXBUhW+bn+IMFYD5sK2XwPISydAgOqywO23PxLozAYIJELb+gyn/jSZA2BYA4RLq6hIQ1y68WP6MboMriQlPlVUQWKA6BSXqRW2DHptdeB4kwGm0NgusNmLk3N6uhYK8TYBgAoTt/O2ZAOEpA4Q9zvPobb2M2noCCM/GplbugjaicFS57zKvMyXAZN3P2CckZVUs3M8iftMKJUFU0o/mUVWJkGrjXCEm1fLT/zbMIMWnPwfMvEYflBGKaUtiEJBFj/M8DrRcRn3DEkB4xja4bTDtZhdMCTyzEpAyBBAyiN+yPQYQmLRraT/b6OBMgLBRCW78/hcOIGxcZMY/ofBRbRQgFMyTBBIqaYogYtqxC4PB04j7W6Exhe3azYEcuqzX0dvwPZpbFuFwE8XvMoRAf328TEEl3Vn/tU/jnevvrXmnKYFnSwJL3xeTOqUVhO9kEe+zQUk/2m94D1sCCRseHMUB0f9c92TDT9MPYMw6uvGmd8eATm28K5v+hO0IEkrpynW5GDZdkut8QanBVvrYSv2YMkTMOHdjKFQeQLBqMurlQfT6v0FH6zg81SqovAK/t/DNFL5CC2C1WtiEullBfwywVIDSFSkj4QX5bitdFub1pgQ2JgH+pjUosoZMREZ0UEZmxAZNWqkojVDBy7tqlCI2ul+ViVNTBRATN5edWdaVSvfrUm/dDH1idB9LjaHU70uNcd0AodSDS3Xsefy9ItgrAgi0yoOZcey1nkFHQz98tXlYbND5A1Z8yzowsDCAII4Bq60y60YpeRMooPTEfFaGJmtcdGe7LeZSYzB/b0rgmZEAU5NryMcV5BYtUFLCmoXLnpkxbUVHyXghA3IakOIClIxQqBZv+H5VsEgbMaztaD0ojKuYLjcBghGzv/SMSgGCoCkI5cawT/wanS2D8IZkWAkcWMiK8GTHSIlT+qDNYWGmQqtoDEigjINcRkY+QxX2dEsFWyOftYgvA+fSfJQpgc2WAAckqtBPw5pRp/vN7vVTfr6mWzhzMQWpUQ2ZKYsOEsjgafB+ZQIEwAQIBq73SgGCTZPQot3Fwdpv0d42A7d/hXthZd80IJeSmWteJJAQsG/YkkAfWz4tIZuSOEXM5RVhFcnPYaBgzEeZEjAlYErACAkwkNKQTymIjeYRu6shN2dld4MJENYnYNOCsD65VXxXpQDBiSx22S+it/kiGhpjsDtLp2kxek7KTCfLRZH8dtjI3bAOha6DA/1ZFpsAp9fOdRQMBuIVy9G8wZSAKQFTAsUkoMoa4tM5LFyXkRm3sdvBBAjrWzMmQFif3Cq+q1KA4Bay0HkQLqG2Plk2DwIr9ozCRWno1O+psrOCr+QDYcbDjIxcSuLyzE6vCJtogoOKJ928wZSAKYEtlwDtgYkZHSCkR02AsJEJMAHCRqRXwb3rAQg9jgvobbuEuvp42QCBukT8KfmUjEw8xzEJHLhIp38O613LnKCH/PK9aYkBAsUx6PEMBoIDCiSifujZUEutWL8qEPLDSwsPfhTQqadyvTBZU+sRmnmPKYHnQgKqgocAITNqhWpaENY9ryZAWLfoKrtx3QCh/bIOEMTK3keKXkpLXCCJ1SUHFpYACJQaJAicxkguCgYWRoADBgNEVAWdZllSmGqZkL5OBqfpedgEYdbhDlkuGYHTMVXAQk+0QLBqsFgtPA4uErWUKrpZ6aCVzZJ5tSkBUwJGS0AHCHksXJdgAoSNSdcECBuTX9l3bzVAYLWrUnqiCimvV7HT4wfW0MCF47wgcHCj6LSyYt1IzAFzpqh6dgXxyheq6RW4FChdUs9XprRJQNvIy5ZmgjCQvqj1mA0CAmw9IJBgpT8Bu8PK1fzY9WIWiyp7DZsXmhJ4FiRgAgTjZskECMbJsuiTngZA4A4tKcxHnCHFXQwMITaaxkjpRpoOTijQUc7JusVgiWDpEU5ZSehgwGSsxdOiezVAFgYCBlYbVfWzwu4moEBAaIOmCwO6bj7ClIApgY1LwAQIG5dh4QkmQDBOltsTIGzR+JYvKLIYkGuD4hhUSWWw8JA74WnrYUIJbNrQSacoM8PhFiG6bDoJldlMCZgSeKYlYAIE46bPBAjGyfKFBwjkTsjnFM5+kAgcqBoE5msyhufd0KkqAAUif7JZYHfZ4CCeB5uBAZmGdnj1h+meoQKB/9I1Js7ZAslvw1csi819FqtXGiVREyAYJcmCu3b155lEScbJGU/NxWDgGIo9isFBRkYmKUHKy4/Yy7a7suKiN3pkBlkRXH4HxG3O91Coi0H9JkpeDvYkxj0FenDmdpf5Fq3JF+o1S0CRMoTIEka15Aj46kG5JUjWnjNBmQDBuAk1LQjGyfKFtSAQOCCXQjaRgyypnInwLPn0dVpb/fhFlgSX385BjNtN0XImiAJIWRXZtAZVFqCqNiiqCFWzQlMoe8O2Hl6sLfoKzNdspgT02FwVFosKiyDDapFhsSoQHQLsLgE2kYDDNrTmGSwUEyAYJ1ATIBgnyxcSIFAWAtVqIM4FylJ4Zus0LIEE+sPhEuGu0pkjt0MrAINcRkEmAUiSE3nZA02l3FcbNFjp3KjHVug+nY21SgvybWeLxfM0lmXepNUnmP1mFIkLASoEKLAIEmzWHEQxA4dLhsMjQLRbDFkmG1tkm3e3CRCMk60JEIyT5QsHEEgfSVkCB3nkc8RG8mxZDp6YsKW0TLIcOD0iXAHHhutZbHR50Qcq5VSkYkAu60Re8kLVXFDhIH/CJjA/EXsE6ZglYinOarEskWzpo9F1rgaVKK+WiK82yl+xUTmtdT+zYSzrnGWNsdA4eDz037YEPEvzwuNZyshZayxc50kfi17OUIIFOdisKTicKbi9ChxuPe33eTQ3mQDBuK/JBAjGyfLFAgga2GKQSeQ5KLFctwJzNW2wbeYGXnA3kCnWHXAwzfTT4kpg101GQSoqIJMNQFb9UOE0HBjQnFgFC5xWO9yiHR6nGz6nGzaLFaRQHaL4mMuINo28LCGVSyOWSiIl5ZCVJeQ1mRXTU200FghwWkW4RAc8Did8Li9Eq+4yop8td3+pmgpJlpHJ5xBLJ5HKZ3gsOVWC8rTHQjOtCXBYRbhtdrgcDgRcXjhEO3N9uOxOWB76wYh0TIWkyMhJMuKZJBLZDHJKHlk5DwVk3cvDKqRgF+PweHNw+QRmS91urrSNrh8TIGxUgo/uNwGCcbJ8oQACKS+qHJmKZZcs2yWOXeTjz6uwSDprIvMmVowWBKg2AardAs0AS/paE8YgQSM2SSs8AQfsTtuWn7T0uA4FyYgF6WwQCvzQYDfcYmCFBR6bA81VtdjX0oWWUAPcThcrIbIbkDK1WizLFJHOcaGwYpVYsS4mYxicHsfg7Djm01HkFfmpnMKpvy6LiDpfEPtbu9Be2wyfyw2H6OAxUNNBz6O1WhiLrMjI5nOIphIYnpvEwPQoZhMRZJQ81KdgUaBXOgQbQi4/9rZ2Y0dDGwJuD8+LzWrjb060rjIWVYWiKshKeSTSKYyFp3F/agRT0Xmk5Bw0QYaANBzWCDz+NNx+CzOMPk+WBBMgGKfUNgUgGNc9/UkbDXgrDLLYYI3u88rnPVdZDORayMnIxHJ8wgUxFJbYRIWcCm0hB0tUhl0VIFK0fYVKnpgW5YAV+ZAdin1zd21aK4RfiG7aU+XcUo4EditkFcTDAjKZGshaAJpgMxwckAJq9tfgYMdu7GvpRn1VCF6XG1bL8lRPXc7LpV1wMeg4SkNOyiOSiGFsYRqXh++if3oU8Xx6S0/gNsGCOncVett24mD7bjRW18Dv8TIg0PePRyNYbSw0RgILBHpiqQQmwnO4MXIffZNDCGeTkDlFZGuaVRNQ7fRif0sXjnTtQ1OwFtUeP0SbvgYefWuP3EDUs0e2G3L9aJAVBfFMCtOL8+gbH8SNsX7MJaPIa3kIWgoOWxi+qgxcfiusts39nrZGcvpbGCDM5hFmqmUb12IwupG1xqjGTK+lNtAKXmbks4q9dt1pjhWMpeilRgpOrwVg3KRWOsbnCSCw9SCRRyqa1XOoStAVM/0x1YQYz8AynYVLEeBYD9+AVYBUa0e63QXFscn+0yUGSjpdEUDYSisCpS7G51QkU1WQtSA0gSwHBjYNcAo2dNU04fSeI9jT0o1qrx82a0GZVvYu/rYYKOQwtTiPiwM3cXXkPubSUcjMpb25TYQFLYFanO45ggPtu1AbqOZT9nJLQSU9oH0iJ0uYj4Vxbfgufhjqw1R8AXnSPJvcCBzUuQN4tecQjnTtRUN1LQMDcvWspxVAz2IihttjA7gwcAujizPIqBlYkITTsQhfdR4uz/MTuKgDhBzC1xVkx2zQFIEBk5EHRSMPm0Yp9IK+NOp5pdbbUwcIliWzYKmOlvP7wgIxcmLLeW/hmucGIJD1IK8gTdaDNKVRlVbUXEAppUAZSUOYyMKtCHASQGBgUcHJxQrIDXZkOlyQXaXfW8n8rHrtUlA4BSy6qxxbYkUg8JWKq0iE3ciqtdA45qACGZUYdMF0TeDg7QPH2XztdXoemuA3IjMKilMUBTORMM7eu4oLg7ewkIlvalyCKFjR4gvxWA529qDK42MLiBGNxhJORHFx8DbO9V/HZGwBFGWxWY3sAbVOP97e/xJe3tmLkK+KQZsRTVFVtozcHLmP7+5dw1B4CnktC5sQhdcbga9Kheh4PlwNDwHCDQIIIjSiZVkCCEbt/0Y9h+bWKIX+QgEEI60HNAlGL5BKP9rnBSCQHLMpCalIjmVaVgAfnTCTKjJDGcjjeThVEU5RrPyERxbWRiu0LhtUl6F6c83pJIVNnAieaifEMn21HGMhWPQ48gpO0ORXpvoV0TkN6WwjFPiWAhIrXW1rXy/CitaqWry9/2Uc7d4Hn8tj2AZVeCuZtqcX5/DZtbO4PHIPKSW7KeF+FHNQ6wrgrX3HcLLnCKq9vnWftNeSGCnWhfgizty+hHP9N7CYTWxOTIIG+EUXTu8+hLd7T6DWX20Y0CmMjSwjkVQcF/tv4es7lzCVCEMTsnBY5+EPpjgegXkSDGyFb6GkD5L3aOXhKb9YFwoKdS0lbQIEY+dwrbl4qhYEEyBk0eO4gN51lns28Bt/7FHE2kdpjel4rnzWPvLtJlTE+3NIjyqwaw447Q5UbCGiSozNgGOHCriW6A83a6APd1W9XDRlNFA8QilXIa1bt+iH2+ZFXs0hJcUhK9JjHuK1uszWg5iC2KIPebYeUCqjcY22jYDoxivdB/D+kVf5hFpsDugEnctLkCSZq3LS2EXRBrvdDput+MmWshzuTjzA7y5/g4HwBKRNMM9TQOKhlp345MQ7bIovBCKuqewVBfnCeCgIlQp22e08pmKNAhhH5qbw6dVvcWNyEFmeT2MbZV7sDLXg71//EK21DWWBA85akGSONSBLg93+eLbJaj2kAMaZyAL+dON7nB+8iZSchkWIwecjV4PCHAlrGawsghWi1QELLMirWSglnPsEDuxWFwLOEP9JGSMF1UXgWU/cpEZrS0BGTiKanV/zuQS67VYnXDY3ZFVCWkpCXSU2xAQIJkCo+Os0LQgVi+yJG/QTrsLBiUSrzLEH5axFinpPKsgMZpEfl+FUbXDaxHUABAFCkwXotkDbIgvCEu8MgwN3NYGaJwdMG53NKsJmscNuc6Kreh+afV0Ip6cwEr2PVD7OloS8kkVeyTGDwKqbt6whMqMglWnaHOuBYMXOmmb82ctvYXdzJ6f+ra1MVczNhXGzbwAjo1NIZTKwWSxoaa7H4YM9aGlpWAqaW/0J5J0hk/Yfrp3Fd/dvIJJPLuXlb3wd0hOsgoBmT4jHcqRrD+xi8TgNWZYxS+O51Y/h0SnIsoJQqAoH9u/Ejq5WuF3kylm7JbNpnL17FV/e/gHTyYjhbpMq0YOPX3qDY0Kc9uJ94TTTvIxwOIL7AyOYW4igvbURh3p3w+ksDSopW+Pag7v4/MZ5DC9OQ0EaTnEOgWAaLi/FIqyyxgULAo4QdoUOw2lz497CZUQzC/pa5svpK9CtZjKlu6rE5GhDg6cdL7e+C789hJyag8vqYW6GrJyCW/Tx9fR3h82DudQ4vhn+FVL52BNrhcCJz16N7uBBdAb3YDo+jJsz55CSY09YHUyAUM6mvPHvOaEKCgAAIABJREFU0LQgbFyGD5/wPLgYeGNKy0hF6PRQpnuBDwgakFIgUwzCeBYu1QIHB15V5ibQLBYoDSJync6KYxDWyqgsyalAwYqKxhTMvhrKZngyWIxAQbNvB9qrehBw1qDW0wSfPYBYdhGJ/CIH8NEmOBC+gbFYP3JS6okNkEmncioisxZk8i1LfAfGfej0JLfNgZc79uLPX3kPQa+/6Oom68HE5Cxu9Q0iEo2DTO0TEzOIJ1I4/lIvXjt1BKFgoCjII36Be5PD+NUPX2JwccrQTAA7rNjb0IH/4a2PUBsILiXOrj4kOmnPzS3i3IVruHGzH06XHU6HgxVrc1Mdj2VPTxfsIjFTrt7o5E1WhN9d+gY3pgaQMzA0nuamzVuLf//jX6AxVFvUTcJZI7k8BobGcO7763gwMoFMJouDB3bjLz95D36/t+SuRSf52UgYf7h2DmeHbiCjpCEKcwhUJ+CpElaNtbFZRDT7d2B//Suc/npv/gqf9B02F8veahHhEN0Mgqfiw4hkZ7kfTd4unGr/CXz2IBJSBEFnPeOJWC6MkLsekpJHNBtGtbMWM8lR/HHon5DIRR6zuBHQ8DtC2B06gj21x5CWErg2/S1Gonf4fSubCRCM2zeKLSYTIJT81Mq/4PkACEAuKSG5mK2IxI+CFAkgqAQQJvUgRQcVkillr18hXs0qQK53INXlguIsz3ohaBY4rC6IFtr8HyES5gHUZCbEkbV8URcAAQTRaYMv6NSZFZd9f7Q50uZZ62lGe9UedFTtQdDdgHhuEROxASykp5CUYsjkU0jmI0hLKagUNbVybKqGTFJFNOxFTq5b4jwof32VupI29XpPFd4/eAqv7jkCl734SVM/pUpIpTNQFJWV0oVLN3H5yh20tzXinbdOoLO9uaSrIRyP4j+d+S2uTw0xkZIRjcTvs7k59uAnR1+Dx0HmpLUbjeN23yB+9/k3TAh17MheBm3fnb+KVDKLV08exnvvvIKA31fUhUQWkV//8BUrVeIUMKoR2DnZtQ9/ffon8LuLK3ial0gkjktX+9A/OIrwYpSBXO++nfj7v/0ZqgIUt1K6pbIZfHnzAv5w+wKiuTiswiL8/gi81arOi7CiiVYn9tQcQ1dwH6LZBcwmxtDga+d1b7PaOcdS1iSEU1MMHmZT4xSyilp3K3bVHEaVk9a0wi4Cn72Kv0kCKovZOeSVDBNCTSfHcGf+B6SkR1YB+raCrgbsqX0J3cEDSOaiuD77HcZj/ciuArSp2yZAMAFC6S9g5QZscBRrpR14XgBCJiEhFc5AT8svbyE+CRCgZzGUeX9B1pUCBKIL9ogBnN79AZqqO+AUnbASyQwzzuUQTs7h1thFDM7fhowifmV1iTSJAhWpPsOKYdM47FY3mv1d2F93gje0ycQDTMYGsZiZ5TiEJXJcPjHRhrjSd0qlsROLKuKxIGQ1CA3F/eKVrj8buRdCzfiLV97Frqb2snzczMcgyXxCXQhH8c3ZK+i7O4RDB3bjzTdeQmNDab9/IpPCv5z/E84/uIWUbEywIoGdRncQf3XqPfR27IbdtvbJn8aQSKT4tP37P55lF8mJlw9gbHwWly7fQjqTxeHeHnzw/mm0tTbCuoqFqCDrdC6LP904jy/7LiGcTRjmMvFZnfjL4+/g1b1HmQipVCN3SSKZRjSawPVb9/HHL8+jZ1cn/vsKAAJxV/zQfxO/v3EOE7E5CIjB61mALyhzNsPKT5PcCkea3kKLvwtD4ZsYjtzl8dsoJkEQlgJyNf6uKDaA/iTrwtGmN9EV3A+HVefXIDec2+4DrceskkNezrD7ja4ngHB79nuMx/uhqBJfW+dtRW/dSTT5OrCQncGN6bOYTY4iR/etEfpqAoTy9uVS66zU700LQikJVfD75wsgpCEQsUqZCv4xgDCxjAehjDRWPvMv+URVCyDXich0lpfmSKeSoKsRf33yf0F3fQ/HCeigRIOsypiLTeO7e3/AD0NfIK9l1p5NFbCKVniq7BCdTwIbCp4KOII42HAae+teZhNxMh+HoilI5xOIZcO8KdLpdXjxDh5EbiPJftZHsQiqoiI2pyKeaoCikfm/eBAgbbYiBQqSa0KR+UTMslrKnljJ+UHpgHvrO/B3b3yIhqqasqw35KcnE/aFS7fw4ME4FiMxNsm/9cZx7OvpgsvlLAny0rkMPrvyHb6+dwWRHMUhPNkouJDjIQRAkhXmK9FLFNNJVmP3xvJGCqnDV49/99afoaO+uWhwIsmFTtlnvrmEr769iM62ZnR3teD6rQFEIzQHQHdXK957+xXs2tleNK4im8/j/L1r+OzmeUwnwqvGITBYtBA9Nzh4UFYVllGBx0BVnyRwDtq9+OVbH2N/2w7mbyinEfBJJjO4cPEGfv1vX2HXzo6KAAIRQt0aHcCn177DwNw4VCEJl2segWAWDtdyoiy9N07Ri1OtH7DV4OrUNxiO3OGf0xyRclc0SXcl8ozpf1oEG+o9reiuOQiHxY4qVy3q3S1w23X3ViIf04GypmE+PcXgYCrxgIMVyTIXdNXjaPNbaPR1YjoxiuvT32IxPQ1JJYtfkc+1wINgpjmWs5TWfY0JENYtuidvfD4Agp7BkFjIwkpMhhUCBOJBUCfysEh2WC2Pc+KvKmpBgM1mg9vjYV93Op+GFJKhdpYfpOiyeHCw7VW81/sJ6qtImVj5xJLIxHBz9CK+vP0rzCYnoAprk+BQ5gYxzXmJMMlNnP6PI3S36GUT6IH6UzyMB5E+Bga7a4+g0duBRD6C6cQIhhf7MBEfZB8rmWOXN1XWsDgt6wGKAm2gqxPj0JvpxNxSVYcdDS0coDU0N4VIKsE1E1yiHbFMCpFM4jFiMIqS31fXgV++++cI+auK+uwL/SLXwszMPAcqDgyOYnJqDrKi4sihPXj91aNobCxtQSCA8PnVs/jqziVE8hR78Xij6PtGfw12NLTCYRMxOj+N2cQiRMHGrI50ap9LRpg+uNAI+LX5avEPP/o5R/wXIxEiy8z8wiK+/uYizp6/Bq/Xg1AowO4TAibhxRgaG2rw9pvHsbenu2hGQy6fx/f3r+OzG+cwGQ9DXRHYQmur1leFHXUt8DpcmIqGMRMLsxL0Or3M0riQWEROWeZq0YCg6MH//N7P0dPSBWuZvAfstUulGSD86ndfM7ipxIKQl2XcGR/Ev139FvdnR6FpRJq0AH8oqwcqPrHGfXit488YIPww9kfMpsbY3UDZOvcWriKcmX4i+4DmJeRqwqn2DxkUeEUfg/TJ2BBb0oiuW7Tq7rl4dhGXJr/AZGKIrQcUlFjracHJ1h8j4KzF0OIN3Jw9x98OuSZMgPCkBEwehA0obDOLYQPCW7qVNiXdxbA+C4IykoE0LkPKu6Fa3KVz/KmqosuNurp62EQRC4tzkPxx2LokCK5C9HTxcVFsNbkZDjS/jHd7P0FdoBGZXAo3Ry/hqzu/wUxiFApK+MZVAgjEqOiA6HocINAJymuvxo5QL2rdLYhkZiFa7Gip2oF6byuf8K9OncH9hSscsJhX8qtyI5RrQSAl1BlqxPu9J1DjCzLgkRQJs/EwgwUq0HNl+C6GFiaZtKjQyIJwoKETf/fGz1BHQX1lgLsCXW8uJ7EyutU3wH77XDaP9997Fa+83AuHo7hJnBQ8BcN9efciItnHLQgE+hr9Ibx34BW0BSkrwsoAZC6xgLwkMyi4NtqPvulhVq4PAQJZEPz1+OXbn6C1trGoBYHGsLgYw5mzl/HHL85BllUEq/3Ys7sLDocDFy/fQltbI3787ilWsgRI12oEEC70E0A4j4n4wmMWBJJnyBPA2/tewq76NtitIlt1wqkokjlyKakYmB7H9fH7DHqWA6Uauw//8PafY3drV9nESBsHCBLujA/h02sEEMagasssCO4nLQguux9vdn6CNt8O9C/eQFbOot7bgpyUZsVOAGGl4qZvo8bVjDe7PoHXXgWvnYJabRyMSCCATEYUY1DtrEEku4DvR3+PicQApzDS7xw2Nzqr9uBQ42lOkxyJ9OH23A+IZRegFIlnMV0MpouhYm1nAoSKRfbEDRsHCGmo47oFwWK1Q7CQN7lIEywQnR4E6lphFe2IL04i74tB7kBFaY46SPBjX9NLeGXnW5iLT+HMnd+x5aAkOKDuqdALN1U5YGP/7PJek/lYzw932TzYETzAYIF8pBaLCLvVgZuzZzEYvsE/W6vRSTe5oCCWqIWkVq/pYhBtInbXt6GpqgZziSgURcaB1m501LWwxeD2xCC+u38d8WzqsfQvAgi7a1rxV6feR0d9U1kxCMv7yu6G4XF8+ofvMDQ8gfffPoW33ngZbnfp9MBf//Alzg7cQEIiv/GjRsWG2oONaKtpRCKX4niAnqYO7GxsY0XZPzOGr/ous5JdTopDq6bFW4O/Of1j7G0ls/za7hi6L5XK4PwP1/Gr337J6YE9u7tw4qUDGJ+c4dgEshz89IPX0NJUXzQGgQpTfXXzAr68fRFzmdhjAIGsEQ3+ELrrmtklEk0n0V7TiD1Nncz5MR6exTf3rmIyMsfureUtYHXhvzv9Y7y040DJdM3CfRsFCBSDcGWoD7+/dg6jkWloQhwezwL81XnY2Y32+EqllMTXOj/mQMFIepbjDJyiBwupSXYNRHMLDIYJFJAbRVJ1EFQACD6xCj5nEE7RhUSWrAA6eKVvh54zn5rGtyO/xkS8fwkgcNUJDmps9HVgf/0pBiTTiTFcnzqDufTE0nVPOq1MgGAChIq1nQkQKhbZqgAhm9CzGATak8tchytjEJyUxSA+Xolutd7RBmGxu+GobmFAkUtMIxPIINMuVp7mCAtEwQ6XzccbS0ZJQKUSuGU0IglyEEAIurg87mrjpr66RC9OtPwIPbUvoX/hGm+aTpuH3QuUzSCpOQYJOsHM4xsbAYRMnAo0BZBVa9bMYtADIm3scpEUnXnOabOze4EabfwZKcen1+WNXAzNvhB+dvR1HNu5H3Zb8ZM/PZcUNilXxkiqirv3hnULQj6PH71zEsePHShpQYglE/hP3/wOVybuP5EaSGMhnzvxK5C1Q+GxiHDYdPdTTs4jLWWfqKFCy67K7sYHB0/hrQMn4HIUBykUaHnn3gP87vdnONiy98Au7O5ux9UbdzE+MYuTJw7inTePw+NxF7WsJDMp/Pri1/hu4DqSK8AOj0WwsIuAK0SqKuw2G5wUxGexQKby2FKWYxJWNgeseGvvMXx8/B14nWRZK95oLrLZHKefXr7Sh8+/OI/OjmZOcwyFquFyOrgfxYxEmVwWX9++hM9vnsdiNgqLEIHPF2GyJBuRJa1oBH5fafsp9tQeZZ6CwcXbHLBIsTfj8QdYTM/AYrHCaXVhITODgfA1ZOX0MgtCAA6rkzMewumZh+4ISo/0iQFOi7w48QUmEoMPAUKhC5wl5G7Bvvrj6AoewEJqClcmv8J0cpjjH1YGK5oAocyNudRCK/F7MwZhgwJcfvvzEoNA9RdSi1k9KK5MWtb1ZzEIvOlYHB4QIlGUNPI1AlKdzrLTHFdOYcFtXJL/YNmNmqLC4bTBW+NalQehcCmlbh2ofwX7608yeiJTaEZOg2K8KaI7mYuhb+4HzKXGOIBxeeO0woyKxTk7clITVGZRNO5D11MDXTi1oxcfnXgbfhcR1qzdyEdPCvSb764gnc7wuLPZPJ/qDh/czamBdXWhouZ9UpKjs5P4r+f/gLvzY5AMrIjosNhwuGkH/u7Nj7jQVLFG4CsajeP7izdx7sJ1BiPEeZCXJA5QfPO1l0qmbOrcAQv4zcWvcXH0LrJsBjemkUx3VDXi33/wC+Z0KNZoncTiCVy7dg83bvdjZi7MYyOCpKbGOuzc0YaXjuzjuIq14hk4VTIVZ9fP1/cuM5uiKMzDXxWDt3p1HgQy8R9seJVTFon469rUGXYXdAf3o85DFik7u4SIo2A0cg/3wpd1gOBuxjvdf8kugrHIPc560FRpmVKnqq4WpHIxzmIIp6eRkqJPuCuIC6HaVY8Dta9gZ80hzCbHcHnyK8wkR55wN5gAwbh9o9haNAGCMd8/P+X5AAiAnFOQjuYg5RSO1C5H0a4GEKiaY3k8CI9KoapWDXJdZTwIG55CvaYxHG4RnqCzKFc9uTIoW6HR24nWwA5UOWt4EyWLBeVsz6UmOPo7nltYNdBKkTQsTilIMVES5cMb+6E7YMPexg78/OR7aK0p7runU+r8fAR994YwPDqJfC6PYHUAO3e0o7O9iQl5SgXUUa7917cu4su+i5hfYZLf6LzQab3DX4e/evXH2N3cUTL6n8YTiycxNDyOB8OTzOtAaZo9OztQVxfk4MRicRlZKY9LA7eYfXAsOgfFwKJNNMu1Dj/+9vRPcKizpzhD5RJREgWMjk/OIkkWHsryEAQGCQ11IbS2NsDvW7vGBgUo3h0fxGfXz+Lu7ChkNQOHdQ6BENVjoCJqT86OVbBx0GCtuxkZOYWp5DBbwyjexm6xA5SRxKnkCsfZEBUzjavG3YJ3d/wCAXs1EvnomnwjxL5IxGJDi7fwYPHmqpkK1IcqVx06q/ayW4J4RibihZiFR302AYKx+8Za36oJEDa6iy27/3kACAx0ZDKF55BO5NmCUEasGwrVHOVhquaY06s5ikvpguU8YEmOmgVQGuzIroNJcd1TucQY6fI74PJS+lrxj09nlSOzOWVqUOqesLRxktlZ4o1vNf546h/HIYQVxGPVkLQQNKyd37+e8ZDvPuTy4Y09x7j6oc/tLQpBSKmSz16SJHZlECAgvn+qYVAqyJFOk+PzM/iXC1+gb/oBsgaRJBXGTbPgtTpwcscBfPjyW2xFINmXOn0ThwCNicaj12IoTfnNTIyxRfzu0hlcGO5DpkSa3XrmRtQsXFfib177CVsRioFn6jtlmFAaJXF6PJSJIPAcFZsfujeaSuCLG9/jy7uXEJdSsILiD6gWgwS780kOBHq+XnSJeAwo+FLltbwWZfjy/lCgYZ2rhX8UzxNF9RoZCFwyXKcj5/iFFS6ywjM53ofSSMmiqEkMvldeawIEEyBU/A2aMQgVi2zVG8gfn0nmkVrMLcUhlLEYH6vFIMGp2OGw23kTrAAfQLMCVqrm2C1UFKS4kZHTeDlAkUmSnkz/2sizV97LxERZquZIKZ3kZiA3QBnyraATdouNCZM+OHIae1q6OIDO6Ebup0giii9uXsDZ/utYXIP/YKPvJV6JFl8NPjh8Gke798BdglFxPe+jOYmnk5zeSKmaU4lFw+swcL80oNbpw/uHTuLUnqPwudwlAU+l4+G4klwGN4bv4483L+DB4hQUZCFayL2QgLfKYnhJ8wIHhKYJS8B4NSaMSkdS/HoTIBi7Z6wlbdOCYOC6fV4sCLoS090MVLiJTtQl3QxL1RxjVM1xRIFDc3GKWbH89VVFb9PgaAbsOxQIW1DNkQ8x5F5wifAGHUXjD4xaKsS5kFwkK0LVkhWhNLNeRe/WAKqCuK+xi2mKKaOB/PGlTt/lvoNO29F0ApcGb+PMnSuYjM1DNtAcv7IfIizoCjbho5fexO4WYsssg1+jzMEQ0KHAxFuj/TjTdxmD4UlDazCs7IZVFdDkD+Kjl99Cb/suppAuZakpcyh8yqb0yoGpEZzpu4Tb08PIEMUxWQ/cZD2QYXetbj0o9x3b5ToTILwAAIEWm5Eln00LgnGfL5H6ZBJ6yWf2V5YyA5D5kKo5DmUhj0twKTaOuqfKiJUsZaJaFhotULttULegmiPVYCDqXXcVlXou7qM2TrqAlFcRnVGRzjYskSYVZ1Ws+N0a4LHacaClm10NHXXNcNkpvmJ1cqZyns9mb1XFYjLGlQLP37+O8dgcK9RNPTNqgF2wYFdtK350+BR2NrbD43TzWCpZW8vHSFHx5O4hy0Hf2CDO3ruGwYUJZIjDohxhbOAaqwo0B2rw06OvYX/LTviIJEzYmOWKQBvFg/RPj+DcvWu4MzWMhJyBoKVht4XhD2bg9ls4jOB5aA8BwnUF2TEbNEVggFRwRazlvngaYzcKABb6bqTOLCUP4cMPP1zX92DkoI141mYsiEqf+bxYENgaShH3ZEWI5CBLCiv6YlaEQgwCMSkKE3qxJq7FUGYWRGGhEkBQ6u1lUy2XWuBFf08rX9WrOHJ6I1FLb1Ejt0Y2pSC2aEMuXw+FAxYN3r0ppVCwY0dtM071HMbOpnau8Eg8C7zJlDnWgjIl0/VsNIwrD+7g6sg9zCWjkLRNBgcPF4YGO2xoq67HqZ5D2NPSjZA/8NCaUMlY2IWWzyGciOLmaD8uD/VhIjbPWQvr2gzLlOPDyzTAqglo8gVxctch9HbuQq2/Gk6HU3fJlTkzuvFL5UyNcDKG+5PDuDh4Cw8WppHmCog52C1heP0JeALCqqmNlXZ9u1z/CCDIyIzaYGDhzYdD3AiY3kw5VaqXNtIX4ac//WnF38RWIpiNDG6j91Y6Ec8TQCDZKYqGbCKPTCynu8mLKPvHeRAycMkC7JTFUDFA0IMUM51uyK7V+Qg2Oq98P5V4pqA8Yk8MEL1y6aA8Q9677CHMi5BQkIw4kJVroGgUj8DmGsNeRSmfRKAUcvuxs6ENB9p3oj4QgsfpgsOmx4hQ481w+Ws1nReBakBkpRwSmTSGZsdx/cE9jEfmkKZAzK1Rpw9lQd2zaRYEnF501DbiSOduNFc3wE1jocBKJu54cizkRiJFSgF/lKmQzGYwPj+NayP3MDw/haT8/7d3rs1tG1cYfhcXgjdJsSVLjhznYstJ05lmOpN+6jR/wT86TZumaW4fmjRO3DhOasu2FEm8AwSwnbMgE0WRCIA8AEHpcMYz1nB5dvc9C+yDxe45I9YTC1mdZ8PCmlvHK9e28ac7v8drN3YTv9Q8UIApardN18909c4QAcX0ipPsmxRDYjTC/vELfP7oa3z99DE6wWCSlMxHzT5Cs0VwoOF6s2MmZG1zVcpNAeHg8wQQmPfHsq5sc2t2eqWE2/ZZewIIMxS+6oBANyhz5LHjIxiGZu66aLXnNCDghyGcQMO1KAIh3dazT3jaAeLdOsK9FqIiASFOuLjerqG5QVEfmZ/eM165tB9h2IvQO3bg+9cRqfYkgFJ2zbJURVkvKa5Ay/Ww0WiZZE6Ur2EKCRTwZ+rbybYMjMMQJ/2OyTVw0DlG1x9gGAZmv0HqnpQsjZqzzBR6Wi6lFW5g59oWtjeumfTW9PRNr7Z+6UvyKoECTvVGA3NSgf51RgMMQh+hjpbaF5rw6Thny/HQrHnGLwRw7XrDwACBz3Qfj1nwMtAWmRWQg85P2D8+xMmwZ/oS0GO0CqH0CDX7GM12H80NTDI38o6nOV3H9jMBhNzP9XNpL4AggDBz4NByrD8MMTz2EYUx9AXHHk1wokGE+McBoh+HsEbxZKk0543JBqzdOrDXgm78Nu3yXKP87I+IfGK6cdKrhbqJnJi2xYKl3guM0ATm9wkSgCBYRxivIUb9zBHInDrOaDChkK1tMzEppZNMhNavnzCNRHFsJlBKuEP5Ccu5JeVT2tK0sGWZviRbZagvv36fT32hvROmH6YvZa99ZOuTFVNfFGxlw568AiJwPQ3llMNo2g86Skt+MRE1VQQLAWxFew66aLZ91NeS8OHLHNvZep6/lABCOVejAIIAQurVSU+5o97YxEag/4M2Ep4zX6kghj4OoI/HMIkM5xnDBAgbLtRWDfqccLCpjU0rMHk8phtnc8M7N7VzmokivicQC0ONUSfGaGAjGK8hipqIlQtt0kInrx4SSbO+pU5p6dQ/fOxRhDTZbab1h75fhb6evm7OtJcwLYkUSlBA6b8p1XQICz4cpwevTpkaAa/Bf5wxuyOKLymAMM/NNb9fBBAEEDKNGlo98Gk/QpeCACX7Ec6FhEiDJrtFPiZ6YxFL/pOVA6fmoLHholZ3cm+iXKRfWX5LqwlhoDEaaAQDWh53EEUNxJqC19gwWXDNyZBVmOmy9FjK5FGAXnsSJiqL/oWwlQ/b9uG6GhStvOZZsJx8sUfy1F+VsgIIi91js/pRAEEAIdtYoWVa2hhFKwm9IFlJmLEnIZvRkkrRJrUJtNBmrcZ6rZJwMFVjGpuBAuhRVMso0IjGMCsMdCxTWfZy35uX5Dap5jwFEkCwbAXbARwXsN0kt0LWqKeXQVcBBAGEpY/jq75J8TwHEBj4g7F55RCNJ8mIaCmhqg+0k9MK1LyaZ6O+7iU7unOerljWYJzCgllU/vmeUFWxl6XSVavX5FxOVhKqfO0V6BYBBAGEAodXNtMCCOfrRE/jlMiJVhMCP/zllUJVblYEBeYcY/K2no4yUqyDetuB5SwWkCbbyJFSooAoUKQCAggCCEWOr0y2BRAulom0icPYhGSm9NAUTImWv+n4m3m+nW5QKOph9/SGs4QFknpNNLXkDwIDx7VRb7twvPwxGTINEikkCogCpSsggCCAUPqgO1uhAEK6C2g1wWSdG0UIhlFyFDKOk6NX8ZmDDFywMH1tYCCE/kiCyVCsHxPa2VYGDCj4kTnmZTZUclWeromUEAVEgWIVEEAQQCh2hGWwLoCQQaRJERPdK0ayqhBEJslTPJ7GRk/SIfPtU1AGSiiHAr2HpW1bBAFOjf7ZZrVgumFLwCC7D6WkKLAqCgggCCAsfayWBwgfY3u7C5c5qd+yBExCgU4e7s2yfxLWmOsZPglloJMojZN9D8lrjcmfslqwLNdLvaJAKQoIIAgglDLQZlVSBiC8Xf8b3rn9L9zY6cGtcU2hS5dOGiAKiAKiQGEK0Gmq7rMAkouhMImNYYmDMEPfwgEBI7xZ/wfeufVP7NzsouZV+LhgseNQrIsCooAokFkBAoTOUx8HX0zSPYeZf5qpYJUTEkqypkwuLL5Q0YDgYYxXnG/wzvb7eO2Vp2g06VzzxeFgp8voRff8l/P2Rdck9kUBUUAUyKmA1hiPYnR+GOPo3zH8fRt6EpIlp6WyAaN4AAAHoUlEQVQLiwsgJNLICsISVxAsaLykjvBm6yPs7XyJjfUeHDtOsiqffdtgju1pEznNZOYt4G2ESQQTAeOAEvWwRfznumbFjiggClRIgdNHixUoORvFAS/4QxFdQw3/JEbv+xj9xwpRV50KIsZTvwCCAELqSCp6BYEa4CLEpvUUu41vsdnYR8PuTaL8naIAmrmVRsvrYWOtg/b62OxX4IQEuuhGA4VOt4lOfw1hSEmCnGJIJFV5KSAKiAKVVuDnYGQxrNCHF52gEXVM8qhCP3R6OgCCjkZwqBB2LfbVA/PkTJEqOW+wjKJU+hXDVLSqisfoB7NTPs8nUjXs19/Cw8330Fm/Da0oC1/6x0aIuvKxpo7QVD3D4tpk75tQnAkJGKPtHOPl5n9x+8ZDXN8KzJ4FjjEcjTV6XQvPDrbx/fE9HI22EcYeYgIE+YgCooAocJ4Ck6NK9riPjd53eHn4FbyYICHffTOXuGQ6UgYSdKiS5GUFfShteBU/pQLC/fv3C/RmFeXN1qa8cEBW5wWEaYtsRHAov/u5TdRwVLLasNf6GG+8/BBbW0O4C0ICrRz0OjaePN/BNz+9i8f+WxjGDRNbgDFwQTbRpZQoIAqsmAIadhxi/eQ73D36AJvBI1jcGwLOKlLSjCWAAKh5AWGeCXTFRn7u5i4KCFkqdBFg2/4f9tqf4s7NB9jaGswNCQQH/S7BwU08OHwXj0Zvo6dbEzjI0hopIwqIAlddAUvHaPT3cefg77g9+AK29ldeElohrzIgxLRJrISPAAKjyGUAAjU3gYQn2Gt/grs7X2Lzhj/Zk5Bt5yIBeExw0FN49mIL/zn4Mx6NfoeuwAHjaBBTosDVUIAAoTY4wN2DD/Fq/xM4erTyHRdASFwogMA4lMsChF9BQvNjvHHzG2y8NDKRGGchgglKrCl3goVBv4bnR5t4ePRHfDf8g8AB4zgQU6LAVVKAAKE+PMTe87/i1uAzOLKCUKj7TaI8WUEoVONCjJcJCNSBGgJct57hduMBdtqP0ap3YatZu4hjWIgwCts47N/Ek8EengR30dNNea1QyIgQo6LA5VeAAKE1PMSd5+9jd/C5AELBLhdAKFjgosyXDQjUDwcRWqqPa9YzeE4flrr43dT0rLIfN9ENr+NEb8LXNYGDogaE2BUFroACAgjlOlkAoVy92WpbBiBQ4yngEoGCOV40cxtCsv1XazqtTGsJ2Y5hsgkkhkQBUeDSKSCAUK5LBRDK1ZuttmUBAlsHxJAoIAqIAjkVEEDIKdiCxQUQFhRwWT8XQFiW8lKvKCAKLEsBAYRylRdAKFdvttoEENikFEOigCiwIgoIIJTrKAGEcvVmq00AgU1KMSQKiAIrooAAQrmOEkAoV2+22gQQ2KQUQ6KAKLAiCggglOsoAYRy9WarTQCBTUoxJAqIAiuigABCuY4SQChXb7baBBDYpBRDooAosCIKCCCU6ygBhHL1ZqtNAIFNSjEkCogCK6KAAEK5jhJAKFdvttoEENikFEOigCiwIgoIIJTrKAGEcvVmq00AgU1KMSQKiAIrooAAQrmOEkAoV2+22gQQ2KQUQ6KAKLAiCggglOuolQCEciWpfm2U5SCCi/36W3i4+R4667ehleQ6qL7npIWigCiwiAIECN7wEPeef4Bbw8/g5kj3TJNdFT9KKViWVcWmofKAQOLJ57cKhHDxxHsT326+h54AggwRUUAUuAIKECDUBi9w5+AjvD78FK4e5eo1JyRw2qJ5ropzHfWRs5+znKXu37+fG+GqKlyuUVlA4QgO9mt7eHD9LzhZfxWw3AJqEZOigCggClRHASeOsNZ/ijuHH2DX/xK2HmduHPdkV9bEmbmDBRXk6mcaAAkgMDowho0jdxffr72LF+v34LttQNmzMzAz1j+vqWjeH8rvFlZAXkItLKEYWJIC0/uGEw1x86evcK/7IdbDZ1CIc7WIExK4Js5cHSi5MGcfBRBKdZ7CWNVx4L2G5/V7GHibCG0PWlnIvUwzo92cL3ioXfku51IFvfSVVR0QOMctpzO5rwHOtl0FW6R/FNNL1Qje8Ai3hl9jO3gIJ8f+g6lOAgj5RowAQj69KlZaIVQehvYGhvYaQlWbrCDw3GqNFXoHxdxrbnvMzWMwp8EmmpmdFp+iFrfAIMsFJpIuKoZe8reR6xqoch/5VeO1qKEQKQc1PURjfIKG7sCNg7keNwQQ8vlGACGfXpUsrWEhVjZi8N9k+QYIbXappHzMjeLvZ7JPl2eK57TFKdx0AuW0yWKLEZAr20cWoYozYm4bBJA6hq2j3K8VTrdMACGfn/ju/+TC2fcw2YOQzzeVKM15QSULEleCEvj6yfhknXaBLm3ATXZw8yAQfy9YroGK95FftWpaZPHlpGtX4V7G2ce0+48AQjWvmZmt4rygBBDyD4C0iyqPRU5beepNK1v1k0oc10DV+5jmo8vyPYcvp1pwTp5V1Zezj2n3HwGEqo6CGe3ivKAEEPIPgLSLKo9FTlt56k0rW/XJk+MaqHof03x0Wb7n8KUAwnyjIe3+I4Awn65L/RXnBSWAkN+VaRdVHouctvLUm1a26pMnxzVQ9T6m+eiyfM/hSwGE+UZD2v3n/xYDHLPQr9vHAAAAAElFTkSuQmCC;" vertex="1" parent="1">
                    <mxGeometry x="10" y="10" width="520" height="491" as="geometry"/>
                </mxCell>
                <mxCell id="3" value="" style="whiteSpace=wrap;html=1;fillColor=none;strokeColor=#FF0000;strokeWidth=3;" vertex="1" parent="1">
                    <mxGeometry x="100" y="50" width="260" height="50" as="geometry"/>
                </mxCell>
            </root>
        </mxGraphModel>
    </diagram>
</mxfile>